<svg width="162" height="107" viewBox="0 0 162 107" fill="none" xmlns="http://www.w3.org/2000/svg">
<g id="Highlight_10">
<g id="Group">
<path id="Vector" fill-rule="evenodd" clip-rule="evenodd" d="M46.6927 90.3909C34.5023 89.3426 22.1432 87.3799 10.0562 90.2786C9.33608 90.4487 8.61361 90.0052 8.44013 89.2804C8.27198 88.5561 8.71382 87.8287 9.43457 87.6532C21.804 84.688 34.4516 86.6282 46.925 87.7024C47.6629 87.7622 48.2107 88.4199 48.1449 89.1617C48.0844 89.9041 47.4306 90.4507 46.6927 90.3909Z" fill="#0B0B0B"/>
<path id="Vector_2" fill-rule="evenodd" clip-rule="evenodd" d="M49.7468 72.7513C46.3447 68.8242 42.499 65.7389 37.6434 63.8838C36.9497 63.6194 36.6042 62.8402 36.8646 62.1437C37.1303 61.4479 37.908 61.0979 38.5964 61.3618C43.8766 63.3783 48.0675 66.7086 51.7664 70.9763C52.2547 71.5373 52.1983 72.3903 51.637 72.8798C51.0812 73.3694 50.2297 73.3117 49.7468 72.7513Z" fill="#0B0B0B"/>
<g id="Group_2">
<path id="Vector_3" fill-rule="evenodd" clip-rule="evenodd" d="M64.5205 35.6125C63.4451 29.4275 60.5412 24.3611 55.6705 20.3961C55.0964 19.9282 55.0069 19.078 55.4754 18.4996C55.9386 17.9205 56.7849 17.8305 57.359 18.2984C62.7492 22.6883 65.971 28.2957 67.162 35.1438C67.2914 35.8768 66.7986 36.5769 66.0721 36.7062C65.3403 36.8354 64.6446 36.3449 64.5205 35.6125Z" fill="#0B0B0B"/>
</g>
<path id="Vector_4" fill-rule="evenodd" clip-rule="evenodd" d="M125.303 34.0954C126.202 35.434 126.984 36.8557 127.617 38.3474C127.9 39.0116 128.371 40.4088 128.341 41.5591C128.314 42.785 127.79 43.764 126.675 44.1869C125.194 44.7474 124.083 44.5492 123.268 44.021C122.482 43.5135 121.922 42.6249 121.633 41.4845C121.08 39.3048 121.551 36.1188 122.163 34.3386C121.187 33.0712 120.091 31.8987 118.898 30.8321C110.011 22.8882 95.5793 23.8608 83.5539 32.9416C79.3451 36.1212 76.6761 43.4803 74.8206 51.5334C71.9299 64.0722 71.2098 78.354 70.8678 82.5237C70.781 83.5531 70.6178 84.1517 70.5511 84.2676C70.2344 84.8384 69.7748 84.945 69.4592 84.9699C69.0026 85.0008 68.655 84.8756 68.3838 84.6936C68.0174 84.4447 67.7376 84.0468 67.6502 83.471C67.6044 83.1532 67.6306 82.7208 67.6919 82.2634C67.7377 81.9466 67.8401 81.6062 67.8013 81.3712C67.5468 79.8654 67.2033 78.3846 66.8716 76.8948C65.7685 71.8879 64.1521 67.1316 62.3007 62.3547C56.4191 47.1764 50.8726 31.2127 39.8378 18.9245C39.343 18.3732 39.3834 17.5189 39.9349 17.0196C40.4811 16.5197 41.3288 16.5624 41.8289 17.1148C53.085 29.6462 58.7999 45.8929 64.7993 61.372C66.3735 65.4353 67.7819 69.4858 68.8616 73.6791C69.4937 66.5422 70.6412 56.6933 72.8999 48.1163C74.908 40.4882 77.8559 33.8765 81.947 30.7854C95.1203 20.8375 110.949 20.1127 120.68 28.8147C121.721 29.7462 122.7 30.7522 123.596 31.825C130.232 22.3936 142.51 19.6761 152.436 25.6346C153.074 26.0161 153.279 26.8443 152.901 27.4838C152.518 28.1227 151.696 28.3326 151.058 27.9511C142.113 22.5821 131 25.2637 125.303 34.0954ZM124.159 37.372C124.523 38.0332 124.852 38.7134 125.153 39.4122C125.311 39.7868 125.577 40.5029 125.648 41.1828C125.662 41.3418 125.641 41.5859 125.628 41.6985C125.24 41.8402 124.943 41.8963 124.722 41.7519C124.445 41.5737 124.333 41.2139 124.232 40.8146C123.975 39.8124 123.999 38.5242 124.159 37.372Z" fill="#0B0B0B"/>
</g>
</g>
</svg>
