<svg width="245" height="179" viewBox="0 0 245 179" fill="none" xmlns="http://www.w3.org/2000/svg">
<path d="M115.27 27.8887C114.293 27.8395 113.329 27.9367 112.381 28.1649C111.684 28.3327 110.594 28.7727 110.233 29.3871C110.118 29.5829 110.149 29.588 110.217 29.8041C110.364 29.9518 110.494 30.0936 110.701 30.1632C111.313 30.3695 112.495 29.7332 113.073 29.4983C114.106 29.1808 115.018 29.0151 116.087 29.2701C116.636 29.4006 117.491 29.8073 118.053 29.6908C118.364 29.6265 118.377 29.5594 118.541 29.3228C118.547 29.0452 118.595 28.8981 118.377 28.6723C117.829 28.1029 116.042 27.9686 115.27 27.8887Z" fill="#212021"/>
<path d="M135.311 28.3313C133.982 28.2202 132.872 28.477 131.763 29.1769L131.957 29.4983C132.013 29.5839 132.333 30.0447 132.416 30.0696C132.527 30.1034 133.48 29.7887 133.669 29.7489C134.413 29.5918 135.489 29.6316 136.224 29.8167C136.807 29.9635 137.341 30.0899 137.886 30.3439L138.012 30.4036C138.771 30.8224 139.473 31.4862 140.353 31.6522C140.611 31.4878 140.671 31.4545 140.815 31.1816C140.813 30.907 140.769 30.7474 140.596 30.522C139.36 28.9149 137.264 28.5677 135.311 28.3313Z" fill="#212021"/>
<path d="M215.118 145.515C214.772 145.438 214.353 145.455 213.998 145.49C212.781 145.608 211.583 146.027 210.37 146.212C207.52 146.646 196.548 147.619 195.022 149.598C194.854 149.816 194.835 149.942 194.883 150.197L195.151 150.324C196.444 150.226 197.616 149.862 198.862 149.548C200.193 149.213 201.537 148.932 202.891 148.693C206.018 148.139 209.207 148.001 212.315 147.332C213.169 147.149 214.352 146.909 215.034 146.37C215.311 146.152 215.427 146.023 215.458 145.692L215.118 145.515Z" fill="#212021"/>
<path d="M173.61 164.137C171.976 164.025 170.415 164.326 168.797 164.462C166.132 164.685 163.444 164.861 160.771 164.979C157.854 165.108 154.889 165.055 151.967 165.007C150.634 164.986 149.316 164.912 147.981 164.96C148.426 165.231 148.842 165.454 149.335 165.641C151.256 166.18 153.166 166.399 155.169 166.466C156.76 166.519 158.367 166.429 159.959 166.39C164.032 166.29 168.191 166.224 172.157 165.263C172.635 165.148 173.553 164.954 173.885 164.612C173.981 164.513 173.948 164.436 173.948 164.313L173.61 164.137Z" fill="#212021"/>
<path d="M215.335 147.405C214.379 148.321 213.443 149.276 212.585 150.275C210.749 152.415 208.906 154.808 206.462 156.372C204.494 157.632 202.211 158.248 199.869 158.507C197.78 158.739 195.603 158.498 193.494 158.626C193.001 158.656 192.047 158.678 191.664 158.979C191.741 159.237 191.984 159.292 192.222 159.424C196.224 160.632 201.249 160.531 205.093 158.893C207.806 157.738 209.801 155.63 211.643 153.498C212.422 152.596 213.233 151.683 213.848 150.673C214.481 149.636 214.893 148.521 215.335 147.405Z" fill="#212021"/>
<path d="M134.452 37.1199L133.46 37.0906C132.272 37.1384 131.179 37.6022 130.387 38.4363C129.519 39.3495 129.621 40.2604 129.677 41.3901C129.717 42.1921 130.064 43.0638 130.576 43.7115C131.493 44.8741 133.028 45.3728 134.495 45.546C135.178 45.5453 135.772 45.5117 136.392 45.2066C138.349 44.2429 139.013 41.69 139.57 39.8588C138.195 38.4496 136.452 37.4677 134.452 37.1199Z" fill="#212021"/>
<path d="M125.028 101.841C124.815 101.787 124.918 101.783 124.721 101.841C124.952 102.764 125.43 103.666 125.853 104.523C126.606 106.052 127.43 107.546 128.072 109.123C128.907 111.171 129.559 113.278 130.367 115.334C131.725 118.785 133.166 122.223 134.195 125.778C135.913 131.721 136.138 138.057 135.197 144.133C134.815 146.596 134.188 149.197 133.221 151.517C132.684 152.805 131.728 154.035 131.493 155.412C131.58 155.707 131.64 155.738 131.872 155.937L132.166 155.756L132.964 154.675C134.417 152.64 135.146 150.247 135.73 147.884C137.322 141.444 137.671 134.543 136.295 128.027C135.346 123.535 133.732 119.323 132.103 115.025C130.923 111.909 129.701 108.784 128.1 105.836C127.324 104.408 126.487 102.752 125.028 101.841Z" fill="#212021"/>
<path d="M131.721 124.566L131.553 124.528C131.072 124.656 130.722 125.339 130.55 125.749C129.346 128.625 128.678 131.731 127.807 134.709C126.458 139.323 124.8 143.846 123.004 148.32C121.997 150.825 121.019 153.462 119.523 155.753C118.485 157.344 117.207 158.787 115.546 159.826C113.785 160.929 111.712 161.221 109.639 161.25C109.054 161.258 108.415 161.296 107.842 161.175C107.503 161.103 107.134 161.016 106.977 160.694C106.848 160.428 106.932 160.145 106.994 159.872C107.259 158.702 107.865 157.617 108.195 156.461C107.647 157.335 106.987 158.16 106.51 159.071C106.143 159.773 105.922 160.548 105.71 161.302L105.002 160.184C104.395 159.078 105.619 157.534 106.003 156.455C106.162 156.006 106.353 155.541 106.114 155.089C105.86 155.043 105.699 155.037 105.459 155.143C104.446 155.591 103.996 158.004 103.677 158.956C103.305 158.233 103.203 156.632 103.423 155.856C103.688 154.923 104.576 154.36 105.411 153.903C106.266 153.495 107.155 153.131 108.035 152.772C108.784 152.466 109.512 152.254 110.082 151.68C110.015 151.435 109.879 151.336 109.637 151.214C108.801 150.794 106.899 151.12 106.051 151.409C104.349 151.991 102.74 153.086 101.983 154.675C101.363 155.978 101.256 157.619 101.789 158.963C102.033 159.579 102.644 160.18 102.748 160.797C102.772 160.939 102.918 161.051 103.038 161.138C103.429 161.422 103.956 161.638 104.397 161.845C106.641 162.897 109.17 163.297 111.65 162.893C115.085 162.334 117.991 160.239 119.965 157.594C121.429 155.631 122.566 153.441 123.53 151.226C124.801 148.308 125.837 145.256 126.835 142.246C128.282 137.882 129.604 133.521 130.786 129.086C131 128.282 131.219 127.479 131.438 126.676C131.624 125.99 131.85 125.275 131.721 124.566Z" fill="#212021"/>
<path d="M118.076 46.9812C117.246 46.9868 116.339 47.0315 115.538 47.2378C114.313 47.5529 112.797 48.1417 112.077 49.2015C111.664 49.8091 111.497 50.458 111.536 51.1749C111.673 53.7338 114.224 54.4871 115.889 56.0445C116.275 56.406 116.637 56.8241 116.732 57.3455C116.847 57.9715 116.542 58.7157 116.149 59.214C115.381 60.1883 114.142 60.9761 112.855 61.1523C111.32 61.3625 110.111 60.9507 108.925 60.0438C108.506 59.7226 108.142 59.3651 107.706 59.0548C107.484 59.1933 107.481 59.3975 107.405 59.6317C107.497 59.9902 107.673 60.2445 107.922 60.5262C108.864 61.5891 110.098 62.2505 111.576 62.3533C113.869 62.5127 115.566 61.5471 117.254 60.2072C117.976 61.3201 118.756 62.0962 119.872 62.8595C120.329 63.1721 120.766 63.3984 121.275 63.6254C123.114 64.3503 125.486 64.4158 127.348 63.6958C128.817 63.128 130.291 61.8322 130.905 60.443L128.211 62.1286C126.48 62.9896 124.215 63.5245 122.295 62.9257C119.863 62.1675 118.773 60.1929 117.664 58.1895C119.393 56.4549 121.929 55.7487 123.913 54.3333C124.715 53.7613 125.548 52.9257 125.655 51.9403C125.759 50.9945 125.446 50.1319 124.83 49.3849C123.744 48.0662 121.889 47.3147 120.166 47.1092L119.998 47.0905L118.076 46.9812Z" fill="#212021"/>
<path d="M130.28 8.64122C128.476 8.54132 126.695 8.59936 124.898 8.76337C122.051 9.02339 118.911 9.41143 116.603 11.1341C118.751 10.8056 120.904 10.3573 123.06 10.0991C126.191 9.72401 129.598 9.617 132.744 9.95393C134.868 10.1814 136.905 10.7586 139.026 10.9908C140.764 11.1809 142.523 10.8466 144.268 11.1283C146.214 11.4426 147.816 12.0852 149.436 13.1411C151.657 14.5885 153.476 16.6053 155.033 18.6638C158.753 23.5841 161.035 28.8975 162.16 34.829C162.614 37.2266 163.06 39.6774 161.509 41.8056C161.452 41.8846 161.399 41.9645 161.328 42.033C160.536 42.7921 158.994 43.1954 157.879 43.1968C150.29 43.2061 147.052 29.2762 146.104 23.9316L145.507 18.6931C145.412 18.2448 145.347 17.8773 144.924 17.6097L144.69 17.6888C144.604 17.8887 144.538 18.0767 144.518 18.2933C144.295 20.6435 144.603 23.0756 145.019 25.3851C145.565 28.4108 146.357 31.3382 147.409 34.2442C148.604 37.5438 149.903 40.8614 152.274 43.5956C154.2 45.8163 156.837 47.3772 159.903 47.621C160.9 47.7002 161.93 47.424 162.684 46.7961C163.704 45.9477 163.992 44.5752 164.071 43.3506C164.731 33.1301 160.911 22.4022 153.69 14.7382C151.666 12.5902 149.111 10.686 146.072 10.0565C144.928 9.81963 143.716 9.8025 142.55 9.84064C141.979 9.8593 141.416 9.93403 140.859 10.0521C140.584 10.1104 140.088 10.2971 139.816 10.2599C138.988 10.1464 138.074 9.66136 137.227 9.47646C134.971 8.98386 132.59 8.76628 130.28 8.64122Z" fill="#212021"/>
<path d="M158.62 108.41C157.978 108.782 157.238 113.625 157.139 114.559C156.974 116.102 156.656 117.682 156.412 119.22C155.788 123.14 155.101 127.075 154.025 130.912C153.419 133.075 152.787 135.248 152.005 137.36C150.007 142.754 147.669 148.006 145.469 153.326C143.845 157.25 142.409 161.263 140.649 165.133C140.407 165.663 140.126 166.303 139.693 166.718C139.081 167.306 138.366 167.413 137.566 167.614C134.583 168.363 131.29 168.285 128.22 168.291C128.414 167.611 128.653 166.956 128.966 166.315C129.301 165.627 129.859 164.762 129.936 164.009C129.96 163.772 129.899 163.55 129.724 163.375C129.574 163.226 129.552 163.265 129.349 163.253C128.011 164.436 127.632 166.63 127.201 168.243L125.771 167.676C126.16 166.595 127.413 163.515 127.064 162.558L126.831 162.47C126.593 162.494 126.364 162.519 126.165 162.653C124.76 163.599 124.889 166.276 124.598 167.712C124.137 167.379 123.732 167.06 123.35 166.646C123.227 166.019 123.263 165.243 123.429 164.624L123.474 164.467C123.766 163.411 124.625 162.553 124.866 161.538C124.927 161.279 124.962 161.072 124.797 160.859C124.626 160.878 124.513 160.93 124.373 161.02C122.841 162.007 122.49 164.014 122.175 165.601C121.924 165.337 121.737 165.131 121.659 164.777L121.632 164.644C121.485 163.981 121.512 163.376 121.726 162.725L121.767 162.603C121.958 162.024 122.241 161.534 122.643 161.062L122.753 160.934C123.962 159.522 125.92 158.652 127.734 158.159C128.46 157.962 129.682 157.739 130.245 157.27C130.413 157.131 130.392 157.072 130.396 156.877C130.309 156.805 130.237 156.745 130.128 156.703C129.803 156.578 129.329 156.616 128.985 156.626C127.217 156.68 125.3 157.185 123.714 157.922C121.85 158.789 120.782 160.367 120.133 162.171L119.95 163.656C119.87 164.307 119.941 164.897 120.085 165.537C120.178 165.947 120.479 166.591 120.391 166.996L120.356 167.13C120.555 167.424 120.801 167.629 121.093 167.839C121.764 168.321 122.545 168.644 123.311 168.966C124.56 169.492 125.874 169.946 127.228 170.16C128.694 170.391 130.23 170.341 131.712 170.337C133.073 170.333 134.457 170.331 135.806 170.144C137.154 169.957 138.65 169.598 139.74 168.791C141.398 167.563 142.212 165.054 142.992 163.269C143.815 161.384 144.629 159.423 145.944 157.786C148.253 154.911 151.945 154.406 155.515 154.207C157.679 154.086 159.833 154.036 162.001 154.033C163.693 154.032 165.462 154.123 167.142 153.898L166.347 153.624C163.489 152.733 160.684 152.846 157.723 152.792C155.182 152.746 152.328 152.58 149.87 153.276C148.896 153.552 147.988 153.944 147.142 154.48C146.843 154.67 146.571 154.952 146.253 155.101L149.405 147.58C149.986 147.947 150.469 148.535 150.991 148.977C152.386 150.157 154.067 151.072 155.788 151.755C153.998 150.388 152.436 149.027 150.873 147.429C150.613 147.163 150.196 146.854 150.009 146.55C149.999 146.535 152.677 140.052 153.756 136.864C154.677 134.139 155.445 131.326 156.085 128.53C156.777 125.508 159.792 110.545 158.62 108.41Z" fill="#212021"/>
<path d="M110.04 8.63306L108.328 8.64331C107.07 8.7347 105.819 9.04907 104.671 9.54465C102.721 10.3874 101.082 11.6292 99.4297 12.8954C96.3027 15.2918 93.3504 18.0059 90.7315 20.8935C89.6933 22.0384 88.7976 23.2576 87.9194 24.5136C86.268 26.8756 84.413 29.7529 84.7717 32.7092C84.8775 33.5825 85.5415 34.4551 86.2858 34.9418C87.3164 35.6158 88.7009 35.6666 89.9098 35.5667C94.1937 35.2121 97.7964 33.1161 100.833 30.3426C101.303 29.9137 101.78 29.4809 102.214 29.0196C102.866 28.3262 103.478 27.596 104.114 26.8886C104.301 26.6803 104.537 26.3481 104.833 26.2994C104.848 26.7297 104.613 27.0777 104.441 27.4636C104.011 28.429 103.491 29.362 103.099 30.3407C102.033 33.0033 101.219 35.7787 100.572 38.5572C99.5688 42.866 98.8271 47.3611 100.182 51.6869C100.712 53.3774 101.653 54.973 102.453 56.5584C103.097 57.8349 103.656 59.1474 104.384 60.3864C106.017 63.1655 108.724 65.5746 111.689 67.0812L111.783 67.1278C111.171 68.4013 110.487 69.8571 110.402 71.2713C110.233 74.1004 111.518 76.0305 113.458 78.0824C113.347 78.5318 113.092 78.9541 112.933 79.3928C112.659 80.1505 112.482 80.9688 112.309 81.7524C112.056 82.8987 111.97 84.0368 111.792 85.1919C110.978 90.4486 110.378 95.8533 110.494 101.175C110.626 107.272 111.812 113.247 112.54 119.284C112.982 122.96 113.041 126.693 113.091 130.388C113.159 135.548 113.269 140.891 111.904 145.93C111.404 147.774 110.493 149.448 109.648 151.163L110.685 151.307C112.17 149.076 113.22 146.656 113.803 144.079C114.672 140.242 114.561 136.227 114.474 132.326C114.368 127.555 114.187 122.833 113.628 118.088C113.043 113.118 112.082 108.119 111.868 103.12C111.637 97.7198 112.017 92.4141 112.775 87.0611C113.03 85.2583 113.224 83.4515 113.623 81.669C113.832 80.7343 114.167 79.8349 114.416 78.9108C114.841 79.1758 115.252 79.4506 115.657 79.7422C115.754 79.8125 116.011 79.9543 116.075 80.0452C116.488 80.6323 116.649 81.3956 117.105 82.0011C117.838 82.9732 119.004 83.7692 120.27 83.9468C121.472 84.1158 122.67 83.7699 123.634 83.0937C124.857 82.237 125.394 81.1651 125.608 79.7629C125.88 79.603 126.303 79.5431 126.616 79.462C127.406 79.2567 128.204 79.0648 128.987 78.8339C131.347 78.1363 133.684 77.2532 135.918 76.2547C139.744 74.5449 143.915 72.2204 145.925 68.5616L145.961 68.4945C146.452 69.3278 147.067 70.109 147.622 70.9052C148.463 72.112 149.275 73.3506 150.064 74.5891C152.629 78.615 154.931 82.7961 158.126 86.4341C160.639 89.2961 163.749 91.6555 166.489 94.3088C173.92 101.503 180.469 109.947 184.342 119.348C185.888 123.101 186.872 126.988 187.712 130.921C189.676 140.129 190.75 152.286 182.923 159.472C182.039 160.284 181.084 161.045 180.09 161.735C179.279 162.299 178.38 162.807 177.513 163.292C176.923 163.623 175.613 164.218 175.333 164.822C175.451 164.971 175.389 164.947 175.55 164.989C176.637 165.269 178.422 164.283 179.332 163.767C181.299 162.652 183.224 161.293 184.749 159.668C187.176 157.08 188.659 153.769 189.514 150.438C190.156 147.934 190.202 145.436 190.215 142.88C190.237 138.846 190.009 134.808 189.229 130.829C188.584 127.172 187.446 123.549 186.066 120.083C183.487 113.603 179.969 107.54 175.614 101.971C173.91 99.7918 172.092 97.6196 170.126 95.6436C166.323 91.8219 161.853 88.4761 158.338 84.4258C156.712 82.5523 155.421 80.3034 154.084 78.2412C151.987 75.0066 149.915 71.7666 147.683 68.6125C146.547 67.0077 145.959 65.6114 145.697 63.6953C145.65 63.3539 145.548 62.7628 145.62 62.4337C145.632 62.3805 145.829 62.1668 145.865 62.1202C146.128 61.7806 146.377 61.4317 146.633 61.0872C147.769 59.5562 148.907 58.1526 149.767 56.4484C151.415 53.1823 152.01 49.7079 152.747 46.1976C152.406 46.6344 152.148 47.2017 151.9 47.6911C150.954 49.5543 150.416 51.5613 149.647 53.4876C148.55 56.2386 146.662 58.9064 144.559 61.0653C141.603 64.099 138.251 66.6992 134.455 68.749C130.725 70.7637 125.928 71.7953 123.104 74.9991L123.02 75.0949C122.673 74.8733 122.259 74.6064 121.858 74.4805C120.766 74.1379 118.996 74.4013 117.979 74.8411C117.709 74.9576 117.094 75.3678 116.841 75.3431C115.609 74.0708 113.936 72.8544 113.091 71.3112C112.514 70.2573 112.389 68.9812 112.78 67.8428C113.084 67.5918 114.124 68.0333 114.539 68.1349C118.123 69.0138 122.05 68.9434 125.661 68.2552C130.129 67.4037 134.013 65.4527 136.562 61.7862C137.972 59.7582 139.066 56.9045 138.464 54.4637C137.884 52.1162 135.68 50.8127 133.626 49.6781C135.273 51.1599 137.151 53.2007 137.391 55.4152C137.626 57.5797 136.595 59.696 135.159 61.3336C132.35 64.5351 127.467 66.6579 123.112 67.0075C119.085 67.3308 114.622 67.1119 111.049 65.169C110.236 64.7271 109.465 64.1069 108.751 63.534C106.574 61.7874 104.998 58.8537 104.797 56.1615C104.556 52.952 106.026 48.9234 108.306 46.5281L109.129 45.7063C112.79 42.4066 119.699 42.1521 124.333 43.4776C125.78 43.8913 127.168 44.4628 128.628 44.8362C128.942 44.9164 129.362 45.0669 129.686 45.0544C129.895 45.0462 129.942 44.9791 130.082 44.8518C130.044 44.5679 129.959 44.3631 129.759 44.1416C128.986 43.2865 127.426 42.9532 126.313 42.6807C123.397 41.9671 120.545 41.6527 117.542 41.4935C117.723 41.0047 117.969 40.4642 118.068 39.9566C118.256 38.9952 118.094 37.737 117.452 36.9516C116.911 36.2896 116.036 35.9612 115.181 35.847C113.939 35.6813 112.766 35.8937 111.769 36.6388C111.11 37.131 110.784 37.8084 110.712 38.5889C110.586 39.9419 111.514 41.0446 112.36 42.0272L109.898 43.2762C106.918 45.0217 105.166 48.0862 104.278 51.1963C103.849 52.6999 103.618 54.2302 103.251 55.7447C102.311 53.6802 101.465 51.4872 101.163 49.2436C101.022 48.2029 101.021 47.1275 101.024 46.0794C101.049 38.8942 103.958 32.2176 106.617 25.5997C107.945 22.2964 109.209 19.0121 110.284 15.6274C108.848 17.6626 107.72 19.8443 106.343 21.9079C105.71 22.8555 104.974 23.7282 104.248 24.6127C101.565 27.8818 98.721 30.556 94.5635 32.0862C93.533 32.4656 92.4478 32.8117 91.3477 32.9436C90.3258 33.0665 89.1115 33.4112 88.2418 32.7793C88.081 32.5129 88.0144 32.2983 88.0312 31.9897C88.1977 28.9311 92.8839 21.847 94.8957 19.3109C96.2266 17.633 97.6534 16.0671 99.2907 14.6465C102.544 11.8241 107.211 9.25098 111.799 10.1059C113.093 10.347 114.279 11.0839 115.616 11.1352L115.749 10.9869C115.741 10.7238 115.727 10.538 115.555 10.3209C115.307 10.0087 114.898 9.81355 114.533 9.64515C113.128 8.99649 111.577 8.78996 110.04 8.63306ZM143.98 64.099C144.209 65.4578 144.502 66.7357 144.93 68.0542C144.938 68.0778 144.961 68.1013 144.953 68.1249C144.911 68.2456 144.722 68.4584 144.643 68.5738C143.025 70.9483 140.212 72.602 137.651 73.9463C134.076 75.8228 130.269 77.3865 126.26 78.213C126.099 78.2463 125.958 78.2607 125.793 78.2635L125.47 77.6909C125.159 77.0248 124.87 76.4796 124.38 75.9172L124.123 75.6128C125.644 73.5331 128.932 72.4682 131.314 71.4536C133.007 70.733 134.708 70.0046 136.339 69.1658C138.99 67.8021 141.767 66.0573 143.98 64.099ZM120.327 75.3627C121.819 75.6562 123.162 76.0559 124.034 77.3257C124.521 78.0351 124.616 79.0038 124.447 79.8296C124.258 80.7537 123.324 81.8496 122.495 82.3223C121.994 82.6076 121.367 82.7353 120.786 82.6961C119.422 82.4526 118.457 81.8857 117.686 80.7765C117.083 79.9097 116.343 78.5202 116.634 77.4769C116.826 76.7915 117.596 76.2248 118.229 75.9135C118.856 75.6049 119.62 75.4117 120.327 75.3627ZM111.77 71.6599C112.728 72.5239 113.396 73.4599 114.212 74.4323C114.799 75.1313 115.44 75.7997 115.985 76.5278L115.277 77.8543L115.19 78.0764C114.904 78.0764 114.657 77.8815 114.465 77.696C112.968 76.251 111.518 73.7319 111.581 71.6764L111.77 71.6599Z" fill="#212021"/>
<path d="M61.0513 78.8323C60.5347 78.8063 60.0256 78.8576 59.5249 78.9782C59.1566 79.0669 58.5807 79.2994 58.3896 79.624C58.3287 79.7275 58.3454 79.7302 58.3814 79.8443C58.4587 79.9224 58.5274 79.9973 58.637 80.0341C58.9605 80.1431 59.5852 79.8069 59.8902 79.6828C60.4359 79.515 60.9182 79.4275 61.4831 79.5622C61.7728 79.6312 62.2245 79.8461 62.5216 79.7845C62.6858 79.7505 62.6927 79.715 62.7796 79.59C62.7829 79.4434 62.8081 79.3656 62.6931 79.2463C62.4032 78.9454 61.4593 78.8745 61.0513 78.8323Z" fill="#212021"/>
<path d="M71.6404 79.0662C70.9382 79.0074 70.3516 79.1431 69.7658 79.513L69.8684 79.6828C69.8975 79.728 70.0667 79.9714 70.1105 79.9846C70.1693 80.0025 70.673 79.8362 70.7729 79.8152C71.1658 79.7322 71.7346 79.7532 72.1229 79.851C72.431 79.9286 72.7128 79.9953 73.0007 80.1296L73.0675 80.1611C73.4688 80.3824 73.8396 80.7331 74.3045 80.8208C74.441 80.734 74.4724 80.7164 74.5488 80.5722C74.5474 80.4271 74.5245 80.3427 74.4329 80.2237C73.7799 79.3745 72.6722 79.191 71.6404 79.0662Z" fill="#212021"/>
<path d="M113.809 140.984C113.627 140.943 113.405 140.952 113.218 140.971C112.574 141.033 111.942 141.254 111.301 141.352C109.794 141.581 103.997 142.095 103.191 143.141C103.102 143.256 103.092 143.323 103.118 143.458L103.259 143.525C103.942 143.473 104.561 143.281 105.22 143.115C105.923 142.938 106.633 142.79 107.349 142.663C109.001 142.371 110.686 142.297 112.328 141.944C112.779 141.847 113.405 141.721 113.765 141.436C113.911 141.32 113.973 141.252 113.989 141.078L113.809 140.984Z" fill="#212021"/>
<path d="M91.8774 150.824C91.0139 150.764 90.1893 150.924 89.334 150.995C87.9261 151.113 86.5055 151.206 85.0935 151.269C83.5522 151.337 81.9852 151.309 80.4417 151.283C79.7369 151.272 79.0408 151.233 78.3352 151.258C78.5702 151.402 78.7905 151.52 79.0506 151.618C80.066 151.903 81.0751 152.019 82.1335 152.054C82.9742 152.082 83.8233 152.035 84.6642 152.014C86.8162 151.962 89.0141 151.927 91.1096 151.419C91.3619 151.358 91.8473 151.255 92.0228 151.075C92.0732 151.023 92.0556 150.981 92.0556 150.917L91.8774 150.824Z" fill="#212021"/>
<path d="M113.924 141.983C113.419 142.467 112.924 142.971 112.471 143.499C111.501 144.63 110.527 145.894 109.235 146.721C108.196 147.386 106.989 147.712 105.752 147.849C104.648 147.971 103.498 147.844 102.383 147.912C102.123 147.927 101.619 147.939 101.416 148.098C101.457 148.234 101.585 148.263 101.711 148.333C103.826 148.972 106.481 148.918 108.512 148.053C109.945 147.442 111 146.329 111.973 145.202C112.385 144.726 112.813 144.243 113.138 143.709C113.473 143.161 113.691 142.572 113.924 141.983Z" fill="#212021"/>
<path d="M71.1861 83.7096L70.6621 83.6941C70.0346 83.7193 69.457 83.9644 69.0381 84.4052C68.5794 84.8877 68.6338 85.369 68.6632 85.9659C68.6841 86.3896 68.8679 86.8502 69.138 87.1925C69.623 87.8068 70.4336 88.0703 71.2089 88.1618C71.5698 88.1614 71.8839 88.1437 72.2113 87.9825C73.2453 87.4733 73.596 86.1244 73.8906 85.1568C73.1638 84.4122 72.2431 83.8934 71.1861 83.7096Z" fill="#212021"/>
<path d="M66.2067 117.907C66.0941 117.879 66.1482 117.877 66.0444 117.907C66.1664 118.395 66.419 118.872 66.6422 119.324C67.0404 120.132 67.4757 120.922 67.815 121.755C68.2559 122.837 68.6007 123.95 69.0278 125.037C69.7452 126.86 70.5066 128.677 71.0499 130.555C71.9581 133.695 72.077 137.043 71.5796 140.254C71.3779 141.555 71.0463 142.929 70.5355 144.155C70.252 144.836 69.7467 145.486 69.6222 146.214C69.6685 146.369 69.7003 146.386 69.8229 146.491L69.978 146.395L70.3997 145.824C71.1674 144.749 71.5525 143.484 71.8612 142.236C72.7023 138.833 72.8866 135.187 72.1598 131.744C71.6585 129.37 70.8055 127.144 69.945 124.873C69.3212 123.227 68.6757 121.576 67.8295 120.018C67.4199 119.264 66.9773 118.389 66.2067 117.907Z" fill="#212021"/>
<path d="M69.7436 129.915L69.6551 129.895C69.4008 129.962 69.2158 130.323 69.125 130.54C68.4886 132.059 68.1357 133.701 67.6756 135.274C66.9629 137.712 66.087 140.102 65.1376 142.466C64.6059 143.79 64.0892 145.183 63.2987 146.394C62.7498 147.234 62.0746 147.997 61.1973 148.546C60.2664 149.128 59.1715 149.283 58.0761 149.298C57.7666 149.303 57.4293 149.323 57.1262 149.258C56.9473 149.22 56.7522 149.174 56.6696 149.004C56.6011 148.864 56.6455 148.714 56.6783 148.57C56.8186 147.952 57.1385 147.379 57.3131 146.768C57.0232 147.229 56.6745 147.665 56.4228 148.147C56.2286 148.518 56.1118 148.927 55.9998 149.326L55.6259 148.735C55.305 148.15 55.9516 147.334 56.1546 146.764C56.2389 146.527 56.3398 146.281 56.2134 146.043C56.0792 146.018 55.9943 146.015 55.8674 146.071C55.3318 146.308 55.0942 147.583 54.9257 148.086C54.7292 147.704 54.6754 146.858 54.7917 146.448C54.9317 145.955 55.4008 145.658 55.8417 145.416C56.2939 145.2 56.7634 145.008 57.2284 144.818C57.6244 144.657 58.0089 144.545 58.3099 144.242C58.2744 144.112 58.203 144.06 58.0746 143.995C57.6334 143.773 56.628 143.945 56.1802 144.098C55.2805 144.406 54.4308 144.985 54.0309 145.824C53.7028 146.512 53.6467 147.379 53.9283 148.09C54.0573 148.415 54.3797 148.733 54.4346 149.058C54.4473 149.134 54.5248 149.193 54.5882 149.239C54.7944 149.389 55.073 149.503 55.306 149.613C56.4917 150.168 57.8279 150.38 59.1387 150.166C60.9537 149.871 62.4891 148.764 63.5318 147.366C64.3056 146.329 64.9061 145.172 65.416 144.002C66.0875 142.46 66.6349 140.847 67.1621 139.257C67.9264 136.951 68.6249 134.647 69.2494 132.303C69.3628 131.878 69.4786 131.454 69.594 131.03C69.6924 130.667 69.8117 130.289 69.7436 129.915Z" fill="#212021"/>
<path d="M62.5335 88.9204C62.0949 88.9234 61.6159 88.947 61.1924 89.056C60.5456 89.2225 59.7442 89.5336 59.3637 90.0936C59.1456 90.4146 59.0576 90.7575 59.0779 91.1363C59.1503 92.4884 60.4986 92.8864 61.3782 93.7093C61.5823 93.9003 61.7731 94.1212 61.8236 94.3967C61.8842 94.7275 61.7231 95.1208 61.5155 95.384C61.1096 95.8988 60.4551 96.3151 59.7751 96.4082C58.964 96.5193 58.3249 96.3017 57.6985 95.8225C57.4769 95.6528 57.285 95.4639 57.0545 95.2999C56.9369 95.3731 56.9356 95.481 56.8953 95.6047C56.9441 95.7941 57.0368 95.9285 57.1687 96.0774C57.6661 96.639 58.3181 96.9885 59.0994 97.0428C60.3108 97.127 61.2076 96.6168 62.0995 95.9088C62.4807 96.4969 62.893 96.9069 63.4825 97.3103C63.7241 97.4754 63.9551 97.595 64.224 97.715C65.1957 98.098 66.4489 98.1326 67.433 97.7521C68.2091 97.4521 68.9877 96.7674 69.3125 96.0334L67.8889 96.9241C66.9742 97.379 65.7773 97.6616 64.7629 97.3452C63.4781 96.9446 62.9018 95.9013 62.316 94.8427C63.2296 93.9262 64.5696 93.553 65.618 92.8051C66.0416 92.5029 66.4815 92.0614 66.5384 91.5407C66.593 91.041 66.4278 90.5852 66.1026 90.1905C65.5287 89.4937 64.5484 89.0966 63.6381 88.988L63.5492 88.9782L62.5335 88.9204Z" fill="#212021"/>
<path d="M68.9816 68.662C68.0285 68.6092 67.0872 68.6399 66.138 68.7265C64.6335 68.8639 62.9743 69.0689 61.7549 69.9792C62.89 69.8056 64.0276 69.5687 65.1663 69.4323C66.8212 69.2341 68.6213 69.1776 70.2836 69.3556C71.406 69.4758 72.4821 69.7808 73.603 69.9034C74.5212 70.0039 75.4505 69.8273 76.3726 69.9761C77.401 70.1422 78.2473 70.4817 79.1033 71.0396C80.2766 71.8044 81.2382 72.87 82.0605 73.9578C84.0261 76.5576 85.2319 79.3651 85.8262 82.4992C86.0664 83.766 86.3018 85.061 85.4824 86.1855C85.4521 86.2272 85.4245 86.2695 85.3866 86.3057C84.9684 86.7068 84.1537 86.9198 83.5644 86.9206C79.5544 86.9255 77.8433 79.5652 77.3427 76.7412L77.0273 73.9732C76.9772 73.7363 76.9425 73.5422 76.719 73.4008L76.5956 73.4426C76.5499 73.5482 76.5152 73.6476 76.5044 73.762C76.387 75.0038 76.5494 76.2889 76.7693 77.5092C77.0577 79.1079 77.4766 80.6547 78.0323 82.1902C78.6635 83.9336 79.3498 85.6866 80.6028 87.1313C81.6203 88.3047 83.014 89.1294 84.6339 89.2583C85.1609 89.3001 85.7047 89.1542 86.1035 88.8224C86.6423 88.3741 86.7944 87.6489 86.8363 87.0019C87.1849 81.6015 85.1665 75.9331 81.3509 71.8835C80.2815 70.7486 78.9316 69.7424 77.3256 69.4098C76.7214 69.2846 76.0806 69.2756 75.4648 69.2957C75.1631 69.3056 74.8659 69.3451 74.5714 69.4075C74.4259 69.4383 74.1638 69.5369 74.0203 69.5172C73.5826 69.4573 73.0999 69.201 72.6524 69.1033C71.4602 68.843 70.2022 68.7281 68.9816 68.662Z" fill="#212021"/>
<path d="M83.9563 121.378C83.617 121.575 83.2262 124.134 83.1735 124.627C83.0867 125.442 82.9188 126.277 82.7896 127.09C82.4601 129.161 82.0969 131.24 81.5286 133.268C81.2082 134.411 80.8741 135.559 80.4609 136.675C79.4053 139.525 78.17 142.3 77.0074 145.111C76.1497 147.184 75.3909 149.305 74.4606 151.35C74.3329 151.63 74.1844 151.968 73.9558 152.187C73.6324 152.498 73.2543 152.554 72.8316 152.661C71.2558 153.057 69.5154 153.015 67.8935 153.018C67.9959 152.659 68.1224 152.313 68.2873 151.974C68.4646 151.611 68.7597 151.154 68.8 150.756C68.8126 150.631 68.7805 150.513 68.6881 150.421C68.609 150.342 68.5972 150.363 68.4901 150.357C67.7831 150.981 67.5826 152.141 67.3551 152.993L66.5994 152.693C66.8047 152.122 67.4669 150.495 67.2829 149.989L67.1596 149.942C67.034 149.955 66.913 149.969 66.8075 150.04C66.0651 150.539 66.1336 151.954 65.9797 152.713C65.7362 152.536 65.5219 152.368 65.3202 152.149C65.255 151.818 65.2741 151.408 65.3619 151.081L65.3855 150.998C65.54 150.44 65.9937 149.987 66.1213 149.45C66.1537 149.314 66.1717 149.204 66.0849 149.092C65.9946 149.102 65.9345 149.129 65.8605 149.177C65.0511 149.698 64.8656 150.759 64.6996 151.597C64.5668 151.457 64.4679 151.349 64.4267 151.162L64.4126 151.092C64.3345 150.741 64.3491 150.421 64.4618 150.077L64.4838 150.013C64.5848 149.707 64.734 149.448 64.9465 149.199L65.0049 149.131C65.6438 148.385 66.6782 147.925 67.6367 147.665C68.0203 147.561 68.6657 147.443 68.9636 147.195C69.0521 147.121 69.0411 147.09 69.0432 146.988C68.9972 146.949 68.959 146.917 68.9015 146.895C68.73 146.83 68.4793 146.849 68.2978 146.855C67.3636 146.883 66.3504 147.15 65.5127 147.539C64.5275 147.998 63.9632 148.831 63.6206 149.785L63.5239 150.569C63.4814 150.913 63.5189 151.225 63.5953 151.563C63.6444 151.78 63.8031 152.12 63.7566 152.334L63.7383 152.405C63.8433 152.56 63.9735 152.669 64.1278 152.78C64.4822 153.034 64.8947 153.205 65.2997 153.375C65.9596 153.653 66.6538 153.893 67.3691 154.006C68.1438 154.128 68.9552 154.102 69.7386 154.1C70.4576 154.098 71.189 154.096 71.9019 153.997C72.6141 153.899 73.4045 153.709 73.9803 153.283C74.8567 152.634 75.2865 151.308 75.6985 150.365C76.1333 149.369 76.5636 148.332 77.2583 147.468C78.4787 145.948 80.4291 145.682 82.3154 145.577C83.4588 145.513 84.5972 145.486 85.7425 145.485C86.6369 145.484 87.5714 145.532 88.459 145.414L88.0393 145.268C86.529 144.798 85.047 144.857 83.4825 144.829C82.1398 144.805 80.6316 144.717 79.3327 145.085C78.8184 145.231 78.3385 145.438 77.8916 145.721C77.7337 145.821 77.5898 145.971 77.4216 146.049L79.0873 142.075C79.3942 142.269 79.6494 142.58 79.9252 142.813C80.6624 143.437 81.5504 143.92 82.4597 144.281C81.5143 143.559 80.6889 142.84 79.863 141.995C79.7254 141.855 79.505 141.692 79.4065 141.531C79.4014 141.523 80.8164 138.098 81.3861 136.413C81.873 134.973 82.2788 133.486 82.617 132.009C82.9826 130.412 84.5756 122.506 83.9563 121.378Z" fill="#212021"/>
<path d="M58.2871 68.6577L57.3828 68.6631C56.7179 68.7114 56.0566 68.8775 55.4506 69.1394C54.4201 69.5847 53.5538 70.2408 52.6809 70.9098C51.0287 72.1761 49.4687 73.6102 48.0849 75.136C47.5363 75.7409 47.0631 76.3851 46.5991 77.0488C45.7265 78.2968 44.7463 79.8171 44.9358 81.3792C44.9918 81.8406 45.3426 82.3017 45.7359 82.5588C46.2804 82.915 47.012 82.9418 47.6507 82.889C49.9143 82.7017 51.8179 81.5942 53.4224 80.1287C53.6705 79.9021 53.9227 79.6734 54.152 79.4297C54.4967 79.0633 54.82 78.6774 55.1558 78.3037C55.2546 78.1936 55.3795 78.0181 55.5362 77.9924C55.544 78.2197 55.4196 78.4036 55.3287 78.6075C55.1016 79.1176 54.827 79.6106 54.6199 80.1277C54.0565 81.5346 53.6264 83.0011 53.2845 84.4692C52.7544 86.7459 52.3625 89.121 53.0786 91.4067C53.3585 92.2999 53.8556 93.143 54.2785 93.9807C54.6189 94.6552 54.914 95.3487 55.2986 96.0034C56.1615 97.4718 57.5919 98.7447 59.1585 99.5408L59.2083 99.5654C58.8846 100.238 58.5234 101.008 58.4786 101.755C58.389 103.25 59.068 104.269 60.0932 105.354C60.0348 105.591 59.8996 105.814 59.8159 106.046C59.6713 106.446 59.5777 106.879 59.4862 107.293C59.3523 107.898 59.3072 108.5 59.2128 109.11C58.783 111.888 58.4661 114.744 58.527 117.555C58.5968 120.777 59.2238 123.934 59.6079 127.124C59.8419 129.067 59.8731 131.039 59.8991 132.991C59.9355 135.718 59.9935 138.541 59.2719 141.203C59.0078 142.177 58.5263 143.062 58.0802 143.968L58.6283 144.044C59.4128 142.865 59.9673 141.587 60.2757 140.225C60.7349 138.198 60.6762 136.076 60.6302 134.015C60.5741 131.494 60.4785 128.999 60.1831 126.492C59.8738 123.866 59.3661 121.224 59.2532 118.583C59.1311 115.73 59.332 112.926 59.7323 110.098C59.8671 109.145 59.9698 108.191 60.1803 107.249C60.2906 106.755 60.4681 106.28 60.5994 105.791C60.8239 105.931 61.041 106.077 61.2549 106.231C61.3064 106.268 61.442 106.343 61.4758 106.391C61.6944 106.701 61.7793 107.104 62.0203 107.424C62.4076 107.938 63.0236 108.358 63.6926 108.452C64.3279 108.542 64.9607 108.359 65.4703 108.002C66.1163 107.549 66.4003 106.982 66.5131 106.242C66.6566 106.157 66.8804 106.125 67.0454 106.083C67.463 105.974 67.885 105.873 68.2984 105.751C69.5453 105.382 70.7802 104.916 71.9606 104.388C73.9823 103.484 76.1861 102.256 77.2481 100.323L77.2671 100.288C77.5269 100.728 77.8515 101.141 78.1448 101.561C78.5895 102.199 79.0185 102.853 79.4353 103.508C80.7903 105.635 82.007 107.844 83.6951 109.767C85.0231 111.279 86.666 112.525 88.114 113.927C92.0403 117.729 95.5006 122.19 97.5471 127.158C98.3641 129.141 98.8841 131.194 99.3276 133.273C100.366 138.138 100.933 144.562 96.7974 148.359C96.3303 148.788 95.8258 149.19 95.3007 149.555C94.8723 149.852 94.397 150.121 93.9388 150.377C93.6269 150.552 92.9348 150.867 92.7868 151.185C92.8492 151.264 92.8165 151.252 92.9015 151.274C93.4762 151.422 94.4191 150.901 94.9002 150.628C95.9395 150.039 96.9564 149.321 97.762 148.462C99.0449 147.095 99.8285 145.345 100.28 143.585C100.619 142.262 100.643 140.942 100.651 139.592C100.662 137.46 100.542 135.327 100.129 133.224C99.7886 131.292 99.1875 129.378 98.4583 127.546C97.0954 124.122 95.2367 120.919 92.9353 117.976C92.0349 116.825 91.0745 115.677 90.0355 114.633C88.0264 112.613 85.6642 110.846 83.8069 108.705C82.9477 107.715 82.266 106.527 81.5594 105.438C80.4513 103.728 79.3567 102.017 78.177 100.35C77.5769 99.502 77.2665 98.7642 77.1278 97.7517C77.1031 97.5713 77.0493 97.259 77.0873 97.0851C77.0934 97.057 77.1977 96.9441 77.2167 96.9195C77.3554 96.74 77.4872 96.5557 77.6223 96.3737C78.2227 95.5647 78.8238 94.8231 79.2783 93.9226C80.1492 92.1968 80.4633 90.361 80.853 88.5062C80.6727 88.737 80.5366 89.0368 80.4052 89.2954C79.9057 90.2799 79.6211 91.3403 79.215 92.3582C78.6352 93.8117 77.6376 95.2213 76.5263 96.3621C74.9646 97.965 73.1936 99.3389 71.1879 100.422C69.2169 101.487 66.6823 102.032 65.1898 103.725L65.1458 103.775C64.9625 103.658 64.7435 103.517 64.5316 103.45C63.9547 103.269 63.0196 103.409 62.482 103.641C62.3395 103.703 62.0145 103.919 61.881 103.906C61.2297 103.234 60.346 102.591 59.8994 101.776C59.5944 101.219 59.5284 100.545 59.735 99.9432C59.8955 99.8106 60.4451 100.044 60.6645 100.098C62.5582 100.562 64.6329 100.525 66.5411 100.161C68.9019 99.7112 70.9539 98.6803 72.3009 96.743C73.0459 95.6715 73.6242 94.1636 73.3058 92.8739C72.9997 91.6335 71.8349 90.9448 70.7495 90.3453C71.6201 91.1283 72.6125 92.2066 72.7392 93.3766C72.8631 94.5204 72.3186 95.6386 71.5596 96.5038C70.0756 98.1955 67.4956 99.3171 65.1941 99.5019C63.0662 99.6727 60.7083 99.557 58.8201 98.5304C58.3907 98.2969 57.9835 97.9692 57.6063 97.6665C56.4558 96.7436 55.6234 95.1935 55.5168 93.771C55.3898 92.0752 56.166 89.9465 57.371 88.6808L57.8056 88.2466C59.7404 86.5031 63.3909 86.3687 65.8393 87.069C66.6038 87.2876 67.3374 87.5896 68.1089 87.7869C68.2745 87.8293 68.4964 87.9088 68.668 87.9022C68.7781 87.8978 68.8033 87.8624 68.877 87.7951C68.857 87.6451 68.8122 87.5369 68.7065 87.4199C68.2981 86.9681 67.4739 86.7919 66.8857 86.648C65.3451 86.2709 63.8381 86.1048 62.2509 86.0206C62.3468 85.7624 62.4769 85.4768 62.5292 85.2086C62.6283 84.7006 62.5429 84.0358 62.2035 83.6208C61.9175 83.271 61.4553 83.0975 61.0035 83.0372C60.3472 82.9496 59.7276 83.0618 59.2006 83.4555C58.8526 83.7156 58.6806 84.0735 58.6421 84.4859C58.5755 85.2008 59.0659 85.7834 59.513 86.3027L58.2122 86.9626C56.6374 87.8849 55.7118 89.5041 55.2429 91.1475C55.0162 91.9419 54.8938 92.7505 54.6999 93.5508C54.2031 92.4599 53.7564 91.3012 53.5965 90.1157C53.5224 89.5658 53.5216 88.9976 53.5234 88.4438C53.5366 84.6472 55.0737 81.1194 56.4787 77.6226C57.1801 75.8772 57.8484 74.1419 58.4163 72.3534C57.6571 73.4288 57.0615 74.5816 56.3336 75.6719C55.9994 76.1727 55.6107 76.6337 55.2269 77.1011C53.809 78.8284 52.3064 80.2415 50.1097 81.05C49.5652 81.2505 48.9917 81.4333 48.4105 81.5031C47.8706 81.568 47.2289 81.7501 46.7694 81.4162C46.6844 81.2755 46.6492 81.162 46.6581 80.999C46.7461 79.3829 49.2222 75.6398 50.2852 74.2997C50.9884 73.4132 51.7423 72.5858 52.6075 71.8351C54.3262 70.3438 56.7925 68.9842 59.2168 69.436C59.9006 69.5634 60.527 69.9527 61.2335 69.9798L61.3037 69.9014C61.2998 69.7624 61.2921 69.6642 61.2011 69.5496C61.0704 69.3846 60.8542 69.2815 60.6614 69.1925C59.9191 68.8497 59.0993 68.7406 58.2871 68.6577ZM76.2207 97.965C76.3414 98.683 76.4966 99.3583 76.7226 100.055C76.7267 100.067 76.7391 100.08 76.7348 100.092C76.7127 100.156 76.6126 100.268 76.571 100.329C75.7162 101.584 74.2295 102.458 72.8762 103.168C70.9877 104.16 68.9761 104.986 66.8578 105.423C66.7723 105.44 66.6979 105.448 66.6111 105.449L66.4404 105.147C66.2757 104.795 66.1231 104.507 65.8641 104.21L65.7283 104.049C66.5322 102.95 68.2694 102.387 69.5281 101.851C70.4224 101.47 71.3215 101.085 72.1832 100.642C73.584 99.9217 75.0514 98.9998 76.2207 97.965ZM63.7227 103.917C64.5111 104.072 65.2209 104.283 65.6813 104.954C65.9385 105.329 65.9891 105.84 65.8998 106.277C65.7998 106.765 65.3063 107.344 64.8683 107.594C64.6036 107.745 64.2721 107.812 63.9651 107.791C63.2443 107.663 62.7345 107.363 62.3271 106.777C62.0087 106.319 61.6176 105.585 61.7716 105.034C61.8728 104.672 62.2798 104.372 62.6143 104.208C62.9456 104.045 63.349 103.942 63.7227 103.917ZM59.2014 101.96C59.7074 102.417 60.0605 102.911 60.4917 103.425C60.8018 103.794 61.1403 104.148 61.4284 104.532L61.0544 105.233L61.0084 105.35C60.8572 105.35 60.727 105.248 60.6255 105.149C59.8343 104.386 59.0684 103.055 59.1017 101.969L59.2014 101.96Z" fill="#212021"/>
<path d="M23.4448 92.0099C23.0691 91.991 22.6989 92.0284 22.3347 92.1161C22.0668 92.1805 21.648 92.3496 21.509 92.5857C21.4647 92.661 21.4769 92.6629 21.503 92.746C21.5593 92.8027 21.6092 92.8572 21.689 92.884C21.9242 92.9632 22.3785 92.7187 22.6004 92.6285C22.9973 92.5065 23.348 92.4428 23.7589 92.5408C23.9695 92.5909 24.298 92.7472 24.5141 92.7024C24.6335 92.6777 24.6385 92.6519 24.7017 92.561C24.7041 92.4543 24.7225 92.3978 24.6388 92.311C24.428 92.0922 23.7416 92.0406 23.4448 92.0099Z" fill="#212021"/>
<path d="M31.1455 92.1797C30.6348 92.137 30.2082 92.2357 29.7822 92.5047L29.8568 92.6282C29.878 92.6611 30.001 92.8381 30.0328 92.8477C30.0756 92.8607 30.442 92.7398 30.5146 92.7245C30.8003 92.6641 31.214 92.6794 31.4965 92.7505C31.7205 92.807 31.9255 92.8555 32.1349 92.9531L32.1834 92.9761C32.4753 93.137 32.745 93.3921 33.0831 93.4559C33.1823 93.3927 33.2051 93.3799 33.2607 93.275C33.2597 93.1695 33.2431 93.1082 33.1764 93.0216C32.7015 92.404 31.8959 92.2706 31.1455 92.1797Z" fill="#212021"/>
<path d="M61.8143 137.211C61.6816 137.181 61.5203 137.188 61.384 137.201C60.9163 137.247 60.4562 137.408 59.9899 137.479C58.8946 137.646 54.6782 138.02 54.0918 138.78C54.0274 138.864 54.0199 138.912 54.0386 139.01L54.1414 139.059C54.6383 139.021 55.0887 138.882 55.5677 138.761C56.0792 138.632 56.5955 138.524 57.1158 138.432C58.3174 138.22 59.5431 138.166 60.7374 137.909C61.0654 137.839 61.5201 137.747 61.7824 137.54C61.8886 137.456 61.9332 137.406 61.9453 137.279L61.8143 137.211Z" fill="#212021"/>
<path d="M45.8643 144.367C45.2363 144.324 44.6366 144.44 44.0145 144.492C42.9907 144.578 41.9575 144.645 40.9306 144.691C39.8096 144.74 38.67 144.72 37.5474 144.701C37.0349 144.693 36.5286 144.665 36.0155 144.683C36.1864 144.787 36.3466 144.873 36.5357 144.945C37.2742 145.152 38.0081 145.236 38.7779 145.262C39.3893 145.283 40.0068 145.248 40.6184 145.233C42.1834 145.195 43.7819 145.169 45.3059 144.8C45.4894 144.755 45.8424 144.681 45.9701 144.55C46.0067 144.512 45.9939 144.482 45.9939 144.435L45.8643 144.367Z" fill="#212021"/>
<path d="M61.8975 137.938C61.5301 138.29 61.1703 138.656 60.8408 139.04C60.1351 139.863 59.4269 140.782 58.4877 141.383C57.7316 141.867 56.8542 142.104 55.9543 142.204C55.1514 142.293 54.315 142.2 53.5042 142.249C53.3149 142.261 52.9483 142.269 52.8012 142.385C52.8309 142.484 52.9241 142.505 53.0155 142.556C54.5537 143.02 56.4843 142.981 57.9615 142.352C59.004 141.908 59.7707 141.098 60.4788 140.279C60.7781 139.932 61.0896 139.581 61.3262 139.193C61.5695 138.795 61.7278 138.366 61.8975 137.938Z" fill="#212021"/>
<path d="M30.8163 95.5569L30.4352 95.5457C29.9788 95.564 29.5587 95.7423 29.2541 96.0628C28.9205 96.4137 28.96 96.7637 28.9814 97.1979C28.9966 97.5061 29.1303 97.841 29.3268 98.0899C29.6794 98.5367 30.269 98.7284 30.8329 98.7949C31.0953 98.7946 31.3238 98.7817 31.5619 98.6645C32.3139 98.2941 32.5689 97.3131 32.7832 96.6094C32.2546 96.0679 31.585 95.6906 30.8163 95.5569Z" fill="#212021"/>
<path d="M27.1949 120.428C27.113 120.407 27.1524 120.406 27.0769 120.428C27.1656 120.783 27.3493 121.129 27.5116 121.459C27.8012 122.046 28.1178 122.62 28.3646 123.226C28.6852 124.014 28.936 124.823 29.2466 125.613C29.7684 126.939 30.3221 128.26 30.7173 129.627C31.3777 131.91 31.4642 134.345 31.1024 136.68C30.9558 137.627 30.7146 138.626 30.3431 139.518C30.1369 140.012 29.7694 140.485 29.6789 141.014C29.7126 141.128 29.7357 141.14 29.8248 141.216L29.9377 141.146L30.2443 140.731C30.8027 139.949 31.0828 139.03 31.3073 138.122C31.919 135.647 32.053 132.995 31.5244 130.491C31.1598 128.764 30.5395 127.146 29.9136 125.494C29.46 124.297 28.9905 123.096 28.3751 121.963C28.0772 121.415 27.7553 120.778 27.1949 120.428Z" fill="#212021"/>
<path d="M29.7667 129.161L29.7023 129.146C29.5173 129.195 29.3828 129.458 29.3168 129.615C28.8539 130.72 28.5973 131.914 28.2627 133.059C27.7443 134.832 27.1073 136.57 26.4168 138.289C26.0301 139.252 25.6543 140.265 25.0794 141.145C24.6803 141.757 24.1892 142.311 23.5512 142.71C22.8742 143.134 22.0779 143.246 21.2812 143.258C21.0561 143.261 20.8108 143.275 20.5904 143.229C20.4602 143.201 20.3183 143.168 20.2583 143.044C20.2084 142.942 20.2408 142.833 20.2646 142.728C20.3666 142.278 20.5993 141.862 20.7263 141.417C20.5155 141.753 20.2619 142.07 20.0788 142.42C19.9375 142.69 19.8526 142.988 19.7712 143.278L19.4992 142.848C19.2658 142.423 19.7361 141.829 19.8837 141.415C19.945 141.242 20.0184 141.064 19.9265 140.89C19.8289 140.872 19.7672 140.87 19.6749 140.911C19.2853 141.083 19.1125 142.01 18.99 142.376C18.8471 142.098 18.8079 141.483 18.8925 141.185C18.9944 140.826 19.3355 140.61 19.6561 140.435C19.9851 140.278 20.3265 140.138 20.6647 140C20.9527 139.882 21.2323 139.801 21.4512 139.58C21.4254 139.486 21.3735 139.448 21.2801 139.401C20.9592 139.239 20.228 139.365 19.9024 139.476C19.2481 139.699 18.6301 140.121 18.3392 140.731C18.1006 141.232 18.0598 141.862 18.2646 142.379C18.3584 142.615 18.5929 142.847 18.6328 143.083C18.6421 143.138 18.6984 143.181 18.7445 143.215C18.8945 143.324 19.0971 143.407 19.2666 143.486C20.1289 143.89 21.1007 144.044 22.054 143.889C23.374 143.674 24.4906 142.869 25.249 141.853C25.8118 141.099 26.2485 140.257 26.6193 139.406C27.1077 138.284 27.5058 137.111 27.8892 135.955C28.4451 134.278 28.9531 132.602 29.4073 130.898C29.4897 130.589 29.5739 130.28 29.6578 129.971C29.7294 129.708 29.8162 129.433 29.7667 129.161Z" fill="#212021"/>
<path d="M24.5229 99.3464C24.204 99.3486 23.8556 99.3658 23.5476 99.445C23.0772 99.5661 22.4944 99.7924 22.2176 100.2C22.059 100.433 21.995 100.682 22.0098 100.958C22.0624 101.941 23.043 102.231 23.6827 102.829C23.8312 102.968 23.97 103.129 24.0066 103.329C24.0508 103.57 23.9335 103.856 23.7826 104.047C23.4873 104.422 23.0114 104.724 22.5168 104.792C21.927 104.873 21.4621 104.715 21.0066 104.366C20.8454 104.243 20.7058 104.105 20.5383 103.986C20.4527 104.039 20.4517 104.118 20.4225 104.208C20.4579 104.346 20.5253 104.443 20.6212 104.552C20.983 104.96 21.4572 105.214 22.0254 105.254C22.9064 105.315 23.5586 104.944 24.2073 104.429C24.4845 104.857 24.7844 105.155 25.2131 105.448C25.3888 105.568 25.5569 105.655 25.7524 105.742C26.4591 106.021 27.3705 106.046 28.0862 105.77C28.6506 105.551 29.2169 105.053 29.4531 104.52L28.4177 105.167C27.7525 105.498 26.8821 105.704 26.1443 105.474C25.2099 105.182 24.7908 104.423 24.3647 103.654C25.0292 102.987 26.0037 102.716 26.7662 102.172C27.0743 101.952 27.3943 101.631 27.4356 101.252C27.4753 100.889 27.3552 100.557 27.1187 100.27C26.7013 99.7634 25.9883 99.4746 25.3263 99.3956L25.2616 99.3884L24.5229 99.3464Z" fill="#212021"/>
<path d="M29.2122 84.6134C28.5191 84.575 27.8344 84.5973 27.1441 84.6603C26.0499 84.7602 24.8432 84.9094 23.9564 85.5713C24.7819 85.4451 25.6093 85.2728 26.4375 85.1736C27.641 85.0295 28.9502 84.9884 30.1591 85.1178C30.9754 85.2052 31.758 85.4271 32.5732 85.5163C33.241 85.5893 33.9169 85.4609 34.5875 85.5691C35.3354 85.6899 35.9509 85.9368 36.5735 86.3426C37.4267 86.8988 38.1261 87.6738 38.7242 88.4649C40.1537 90.3556 41.0306 92.3975 41.4628 94.6768C41.6375 95.5982 41.8087 96.5399 41.2128 97.3578C41.1907 97.3881 41.1707 97.4188 41.1431 97.4452C40.8389 97.7369 40.2464 97.8918 39.8179 97.8924C36.9015 97.896 35.6571 92.543 35.293 90.4892L35.0637 88.4761C35.0272 88.3038 35.002 88.1626 34.8394 88.0598L34.7497 88.0902C34.7164 88.167 34.6912 88.2393 34.6833 88.3225C34.598 89.2256 34.716 90.1602 34.876 91.0477C35.0857 92.2104 35.3904 93.3354 35.7946 94.4521C36.2536 95.7201 36.7527 96.9949 37.664 98.0456C38.404 98.899 39.4176 99.4988 40.5957 99.5925C40.979 99.6229 41.3745 99.5168 41.6645 99.2755C42.0563 98.9495 42.167 98.4221 42.1974 97.9515C42.4509 94.024 40.983 89.9015 38.2081 86.9563C37.4303 86.1309 36.4486 85.3992 35.2806 85.1572C34.8411 85.0662 34.3751 85.0596 33.9272 85.0743C33.7078 85.0815 33.4917 85.1102 33.2775 85.1556C33.1717 85.178 32.9811 85.2497 32.8767 85.2354C32.5584 85.1918 32.2073 85.0054 31.8819 84.9343C31.0148 84.745 30.0999 84.6614 29.2122 84.6134Z" fill="#212021"/>
<path d="M40.1033 122.952C39.8565 123.095 39.5723 124.956 39.534 125.315C39.4708 125.908 39.3487 126.515 39.2548 127.106C39.0151 128.613 38.751 130.125 38.3376 131.599C38.1047 132.431 37.8617 133.266 37.5611 134.077C36.7934 136.15 35.895 138.169 35.0495 140.213C34.4257 141.721 33.8739 143.263 33.1973 144.75C33.1044 144.954 32.9964 145.2 32.8301 145.359C32.595 145.585 32.32 145.626 32.0125 145.703C30.8665 145.991 29.6008 145.961 28.4212 145.963C28.4957 145.702 28.5877 145.45 28.7076 145.204C28.8365 144.94 29.0512 144.607 29.0805 144.318C29.0897 144.227 29.0663 144.141 28.9991 144.074C28.9416 144.017 28.933 144.032 28.8551 144.028C28.3409 144.482 28.1951 145.325 28.0297 145.945L27.4801 145.727C27.6294 145.312 28.111 144.128 27.9771 143.761L27.8875 143.726C27.7961 143.736 27.7081 143.745 27.6314 143.797C27.0915 144.16 27.1413 145.189 27.0294 145.741C26.8523 145.613 26.6964 145.49 26.5497 145.331C26.5023 145.09 26.5162 144.792 26.58 144.554L26.5972 144.494C26.7096 144.088 27.0396 143.759 27.1323 143.368C27.1559 143.269 27.169 143.189 27.1059 143.108C27.0402 143.115 26.9965 143.135 26.9427 143.169C26.354 143.549 26.2191 144.32 26.0984 144.93C26.0018 144.828 25.9298 144.749 25.8999 144.613L25.8896 144.562C25.8329 144.307 25.8434 144.075 25.9255 143.824L25.9414 143.778C26.0149 143.555 26.1234 143.367 26.2779 143.185L26.3204 143.136C26.7851 142.594 27.5374 142.259 28.2344 142.07C28.5134 141.994 28.9828 141.909 29.1995 141.728C29.2638 141.675 29.2558 141.652 29.2574 141.577C29.2239 141.55 29.1961 141.526 29.1543 141.51C29.0296 141.463 28.8473 141.477 28.7152 141.481C28.0359 141.502 27.299 141.696 26.6897 141.979C25.9732 142.312 25.5628 142.918 25.3137 143.612L25.2433 144.182C25.2124 144.433 25.2397 144.659 25.2952 144.905C25.331 145.063 25.4464 145.31 25.4125 145.466L25.3992 145.517C25.4756 145.63 25.5703 145.709 25.6825 145.79C25.9403 145.975 26.2403 146.099 26.5348 146.223C27.0147 146.425 27.5196 146.6 28.0399 146.682C28.6033 146.77 29.1934 146.751 29.7631 146.75C30.286 146.748 30.8179 146.747 31.3364 146.676C31.8544 146.604 32.4292 146.466 32.848 146.156C33.4854 145.684 33.7979 144.719 34.0976 144.033C34.4138 143.309 34.7267 142.556 35.232 141.927C36.1195 140.822 37.538 140.628 38.9099 140.551C39.7415 140.505 40.5693 140.485 41.4023 140.485C42.0528 140.484 42.7324 140.519 43.3779 140.433L43.0727 140.327C41.9743 139.985 40.8965 140.028 39.7587 140.007C38.7821 139.99 37.6853 139.926 36.7407 140.194C36.3666 140.3 36.0175 140.45 35.6925 140.656C35.5777 140.729 35.4731 140.838 35.3507 140.895L36.5621 138.005C36.7853 138.146 36.971 138.372 37.1716 138.541C37.7077 138.995 38.3535 139.346 39.0148 139.609C38.3273 139.084 37.727 138.561 37.1263 137.947C37.0262 137.844 36.8659 137.726 36.7943 137.609C36.7906 137.603 37.8197 135.112 38.234 133.887C38.5881 132.839 38.8833 131.758 39.1292 130.684C39.3951 129.523 40.5536 123.773 40.1033 122.952Z" fill="#212021"/>
<path d="M21.4348 84.6101L20.7771 84.614C20.2935 84.6492 19.8126 84.77 19.3718 84.9604C18.6224 85.2843 17.9923 85.7614 17.3575 86.248C16.1559 87.1689 15.0214 88.2119 14.015 89.3216C13.616 89.7615 13.2718 90.23 12.9343 90.7127C12.2997 91.6203 11.5869 92.726 11.7247 93.8621C11.7654 94.1977 12.0205 94.533 12.3066 94.72C12.7026 94.979 13.2346 94.9986 13.6992 94.9601C15.3454 94.8239 16.7298 94.0184 17.8968 92.9526C18.0772 92.7878 18.2607 92.6215 18.4274 92.4442C18.6781 92.1778 18.9132 91.8972 19.1574 91.6254C19.2293 91.5453 19.3201 91.4177 19.4341 91.3989C19.4398 91.5643 19.3493 91.698 19.2832 91.8463C19.118 92.2173 18.9183 92.5758 18.7677 92.9519C18.3579 93.9751 18.0452 95.0416 17.7965 96.1093C17.4109 97.7651 17.1259 99.4925 17.6468 101.155C17.8503 101.804 18.2118 102.418 18.5194 103.027C18.7669 103.517 18.9816 104.022 19.2612 104.498C19.8888 105.566 20.9291 106.492 22.0685 107.071L22.1047 107.088C21.8693 107.578 21.6066 108.137 21.574 108.681C21.5088 109.768 22.0026 110.51 22.7483 111.298C22.7058 111.471 22.6075 111.633 22.5466 111.802C22.4414 112.093 22.3734 112.407 22.3068 112.708C22.2094 113.149 22.1766 113.586 22.108 114.03C21.7954 116.05 21.5649 118.127 21.6092 120.172C21.66 122.515 22.116 124.811 22.3953 127.131C22.5655 128.544 22.5882 129.978 22.6071 131.398C22.6335 133.381 22.6758 135.434 22.1509 137.37C21.9589 138.079 21.6087 138.722 21.2843 139.381L21.6829 139.437C22.2534 138.579 22.6567 137.65 22.881 136.659C23.2149 135.185 23.1722 133.642 23.1388 132.143C23.098 130.31 23.0285 128.495 22.8137 126.671C22.5887 124.761 22.2195 122.84 22.1373 120.92C22.0486 118.844 22.1947 116.805 22.4858 114.748C22.5838 114.056 22.6585 113.361 22.8116 112.676C22.8918 112.317 23.0209 111.972 23.1164 111.616C23.2797 111.718 23.4376 111.824 23.5932 111.936C23.6306 111.963 23.7292 112.017 23.7538 112.052C23.9127 112.278 23.9745 112.571 24.1498 112.804C24.4315 113.178 24.8795 113.483 25.366 113.552C25.8281 113.617 26.2883 113.484 26.6589 113.224C27.1287 112.895 27.3352 112.483 27.4173 111.944C27.5216 111.882 27.6844 111.859 27.8044 111.828C28.1082 111.749 28.415 111.676 28.7157 111.587C29.6225 111.319 30.5207 110.979 31.3791 110.596C32.8494 109.939 34.4522 109.045 35.2245 107.639L35.2384 107.614C35.4273 107.934 35.6634 108.234 35.8767 108.54C36.2001 109.004 36.5121 109.48 36.8152 109.956C37.8007 111.503 38.6856 113.109 39.9133 114.507C40.8791 115.607 42.074 116.514 43.127 117.534C45.9825 120.298 48.4991 123.543 49.9875 127.156C50.5816 128.598 50.9599 130.091 51.2824 131.603C52.0374 135.141 52.4499 139.813 49.4422 142.574C49.1025 142.886 48.7356 143.179 48.3537 143.444C48.0421 143.661 47.6965 143.856 47.3632 144.042C47.1364 144.169 46.6331 144.398 46.5255 144.63C46.5708 144.688 46.547 144.678 46.6088 144.694C47.0268 144.802 47.7126 144.423 48.0625 144.225C48.8183 143.796 49.5578 143.274 50.1438 142.65C51.0768 141.655 51.6466 140.383 51.9749 139.103C52.2217 138.14 52.2392 137.181 52.2446 136.198C52.253 134.648 52.1653 133.097 51.8654 131.568C51.6177 130.162 51.1805 128.77 50.6502 127.438C49.659 124.948 48.3071 122.618 46.6335 120.478C45.9786 119.641 45.2801 118.806 44.5245 118.046C43.0633 116.578 41.3453 115.292 39.9946 113.736C39.3697 113.016 38.8739 112.152 38.36 111.359C37.5541 110.116 36.7581 108.871 35.9001 107.659C35.4637 107.042 35.2379 106.506 35.1371 105.769C35.1191 105.638 35.0799 105.411 35.1076 105.285C35.1121 105.264 35.1879 105.182 35.2017 105.164C35.3026 105.034 35.3985 104.9 35.4967 104.767C35.9334 104.179 36.3706 103.639 36.7011 102.985C37.3344 101.729 37.5629 100.394 37.8463 99.0454C37.7152 99.2132 37.6162 99.4312 37.5207 99.6193C37.1574 100.335 36.9504 101.107 36.6551 101.847C36.2334 102.904 35.5078 103.929 34.6996 104.759C33.5639 105.925 32.2758 106.924 30.8171 107.711C29.3837 108.486 27.5404 108.882 26.4549 110.113L26.4229 110.15C26.2896 110.065 26.1303 109.962 25.9762 109.914C25.5566 109.782 24.8765 109.883 24.4856 110.052C24.382 110.097 24.1455 110.255 24.0485 110.245C23.5748 109.756 22.9321 109.289 22.6073 108.696C22.3855 108.291 22.3375 107.801 22.4877 107.363C22.6045 107.267 23.0042 107.436 23.1638 107.475C24.541 107.813 26.0499 107.786 27.4376 107.522C29.1546 107.194 30.647 106.445 31.6266 105.036C32.1684 104.256 32.589 103.16 32.3575 102.222C32.1348 101.32 31.2877 100.819 30.4983 100.383C31.1315 100.952 31.8532 101.737 31.9454 102.588C32.0355 103.419 31.6395 104.233 31.0875 104.862C30.0082 106.092 28.1318 106.908 26.458 107.042C24.9105 107.166 23.1956 107.082 21.8224 106.336C21.51 106.166 21.2139 105.928 20.9396 105.707C20.1029 105.036 19.4975 103.909 19.42 102.874C19.3276 101.641 19.8922 100.093 20.7685 99.1724L21.0846 98.8566C22.4917 97.5886 25.1466 97.4908 26.9272 98.0002C27.4832 98.1591 28.0168 98.3787 28.5778 98.5222C28.6983 98.553 28.8597 98.6109 28.9845 98.6061C29.0645 98.6029 29.0829 98.5771 29.1365 98.5282C29.122 98.4191 29.0894 98.3404 29.0125 98.2553C28.7155 97.9267 28.116 97.7986 27.6883 97.6939C26.5678 97.4197 25.4718 97.2989 24.3175 97.2377C24.3873 97.0499 24.4819 96.8422 24.5199 96.6471C24.5919 96.2776 24.5299 95.7942 24.283 95.4923C24.075 95.238 23.7389 95.1118 23.4103 95.0679C22.933 95.0042 22.4824 95.0858 22.0991 95.3721C21.846 95.5613 21.7209 95.8216 21.6929 96.1215C21.6445 96.6415 22.0011 97.0652 22.3263 97.4428L21.3803 97.9228C20.2349 98.5935 19.5618 99.7711 19.2208 100.966C19.0559 101.544 18.9669 102.132 18.8259 102.714C18.4646 101.921 18.1397 101.078 18.0234 100.216C17.9695 99.816 17.9689 99.4027 17.9703 99C17.9799 96.2389 19.0977 93.6732 20.1195 91.1301C20.6296 89.8607 21.1157 88.5986 21.5287 87.2979C20.9766 88.08 20.5434 88.9184 20.014 89.7113C19.771 90.0755 19.4882 90.4109 19.2092 90.7508C18.178 92.007 17.0852 93.0347 15.4875 93.6227C15.0915 93.7685 14.6745 93.9015 14.2518 93.9522C13.8591 93.9994 13.3924 94.1318 13.0582 93.889C12.9964 93.7867 12.9708 93.7042 12.9773 93.5856C13.0413 92.4102 14.8421 89.688 15.6152 88.7134C16.1266 88.0686 16.6749 87.4669 17.3041 86.921C18.5541 85.8364 20.3478 84.8476 22.1109 85.1761C22.6082 85.2688 23.0638 85.5519 23.5776 85.5716L23.6286 85.5146C23.6258 85.4135 23.6202 85.3421 23.554 85.2587C23.4589 85.1387 23.3017 85.0637 23.1615 84.999C22.6217 84.7498 22.0255 84.6704 21.4348 84.6101ZM34.4774 105.925C34.5651 106.447 34.678 106.938 34.8424 107.444C34.8453 107.453 34.8544 107.463 34.8512 107.472C34.8352 107.518 34.7624 107.6 34.7321 107.644C34.1104 108.557 33.0292 109.192 32.045 109.709C30.6715 110.43 29.2086 111.031 27.6679 111.348C27.6058 111.361 27.5517 111.367 27.4886 111.368L27.3644 111.148C27.2446 110.892 27.1336 110.682 26.9453 110.466L26.8465 110.349C27.4312 109.55 28.6946 109.141 29.61 108.751C30.2604 108.474 30.9143 108.194 31.541 107.872C32.5598 107.348 33.627 106.677 34.4774 105.925ZM25.3879 110.253C25.9613 110.366 26.4775 110.519 26.8123 111.007C26.9994 111.28 27.0362 111.652 26.9713 111.969C26.8985 112.325 26.5396 112.746 26.2211 112.927C26.0286 113.037 25.7875 113.086 25.5642 113.071C25.04 112.977 24.6692 112.76 24.3729 112.333C24.1414 112 23.8569 111.466 23.9689 111.065C24.0425 110.802 24.3385 110.584 24.5818 110.465C24.8227 110.346 25.1161 110.272 25.3879 110.253ZM22.0997 108.83C22.4677 109.162 22.7245 109.522 23.0381 109.895C23.2636 110.164 23.5098 110.421 23.7193 110.701L23.4473 111.21L23.4139 111.296C23.3039 111.296 23.2092 111.221 23.1354 111.15C22.56 110.594 22.0029 109.626 22.0272 108.836L22.0997 108.83Z" fill="#212021"/>
</svg>
