<svg width="211" height="205" viewBox="0 0 211 205" fill="none" xmlns="http://www.w3.org/2000/svg">
<g id="Mask group-1 1" clip-path="url(#clip0_31_450)">
<path id="Vector" d="M211 203.04V205H0V203.03H146.94C147.101 203.025 147.256 202.964 147.376 202.856C147.496 202.748 147.573 202.601 147.595 202.441C147.617 202.282 147.581 202.119 147.494 201.983C147.407 201.848 147.274 201.747 147.12 201.7L144.01 200.84C143.797 200.782 143.612 200.65 143.49 200.47L138.29 193.19C138.03 192.823 137.673 192.637 137.22 192.63L123.71 192.41C123.357 192.403 123.2 192.577 123.24 192.93C123.68 196.84 120.76 198.41 117.94 200.24C117.653 200.42 117.343 200.51 117.01 200.51C103.67 200.503 90.3333 200.487 77 200.46C74.29 200.46 68.73 200.3 66.94 197.43C66.78 197.177 66.5767 197.13 66.33 197.29C65.87 197.59 65.51 197.74 65.25 197.74C53.6 197.79 35.43 200.05 28.62 187.56C28.3733 187.1 28.4933 186.957 28.98 187.13C30.3467 187.623 31.6 188.22 32.74 188.92C33.3733 189.313 33.96 189.397 34.5 189.17C34.5634 189.145 34.6183 189.102 34.6584 189.047C34.6984 188.991 34.7219 188.926 34.7261 188.858C34.7303 188.79 34.715 188.722 34.682 188.662C34.6491 188.602 34.5998 188.553 34.54 188.52C28.7067 185.313 24.8533 180.65 22.98 174.53C22.9133 174.317 22.9133 174.13 22.98 173.97C23.0134 173.895 23.0647 173.829 23.1291 173.778C23.1935 173.727 23.2691 173.692 23.3492 173.677C23.4294 173.663 23.5115 173.668 23.5884 173.693C23.6653 173.718 23.7346 173.761 23.79 173.82L25.54 175.7C25.6076 175.776 25.7012 175.824 25.8024 175.835C25.9036 175.846 26.0053 175.819 26.0876 175.759C26.17 175.699 26.2271 175.611 26.2479 175.511C26.2686 175.412 26.2516 175.308 26.2 175.22C22.6933 168.913 22.0433 162.263 24.25 155.27C24.2821 155.16 24.3473 155.062 24.4368 154.99C24.5264 154.918 24.6359 154.875 24.7505 154.867C24.8651 154.86 24.9794 154.888 25.0777 154.947C25.176 155.007 25.2536 155.095 25.3 155.2C33.9 173.65 44.73 185.7 65.43 189.59C65.5094 189.605 65.5915 189.594 65.6642 189.558C65.737 189.523 65.7966 189.466 65.8345 189.395C65.8724 189.323 65.8866 189.242 65.875 189.162C65.8634 189.082 65.8266 189.008 65.77 188.95C63.8433 186.923 62.5967 184.53 62.03 181.77C59.35 168.697 61.3433 157.033 68.01 146.78C70.0433 143.66 73.8867 139.477 79.54 134.23C90.21 124.34 100.3 113.88 111.98 105C112.114 104.901 112.223 104.773 112.299 104.625C112.376 104.478 112.417 104.315 112.42 104.15C112.527 100.99 113.863 98.5099 116.43 96.7099C116.723 96.5099 116.933 96.2466 117.06 95.9199C117.853 93.8599 119.003 92.0599 120.51 90.5199C125.03 85.9199 125.77 80.44 123.14 74.47C123.062 74.2939 122.928 74.148 122.758 74.0542C122.589 73.9605 122.393 73.9239 122.2 73.9499C118.827 74.4433 116.46 73.2233 115.1 70.29C114.947 69.9633 114.703 69.7333 114.37 69.5999C107.5 66.8599 111.31 60.5799 108.79 55.7599C106.77 51.8899 102.76 41.9699 106.55 39.0499C108.877 37.2566 111.283 34.3433 113.77 30.3099C115.303 27.8099 117.457 27.3533 120.23 28.94C120.49 29.0933 120.733 29.0666 120.96 28.86C123.58 26.4933 126.437 25.1333 129.53 24.78C137.123 23.9 145.117 24.4933 153.51 26.5599C153.67 26.5999 153.673 26.6533 153.52 26.7199L149.96 28.34C149.854 28.3917 149.767 28.4764 149.712 28.5815C149.658 28.6866 149.639 28.8064 149.658 28.9232C149.677 29.04 149.733 29.1475 149.818 29.2298C149.903 29.3121 150.013 29.3647 150.13 29.3799C156.47 30.0999 153.78 49.4099 152.89 53.1699C152.577 54.4833 152.583 55.6866 152.91 56.7799C152.959 56.9456 153.068 57.0868 153.217 57.1756C153.365 57.2645 153.541 57.2946 153.71 57.2599C162.67 55.4399 169.18 50.2866 173.24 41.7999C173.953 40.3133 173.733 39.1066 172.58 38.1799C168.93 35.2499 160.1 26.5799 155.64 26.7299C155.027 26.7499 154.97 26.5833 155.47 26.2299C156.77 25.3233 158.133 25.3966 159.56 26.45C161.513 27.89 165.567 30.7333 171.72 34.9799C175.91 37.8699 177.14 40.36 174.02 44.79C169.973 50.53 165.277 54.8033 159.93 57.61C159.819 57.6665 159.73 57.7592 159.678 57.8733C159.625 57.9874 159.612 58.1164 159.64 58.24L163.66 76.32C163.733 76.6333 163.893 76.8899 164.14 77.0899C177.46 87.7999 177.22 112.12 172.42 126.5C171.813 128.32 171.527 130.073 171.56 131.76C171.847 145.68 172.547 159.567 173.66 173.42C174.07 178.46 173.82 181.83 177.87 185.53C178.13 185.763 178.433 185.907 178.78 185.96C183.53 186.71 188.49 188.86 188.25 193.73C188.08 196.94 180.53 197.38 178.36 197.37C178.027 197.37 177.717 197.277 177.43 197.09C174.91 195.47 170.49 193.61 169.52 190.6C168.42 187.173 166.587 184.223 164.02 181.75C161.52 179.34 162.06 178.2 161.76 175C161.013 166.9 159.943 159.087 158.55 151.56C158.417 150.827 158.107 150.747 157.62 151.32L148.76 161.77C148.686 161.854 148.588 161.914 148.48 161.942C148.371 161.97 148.257 161.965 148.152 161.927C148.048 161.889 147.958 161.82 147.895 161.729C147.832 161.638 147.799 161.531 147.8 161.42L147.81 157.72C147.81 157.546 147.85 157.374 147.928 157.218C148.006 157.062 148.12 156.925 148.26 156.82C153.5 152.967 157.817 148.277 161.21 142.75C161.39 142.45 161.567 142.453 161.74 142.76C161.827 142.907 161.817 143.07 161.71 143.25C160.83 144.77 160.513 146.437 160.76 148.25C162.053 157.77 162.897 167.33 163.29 176.93C163.303 177.262 163.418 177.58 163.62 177.84C166.54 181.593 169.013 185.627 171.04 189.94C172.71 193.48 175.82 194.98 179.23 196.36C179.518 196.475 179.833 196.508 180.139 196.455C180.445 196.403 180.73 196.266 180.963 196.061C181.196 195.856 181.368 195.59 181.459 195.294C181.55 194.997 181.558 194.681 181.48 194.38L181.09 192.87C181.07 192.783 181.097 192.72 181.17 192.68L181.4 192.54C181.533 192.467 181.647 192.49 181.74 192.61L183.28 194.51C183.426 194.693 183.615 194.837 183.831 194.929C184.046 195.021 184.281 195.057 184.515 195.036C184.748 195.014 184.972 194.934 185.167 194.804C185.361 194.674 185.521 194.497 185.63 194.29C188.72 188.48 180.11 187.43 176.68 186.47C176.367 186.383 176.107 186.213 175.9 185.96C173.553 183.147 172.28 180.39 172.08 177.69C171.09 164.31 170.16 151.1 168.43 137.79C168.383 137.423 168.23 137.107 167.97 136.84L167.41 136.28C167.29 136.163 167.209 136.012 167.179 135.847C167.148 135.682 167.17 135.512 167.24 135.36C172.98 122.73 175.57 110.81 172.28 97.1299C170.77 90.8599 169.7 86.5399 165.07 82.8399C164.981 82.7675 164.872 82.7228 164.758 82.7113C164.643 82.6998 164.528 82.7219 164.426 82.7751C164.324 82.8282 164.24 82.9099 164.184 83.0103C164.127 83.1107 164.102 83.2252 164.11 83.3399C164.49 88.8199 163.92 94.2033 162.4 99.4899C162.347 99.6899 162.263 99.7033 162.15 99.5299C162.09 99.4433 162.07 99.3499 162.09 99.2499C163.64 88.0399 162.79 70.01 156.05 60.33C155.85 60.05 155.58 59.9266 155.24 59.9599C152.34 60.2299 147.74 60.7999 149.93 55.8699C151.83 51.57 154.46 42.82 152.8 38.29C151.7 35.29 149.11 34.83 149.48 30.54C149.513 30.2066 149.37 29.9833 149.05 29.87C147.99 29.49 147.25 29.3199 146.3 28.6599C139.62 24.0299 122.78 23.8199 120.32 33.9599C120.241 34.2613 120.086 34.5369 119.87 34.7599L118.56 36.06C118.213 36.4066 118.28 36.5266 118.76 36.4199C120.387 36.0599 121.277 36.6933 121.43 38.3199C121.84 42.5599 121.06 46.76 116.47 48.25C116.372 48.2787 116.287 48.3406 116.23 48.425C116.173 48.5095 116.146 48.6113 116.156 48.7129C116.165 48.8145 116.21 48.9097 116.282 48.9822C116.354 49.0546 116.448 49.0998 116.55 49.11C118.12 49.32 120.4 49.4699 121.19 51C121.723 52.0266 121.39 52.9266 120.19 53.7C118.443 54.8133 117.153 55.8966 116.32 56.95C116.107 57.2166 116.063 57.51 116.19 57.83C119.88 67.35 121.89 68.6 132.05 66.19C133.51 65.8433 134.013 66.2733 133.56 67.48C133.511 67.6047 133.43 67.7145 133.325 67.7987C133.219 67.8829 133.094 67.9385 132.96 67.9599C126.35 69.0499 120.33 69.2999 116.5 62.75C116.461 62.6857 116.407 62.632 116.343 62.5934C116.278 62.5549 116.206 62.5326 116.131 62.5287C116.056 62.5247 115.981 62.5392 115.913 62.5708C115.845 62.6024 115.785 62.6502 115.74 62.7099C114.06 64.9599 113.7 68.0499 115.98 70.11C118.62 72.5 127.63 71.57 131.58 72.1399C135.78 72.75 138.34 71.6 140.06 67.87C140.09 67.7851 140.151 67.7149 140.231 67.674C140.311 67.6332 140.404 67.6247 140.49 67.6505C140.577 67.6762 140.65 67.7341 140.694 67.8122C140.739 67.8903 140.752 67.9826 140.73 68.07L140.45 69.93C140.41 70.2299 140.487 70.4999 140.68 70.7399C149.66 81.59 155.59 90.06 156.46 104.51C156.527 105.65 156.443 105.66 156.21 104.54C153.89 93.6399 150.17 82.8299 141.25 75.5C139.91 74.4 136.49 72.67 135.32 75.05C135.153 75.3766 135.133 75.7133 135.26 76.0599C136.14 78.4999 138.99 85.24 138.71 87.5C138.63 88.1466 138.497 88.1566 138.31 87.5299C136.51 81.3999 134.11 73.91 126.84 74.65C126.513 74.6833 126.38 74.86 126.44 75.18C127.85 82.93 125.55 86.6599 121.69 93.0399C120.04 95.7799 120.11 97.3199 122.19 99.6399C124.11 101.767 123.93 102.023 121.65 100.41C120.517 99.6033 119.263 99.3833 117.89 99.7499C117.699 99.8026 117.525 99.8985 117.38 100.03C113.81 103.37 115.51 105.64 117.11 109.23C117.35 109.77 117.217 109.893 116.71 109.6L114.07 108.06C113.757 107.88 113.453 107.897 113.16 108.11C96.66 119.9 86.2 130.74 73.3 143.29C64.14 152.22 61.63 169.47 64.5 181.25C65.8667 186.857 69.6033 189.697 75.71 189.77C75.97 189.77 76.1367 189.833 76.21 189.96C76.2567 190.04 76.2833 190.137 76.29 190.25C76.2967 190.47 76.1933 190.597 75.98 190.63C70.38 191.44 67.87 198.54 75.05 198.47C86.53 198.37 98.0067 198.613 109.48 199.2C111.62 199.31 113.67 198.94 112.88 196.19C112.667 195.463 112.857 195.333 113.45 195.8C114.297 196.467 115.033 197.273 115.66 198.22C115.933 198.64 116.303 198.753 116.77 198.56L118.39 197.88C118.817 197.7 118.977 197.383 118.87 196.93L118.29 194.44C118.276 194.375 118.28 194.308 118.301 194.245C118.322 194.183 118.359 194.127 118.409 194.085C118.459 194.043 118.519 194.015 118.582 194.005C118.646 193.996 118.711 194.004 118.77 194.03C119.403 194.29 119.873 194.723 120.18 195.33C120.289 195.55 120.473 195.722 120.7 195.814C120.926 195.906 121.178 195.913 121.41 195.832C121.642 195.752 121.837 195.59 121.961 195.376C122.084 195.162 122.126 194.911 122.08 194.67C120.67 187.65 110.95 190.89 106.62 192.16C102.033 193.513 97.3167 193.417 92.47 191.87C92.2522 191.801 92.0544 191.68 91.8936 191.518C91.7328 191.356 91.6139 191.157 91.547 190.939C91.4801 190.72 91.4672 190.489 91.5096 190.264C91.5519 190.04 91.6481 189.829 91.79 189.65C92.5 188.75 93.84 187.6 94.99 187.06C99.33 185.03 103.75 183.04 107.32 180.11C116.12 172.89 123.91 158.81 119.81 147.34C113.68 130.13 94.97 138.46 86.81 147.99C86.6767 148.143 86.56 148.183 86.46 148.11C86.4333 148.09 86.4033 148.06 86.37 148.02C86.3167 147.96 86.3133 147.893 86.36 147.82C91.64 138.82 104.6 130.66 114.88 136.27C122.26 140.29 124.99 150.37 123.53 158.27C121.583 168.77 116.18 176.96 107.32 182.84C104.52 184.7 99.88 186.73 96.61 189.07C95.2967 190.003 95.4267 190.643 97 190.99C99.7867 191.61 102.023 191.583 103.71 190.91C115.59 186.16 125.8 180.63 133.82 170.34C134.033 170.067 134.113 169.763 134.06 169.43C132.693 161.297 131.403 153.167 130.19 145.04C129.3 139.01 125.04 135 124.53 129.33C124.35 127.403 124.1 125.5 123.78 123.62C123.74 123.38 123.84 123.253 124.08 123.24C124.3 123.227 124.44 123.313 124.5 123.5C125.47 126.58 125.29 129.58 126.8 132.42C128.75 136.11 130.56 139.56 131.49 143.73C134.157 155.69 136.267 167.75 137.82 179.91C137.953 180.91 137.847 182.11 137.5 183.51C136.54 187.37 139.9 192.6 142.55 196.41C144.43 199.1 146.9 200.12 149.78 201.33C150.107 201.47 150.427 201.467 150.74 201.32C152.02 200.733 152.367 199.727 151.78 198.3C151.735 198.192 151.734 198.071 151.777 197.962C151.82 197.853 151.904 197.765 152.01 197.717C152.117 197.669 152.238 197.664 152.348 197.704C152.458 197.744 152.549 197.825 152.6 197.93L153.88 200.56C153.959 200.724 154.079 200.865 154.228 200.97C154.377 201.075 154.551 201.14 154.732 201.159C154.913 201.178 155.097 201.151 155.264 201.079C155.432 201.007 155.578 200.894 155.69 200.75L157.98 197.83C158.181 197.571 158.32 197.268 158.383 196.946C158.447 196.623 158.435 196.291 158.347 195.974C158.26 195.658 158.1 195.366 157.88 195.122C157.66 194.878 157.386 194.689 157.08 194.57C151.85 192.55 147.01 191.08 146.44 184.5C145.367 172.227 145.037 159.947 145.45 147.66C145.73 139.32 145.86 133.97 152.59 129.68C152.647 129.632 152.721 129.609 152.795 129.616C152.869 129.622 152.937 129.658 152.985 129.715C153.033 129.772 153.056 129.846 153.049 129.92C153.043 129.994 153.007 130.062 152.95 130.11C150.29 132.94 148.38 135.35 148.05 139.5C147.457 147 147.09 154.497 146.95 161.99C146.803 169.99 147.473 177.913 148.96 185.76C150.45 193.61 161.83 191.7 159.66 199.5C159.627 199.611 159.561 199.712 159.47 199.79L156.3 202.35C156.242 202.399 156.2 202.464 156.179 202.537C156.158 202.61 156.16 202.687 156.184 202.758C156.208 202.829 156.253 202.891 156.313 202.934C156.374 202.977 156.446 203 156.52 203L211 203.04ZM115.09 43.4599C115.67 44.4333 115.88 45.4833 115.72 46.61C115.706 46.6977 115.719 46.7873 115.756 46.8675C115.794 46.9477 115.855 47.015 115.932 47.0609C116.009 47.1068 116.098 47.1293 116.188 47.1256C116.279 47.1219 116.366 47.0921 116.44 47.04L118.12 45.83C118.473 45.5766 118.513 45.2799 118.24 44.9399L116.37 42.58C116.07 42.2066 116.08 41.84 116.4 41.4799C117.32 40.4466 118.46 39.9666 119.82 40.04C119.877 40.0428 119.934 40.0337 119.988 40.0131C120.041 39.9925 120.09 39.9609 120.13 39.9204C120.171 39.8799 120.203 39.8313 120.223 39.7778C120.244 39.7244 120.253 39.6672 120.25 39.61C120.223 38.9699 120.003 38.5099 119.59 38.2299C119.27 38.0099 118.87 37.9766 118.39 38.13C116.683 38.6633 115.57 39.8066 115.05 41.56C114.943 41.9266 114.793 41.9466 114.6 41.6199C114.327 41.1666 114.297 40.7099 114.51 40.2499C115.817 37.4366 117.23 34.7166 118.75 32.09C118.793 32.0176 118.819 31.9364 118.827 31.8525C118.834 31.7685 118.823 31.684 118.793 31.6052C118.763 31.5264 118.716 31.4553 118.655 31.3972C118.594 31.3392 118.52 31.2957 118.44 31.27C116.21 30.57 115.22 31.6799 113.98 33.5199C112.58 35.5866 110.477 37.9666 107.67 40.66C105.32 42.91 108.24 52.4699 109.3 54.6699C111 58.1999 110.61 61.94 111.53 65.76C111.569 65.9133 111.658 66.0495 111.782 66.1475C111.906 66.2455 112.059 66.2998 112.217 66.3021C112.376 66.3044 112.53 66.2544 112.657 66.1601C112.784 66.0657 112.877 65.9321 112.92 65.7799L115.12 57.7799C115.193 57.5266 115.157 57.2933 115.01 57.08C114.13 55.7866 113.063 54.6466 111.81 53.66C111.542 53.4505 111.328 53.1806 111.185 52.8723C111.042 52.5641 110.974 52.2264 110.987 51.8868C111 51.5472 111.093 51.2155 111.258 50.9188C111.424 50.6221 111.658 50.3689 111.94 50.18L114.08 48.75C114.367 48.5566 114.477 48.29 114.41 47.95C114.123 46.4766 114.143 45.0133 114.47 43.56C114.597 43.0133 114.803 42.9799 115.09 43.4599ZM119.5 42.4C119.5 42.2276 119.432 42.0622 119.31 41.9403C119.188 41.8184 119.022 41.75 118.85 41.75C118.678 41.75 118.512 41.8184 118.39 41.9403C118.268 42.0622 118.2 42.2276 118.2 42.4C118.2 42.5723 118.268 42.7377 118.39 42.8596C118.512 42.9815 118.678 43.0499 118.85 43.0499C119.022 43.0499 119.188 42.9815 119.31 42.8596C119.432 42.7377 119.5 42.5723 119.5 42.4ZM41.45 192.08L38.98 192.32C38.8911 192.329 38.8071 192.365 38.7397 192.424C38.6722 192.482 38.6248 192.56 38.6039 192.647C38.583 192.734 38.5897 192.825 38.6231 192.908C38.6564 192.991 38.7148 193.062 38.79 193.11C46.32 197.81 58.39 197.05 66.55 194.77C66.8833 194.677 67.0933 194.46 67.18 194.12L67.83 191.55C67.8562 191.441 67.855 191.327 67.8266 191.219C67.7982 191.111 67.7435 191.011 67.6673 190.929C67.5911 190.847 67.4958 190.785 67.3898 190.748C67.2839 190.712 67.1706 190.702 67.06 190.72C65.76 190.94 65.11 191.11 63.84 190.82C48.14 187.26 34.3 178.98 26.55 164.39C26.5163 164.329 26.4636 164.28 26.3999 164.252C26.3362 164.224 26.2649 164.217 26.197 164.233C26.129 164.249 26.0681 164.286 26.0235 164.34C25.9789 164.393 25.9531 164.46 25.95 164.53C25.71 175.91 32.48 185.26 41.62 191.38C42.2133 191.78 42.1567 192.013 41.45 192.08ZM133.99 174.25C131.343 177.19 128.303 179.613 124.87 181.52C124.728 181.591 124.617 181.711 124.556 181.857C124.496 182.003 124.49 182.167 124.539 182.317C124.589 182.468 124.691 182.595 124.827 182.676C124.963 182.758 125.124 182.787 125.28 182.76L135.7 181.4C135.763 181.393 135.825 181.373 135.88 181.341C135.936 181.309 135.984 181.267 136.024 181.215C136.063 181.164 136.091 181.106 136.108 181.043C136.124 180.98 136.129 180.914 136.12 180.85L134.78 171.73C134.768 171.681 134.74 171.638 134.7 171.607C134.66 171.576 134.611 171.56 134.561 171.561C134.511 171.563 134.462 171.581 134.424 171.613C134.386 171.646 134.359 171.691 134.35 171.74L134.14 173.91C134.134 174.039 134.08 174.16 133.99 174.25ZM134.44 183.49C130.4 183.92 122.58 183.38 121.26 184.12C117.62 186.153 113.86 187.933 109.98 189.46C109.713 189.567 109.703 189.693 109.95 189.84L110.34 190.07C110.413 190.117 110.49 190.12 110.57 190.08C113.87 188.52 117.08 188.393 120.2 189.7C121.6 190.287 122.827 190.59 123.88 190.61C127.947 190.697 132.06 190.853 136.22 191.08C136.317 191.086 136.414 191.064 136.498 191.015C136.583 190.966 136.651 190.893 136.694 190.805C136.738 190.716 136.755 190.617 136.743 190.519C136.732 190.42 136.693 190.327 136.63 190.25C135.09 188.403 134.53 186.33 134.95 184.03C135.017 183.63 134.847 183.45 134.44 183.49Z" fill="#0F1010" fill-opacity="0.996"/>
<path id="Vector_2" d="M142.3 38.8101C142.35 38.8552 142.383 38.917 142.391 38.9841C142.399 39.0512 142.383 39.119 142.345 39.1751C142.308 39.2312 142.251 39.2717 142.185 39.2891C142.12 39.3066 142.051 39.2998 141.99 39.2701C139.3 37.6401 135.96 35.7301 133.76 39.2801C133.66 39.4412 133.505 39.5616 133.323 39.6192C133.142 39.6768 132.946 39.6676 132.772 39.5933C132.598 39.519 132.457 39.3847 132.376 39.2151C132.295 39.0454 132.279 38.8519 132.33 38.6701C133.93 32.6201 139.6 36.8401 142.3 38.8101Z" fill="#0F1010" fill-opacity="0.996"/>
<path id="Vector_3" d="M140.98 42.3399C141.42 42.7799 141.37 43.1599 140.83 43.4799L137.41 45.4599C137.283 45.5327 137.137 45.5641 136.992 45.5497C136.847 45.5354 136.71 45.476 136.6 45.3799L133.85 42.9499C133.57 42.6966 133.55 42.4266 133.79 42.1399L135.61 39.9999C135.725 39.8609 135.878 39.7592 136.051 39.7076C136.224 39.6559 136.408 39.6568 136.58 39.7099C138.293 40.2432 139.76 41.1199 140.98 42.3399ZM136.53 41.7599C136.407 41.79 136.299 41.8606 136.221 41.9602C136.144 42.0599 136.102 42.1827 136.104 42.3089C136.105 42.435 136.148 42.5571 136.228 42.6553C136.307 42.7535 136.417 42.8221 136.54 42.8499L137.22 42.9899C137.331 43.0139 137.447 43.0016 137.55 42.955C137.654 42.9083 137.74 42.8296 137.796 42.7299C137.853 42.6303 137.877 42.5149 137.865 42.4C137.853 42.2851 137.806 42.1766 137.73 42.0899C137.43 41.7632 137.03 41.6532 136.53 41.7599Z" fill="#0F1010" fill-opacity="0.996"/>
<path id="Vector_4" d="M168.92 107.18C169.147 106.526 169.547 106.076 170.12 105.83C170.467 105.683 170.58 105.79 170.46 106.15L168.67 111.45C168.55 111.79 168.347 112.07 168.06 112.29C166.007 113.856 164.84 115.94 164.56 118.54C164.556 118.615 164.522 118.687 164.466 118.74C164.41 118.792 164.336 118.821 164.26 118.82C164.184 118.818 164.114 118.787 164.063 118.733C164.012 118.678 163.986 118.605 163.99 118.53C163.72 113.46 167.41 111.45 168.92 107.18Z" fill="#0F1010" fill-opacity="0.996"/>
<path id="Vector_5" d="M152.47 114.48L152.8 116.73C152.815 116.832 152.794 116.936 152.739 117.024C152.685 117.112 152.602 117.178 152.505 117.209C152.407 117.241 152.303 117.236 152.21 117.196C152.118 117.156 152.043 117.083 152 116.99C149.52 112.057 145.413 109.783 139.68 110.17C139.5 110.177 139.38 110.097 139.32 109.93C139.28 109.843 139.247 109.753 139.22 109.66C139.214 109.639 139.213 109.617 139.215 109.595C139.218 109.574 139.226 109.553 139.237 109.534C139.248 109.515 139.263 109.499 139.281 109.486C139.299 109.474 139.319 109.465 139.34 109.46C143.273 108.573 146.933 109.153 150.32 111.2C150.647 111.393 151 111.477 151.38 111.45C157.23 111 158.74 115.3 160.92 119.53C161.013 119.717 161.037 119.87 160.99 119.99C160.903 120.25 160.783 120.267 160.63 120.04C158.78 117.38 156.6 114.02 153.04 113.84C152.958 113.836 152.876 113.85 152.8 113.882C152.724 113.914 152.656 113.962 152.602 114.024C152.547 114.085 152.507 114.158 152.484 114.237C152.461 114.316 152.456 114.399 152.47 114.48Z" fill="#0F1010" fill-opacity="0.996"/>
</g>
<defs>
<clipPath id="clip0_31_450">
<rect width="211" height="205" fill="white"/>
</clipPath>
</defs>
</svg>
