<svg width="212" height="65" viewBox="0 0 212 65" fill="none" xmlns="http://www.w3.org/2000/svg">
<g id="Frame 55">
<rect width="211.193" height="64.3881" rx="32.194" fill="white"/>
<g id="Icon">
<g id="Vector">
<path d="M51.0673 30.9035C51.025 26.3153 54.9205 24.0831 55.0986 23.9792C52.8924 20.843 49.4729 20.4145 48.2712 20.3803C45.3992 20.0856 42.6133 22.0559 41.1503 22.0559C39.6581 22.0559 37.4052 20.4088 34.977 20.4572C31.8524 20.5042 28.9293 22.268 27.3261 25.007C24.0175 30.5918 26.4851 38.7988 29.6549 43.313C31.2406 45.5239 33.0935 47.9924 35.5187 47.9055C37.8914 47.8102 38.7776 46.4307 41.6409 46.4307C44.4779 46.4307 45.3101 47.9055 47.7835 47.85C50.3299 47.8102 51.9331 45.6292 53.4633 43.3984C55.2957 40.8644 56.0316 38.3689 56.0608 38.2407C56.001 38.2208 51.1155 36.4029 51.0673 30.9035Z" fill="#121212"/>
<path d="M46.395 17.4107C47.6711 15.8547 48.5442 13.7378 48.3019 11.5896C46.4548 11.6693 44.145 12.8352 42.8148 14.3571C41.638 15.6981 40.5867 17.8961 40.8583 19.9632C42.9331 20.1141 45.0634 18.9425 46.395 17.4107Z" fill="#121212"/>
</g>
</g>
<g id="Download on the">
<path id="D" d="M78.6958 16.9884C78.6958 18.664 78.1803 19.9253 77.151 20.7724C76.1975 21.5539 74.8426 21.9454 73.0875 21.9454C72.2173 21.9454 71.4726 21.9084 70.8492 21.8344V12.6792C71.6625 12.5511 72.5385 12.4856 73.4847 12.4856C75.1565 12.4856 76.4165 12.8401 77.2663 13.549C78.2183 14.3505 78.6958 15.4965 78.6958 16.9884ZM77.0824 17.0297C77.0824 15.9435 76.7874 15.1107 76.1975 14.5299C75.6077 13.9505 74.7462 13.6601 73.6117 13.6601C73.1299 13.6601 72.7196 13.6914 72.3794 13.7569V20.7168C72.5677 20.7453 72.9123 20.7581 73.4131 20.7581C74.5841 20.7581 75.4879 20.4407 76.1245 19.8057C76.7611 19.1708 77.0824 18.2455 77.0824 17.0297Z" fill="#121212"/>
<path id="o" d="M87.2504 18.4519C87.2504 19.484 86.9481 20.3297 86.3437 20.9931C85.71 21.675 84.8704 22.0152 83.8221 22.0152C82.8117 22.0152 82.0072 21.6892 81.4071 21.0343C80.8084 20.3809 80.5091 19.5567 80.5091 18.563C80.5091 17.5238 80.8172 16.671 81.4363 16.0091C82.0554 15.3471 82.8876 15.0154 83.936 15.0154C84.9464 15.0154 85.7582 15.3414 86.3729 15.9948C86.9569 16.6297 87.2504 17.4497 87.2504 18.4519ZM85.6633 18.5003C85.6633 17.8811 85.526 17.3501 85.253 16.9073C84.9318 16.3721 84.4747 16.1044 83.8805 16.1044C83.2658 16.1044 82.7985 16.3721 82.4773 16.9073C82.2028 17.3501 82.067 17.8896 82.067 18.5274C82.067 19.1467 82.2043 19.6777 82.4773 20.1204C82.8088 20.6557 83.2702 20.9233 83.8659 20.9233C84.4499 20.9233 84.9084 20.6514 85.2384 20.1062C85.5216 19.6549 85.6633 19.1196 85.6633 18.5003Z" fill="#121212"/>
<path id="w" d="M98.7211 15.1523L96.5674 21.8632H95.1657L94.2736 18.9491C94.0473 18.2216 93.8633 17.4984 93.7202 16.7809H93.6925C93.5596 17.5184 93.3756 18.2401 93.1391 18.9491L92.1915 21.8632H90.7737L88.7486 15.1523H90.3211L91.0993 18.3426C91.2877 19.0971 91.4425 19.816 91.5666 20.4965H91.5943C91.7082 19.9356 91.8966 19.221 92.1623 18.3569L93.1391 15.1538H94.386L95.322 18.2885C95.5483 19.053 95.7322 19.789 95.8739 20.4979H95.9162C96.0199 19.8075 96.1761 19.0715 96.3834 18.2885L97.2186 15.1538H98.7211V15.1523Z" fill="#121212"/>
<path id="n" d="M106.654 21.8625H105.124V18.0188C105.124 16.8344 104.662 16.2422 103.736 16.2422C103.282 16.2422 102.916 16.4044 102.631 16.7304C102.349 17.0565 102.206 17.4408 102.206 17.8807V21.8611H100.676V17.0693C100.676 16.4799 100.657 15.8407 100.621 15.1488H101.965L102.037 16.198H102.079C102.257 15.872 102.523 15.603 102.872 15.388C103.287 15.1374 103.751 15.0107 104.259 15.0107C104.902 15.0107 105.436 15.2129 105.861 15.6186C106.389 16.1155 106.654 16.8571 106.654 17.8423V21.8625Z" fill="#121212"/>
<path id="l" d="M110.873 21.8633H109.345V12.0732H110.873V21.8633Z" fill="#121212"/>
<path id="o_2" d="M119.882 18.4519C119.882 19.484 119.58 20.3297 118.976 20.9931C118.342 21.675 117.501 22.0152 116.454 22.0152C115.442 22.0152 114.638 21.6892 114.039 21.0343C113.44 20.3809 113.141 19.5567 113.141 18.563C113.141 17.5238 113.449 16.671 114.068 16.0091C114.687 15.3471 115.519 15.0154 116.566 15.0154C117.578 15.0154 118.389 15.3414 119.005 15.9948C119.589 16.6297 119.882 17.4497 119.882 18.4519ZM118.294 18.5003C118.294 17.8811 118.156 17.3501 117.883 16.9073C117.564 16.3721 117.105 16.1044 116.512 16.1044C115.896 16.1044 115.429 16.3721 115.109 16.9073C114.835 17.3501 114.699 17.8896 114.699 18.5274C114.699 19.1467 114.836 19.6777 115.109 20.1204C115.441 20.6557 115.902 20.9233 116.498 20.9233C117.082 20.9233 117.539 20.6514 117.869 20.1062C118.153 19.6549 118.294 19.1196 118.294 18.5003Z" fill="#121212"/>
<path id="a" d="M127.288 21.8629H125.914L125.8 21.0899H125.758C125.287 21.7063 124.617 22.0152 123.747 22.0152C123.097 22.0152 122.572 21.8116 122.176 21.4073C121.817 21.04 121.637 20.5831 121.637 20.0407C121.637 19.2207 121.988 18.5957 122.693 18.163C123.397 17.7302 124.387 17.5181 125.661 17.528V17.4028C125.661 16.5187 125.185 16.0774 124.232 16.0774C123.553 16.0774 122.954 16.2439 122.437 16.5742L122.126 15.5948C122.766 15.209 123.556 15.0154 124.487 15.0154C126.286 15.0154 127.188 15.9407 127.188 17.7914V20.2628C127.188 20.9333 127.222 21.4671 127.288 21.8629ZM125.699 19.5567V18.5217C124.011 18.4932 123.167 18.9445 123.167 19.8741C123.167 20.2243 123.264 20.4863 123.461 20.6614C123.658 20.8365 123.909 20.9233 124.208 20.9233C124.544 20.9233 124.858 20.8194 125.144 20.613C125.432 20.4051 125.609 20.1417 125.674 19.8186C125.69 19.746 125.699 19.6577 125.699 19.5567Z" fill="#121212"/>
<path id="d" d="M135.983 21.8633H134.625L134.553 20.7857H134.511C134.077 21.6056 133.338 22.0156 132.3 22.0156C131.471 22.0156 130.78 21.6982 130.233 21.0633C129.685 20.4283 129.412 19.6041 129.412 18.5919C129.412 17.5057 129.709 16.6259 130.304 15.954C130.881 15.3276 131.588 15.0144 132.429 15.0144C133.353 15.0144 134 15.3176 134.368 15.9255H134.397V12.0732H135.929V20.0553C135.929 20.7088 135.946 21.311 135.983 21.8633ZM134.397 19.0332V17.9143C134.397 17.7206 134.382 17.5641 134.355 17.4445C134.269 17.0857 134.083 16.7839 133.801 16.5405C133.517 16.2971 133.173 16.1746 132.778 16.1746C132.207 16.1746 131.76 16.3953 131.432 16.838C131.106 17.2808 130.941 17.8459 130.941 18.5364C130.941 19.1998 131.097 19.7379 131.411 20.1522C131.743 20.5935 132.189 20.8141 132.749 20.8141C133.251 20.8141 133.652 20.6305 133.958 20.2618C134.252 19.9215 134.397 19.5115 134.397 19.0332Z" fill="#121212"/>
<path id="o_3" d="M149.07 18.4519C149.07 19.484 148.767 20.3297 148.163 20.9931C147.529 21.675 146.691 22.0152 145.641 22.0152C144.632 22.0152 143.828 21.6892 143.226 21.0343C142.628 20.3809 142.328 19.5567 142.328 18.563C142.328 17.5238 142.636 16.671 143.255 16.0091C143.875 15.3471 144.707 15.0154 145.757 15.0154C146.766 15.0154 147.579 15.3414 148.192 15.9948C148.776 16.6297 149.07 17.4497 149.07 18.4519ZM147.484 18.5003C147.484 17.8811 147.347 17.3501 147.074 16.9073C146.751 16.3721 146.295 16.1044 145.7 16.1044C145.086 16.1044 144.619 16.3721 144.296 16.9073C144.022 17.3501 143.886 17.8896 143.886 18.5274C143.886 19.1467 144.023 19.6777 144.296 20.1204C144.628 20.6557 145.089 20.9233 145.685 20.9233C146.269 20.9233 146.729 20.6514 147.059 20.1062C147.341 19.6549 147.484 19.1196 147.484 18.5003Z" fill="#121212"/>
<path id="n_2" d="M157.297 21.8625H155.769V18.0188C155.769 16.8344 155.307 16.2422 154.38 16.2422C153.926 16.2422 153.559 16.4044 153.276 16.7304C152.993 17.0565 152.851 17.4408 152.851 17.8807V21.8611H151.32V17.0693C151.32 16.4799 151.302 15.8407 151.266 15.1488H152.609L152.68 16.198H152.723C152.902 15.872 153.168 15.603 153.516 15.388C153.932 15.1374 154.395 15.0107 154.904 15.0107C155.545 15.0107 156.08 15.2129 156.504 15.6186C157.034 16.1155 157.297 16.8571 157.297 17.8423V21.8625Z" fill="#121212"/>
<path id="t" d="M167.595 16.2693H165.91V19.5293C165.91 20.3579 166.21 20.7721 166.803 20.7721C167.077 20.7721 167.305 20.7494 167.484 20.7024L167.524 21.8341C167.222 21.9452 166.824 22.0007 166.335 22.0007C165.731 22.0007 165.261 21.8213 164.92 21.4626C164.579 21.1038 164.409 20.5002 164.409 19.6532V16.2693H163.403V15.1518H164.409V13.9218L165.909 13.4805V15.1503H167.594V16.2693H167.595Z" fill="#121212"/>
<path id="h" d="M175.696 21.8633H174.164V18.0481C174.164 16.8451 173.703 16.243 172.779 16.243C172.069 16.243 171.584 16.5917 171.319 17.2893C171.273 17.4359 171.247 17.6153 171.247 17.826V21.8619H169.718V12.0732H171.247V16.1177H171.276C171.758 15.3817 172.449 15.0144 173.344 15.0144C173.977 15.0144 174.502 15.2165 174.918 15.6223C175.436 16.1276 175.696 16.8793 175.696 17.873V21.8633Z" fill="#121212"/>
<path id="e" d="M184.052 18.1904C184.052 18.458 184.032 18.6829 183.995 18.8666H179.406C179.426 19.53 179.645 20.0353 180.07 20.3855C180.459 20.6987 180.959 20.8553 181.573 20.8553C182.252 20.8553 182.871 20.75 183.428 20.5379L183.668 21.5742C183.015 21.8504 182.247 21.9885 181.358 21.9885C180.292 21.9885 179.453 21.6824 178.845 21.0703C178.235 20.4582 177.933 19.6367 177.933 18.6061C177.933 17.5939 178.214 16.7511 178.782 16.0792C179.375 15.3617 180.177 15.0029 181.189 15.0029C182.179 15.0029 182.931 15.3617 183.439 16.0792C183.849 16.6486 184.052 17.3533 184.052 18.1904ZM182.592 17.8046C182.604 17.3618 182.503 16.9803 182.295 16.6586C182.03 16.2443 181.625 16.0365 181.078 16.0365C180.578 16.0365 180.171 16.2386 179.86 16.6443C179.606 16.9675 179.456 17.3533 179.406 17.8046H182.592Z" fill="#121212"/>
</g>
<g id="App Store">
<path id="A" d="M85.4048 47.5883H82.089L80.2726 42.0235H73.9591L72.2289 47.5883H69.0006L75.2557 28.6431H79.1191L85.4048 47.5883ZM79.7251 39.6888L78.0824 34.7418C77.9087 34.2364 77.5831 33.0463 77.1027 31.1728H77.0443C76.853 31.9786 76.545 33.1687 76.1215 34.7418L74.5081 39.6888H79.7251Z" fill="#121212"/>
<path id="p" d="M101.491 40.5911C101.491 42.9144 100.847 44.7508 99.5589 46.099C98.4055 47.2991 96.9731 47.8984 95.2633 47.8984C93.4178 47.8984 92.092 47.2521 91.2846 45.9595H91.2262V53.1557H88.1132V38.4258C88.1132 36.9652 88.0738 35.4661 87.9979 33.9286H90.7356L90.9093 36.0939H90.9677C92.0058 34.4625 93.5813 33.6482 95.6955 33.6482C97.3483 33.6482 98.7281 34.2845 99.832 35.5587C100.939 36.8342 101.491 38.5112 101.491 40.5911ZM98.3193 40.7021C98.3193 39.3725 98.0127 38.2763 97.3965 37.4136C96.7234 36.5139 95.8196 36.064 94.6866 36.064C93.9186 36.064 93.2206 36.3146 92.5972 36.8086C91.9723 37.3068 91.5634 37.9574 91.3722 38.7632C91.2758 39.139 91.2276 39.4465 91.2276 39.6885V41.9663C91.2276 42.9599 91.5401 43.7984 92.165 44.4832C92.7899 45.1679 93.6017 45.5096 94.6004 45.5096C95.7729 45.5096 96.6855 45.0683 97.3381 44.1885C97.9923 43.3073 98.3193 42.1456 98.3193 40.7021Z" fill="#121212"/>
<path id="p_2" d="M117.606 40.5911C117.606 42.9144 116.962 44.7508 115.673 46.099C114.521 47.2991 113.088 47.8984 111.378 47.8984C109.533 47.8984 108.207 47.2521 107.401 45.9595H107.343V53.1557H104.23V38.4258C104.23 36.9652 104.19 35.4661 104.114 33.9286H106.852L107.026 36.0939H107.084C108.121 34.4625 109.696 33.6482 111.812 33.6482C113.463 33.6482 114.843 34.2845 115.95 35.5587C117.052 36.8342 117.606 38.5112 117.606 40.5911ZM114.434 40.7021C114.434 39.3725 114.126 38.2763 113.51 37.4136C112.837 36.5139 111.936 36.064 110.802 36.064C110.032 36.064 109.336 36.3146 108.711 36.8086C108.086 37.3068 107.679 37.9574 107.487 38.7632C107.392 39.139 107.343 39.4465 107.343 39.6885V41.9663C107.343 42.9599 107.655 43.7984 108.277 44.4832C108.902 45.1665 109.714 45.5096 110.716 45.5096C111.888 45.5096 112.801 45.0683 113.453 44.1885C114.107 43.3073 114.434 42.1456 114.434 40.7021Z" fill="#121212"/>
<path id="S" d="M135.624 42.2762C135.624 43.8877 135.05 45.1988 133.898 46.211C132.632 47.3171 130.87 47.8695 128.605 47.8695C126.514 47.8695 124.838 47.4766 123.569 46.6893L124.29 44.1596C125.657 44.9653 127.156 45.3696 128.79 45.3696C129.963 45.3696 130.875 45.1106 131.531 44.5952C132.184 44.0799 132.509 43.388 132.509 42.5253C132.509 41.7566 132.241 41.1088 131.702 40.5835C131.166 40.0582 130.271 39.5699 129.021 39.1186C125.619 37.8815 123.919 36.0693 123.919 33.6862C123.919 32.1288 124.515 30.8518 125.708 29.8581C126.897 28.863 128.482 28.3662 130.465 28.3662C132.233 28.3662 133.702 28.6666 134.875 29.2659L134.096 31.7401C133.001 31.1593 131.763 30.8689 130.377 30.8689C129.282 30.8689 128.427 31.1323 127.814 31.6561C127.295 32.1245 127.035 32.6954 127.035 33.3716C127.035 34.1204 127.332 34.7397 127.927 35.2265C128.446 35.6764 129.388 36.1633 130.754 36.6886C132.426 37.3448 133.654 38.1122 134.444 38.9919C135.231 39.8689 135.624 40.9665 135.624 42.2762Z" fill="#121212"/>
<path id="t_2" d="M145.916 36.2057H142.485V42.8383C142.485 44.5252 143.089 45.368 144.301 45.368C144.857 45.368 145.319 45.321 145.684 45.2271L145.77 47.5319C145.157 47.7554 144.349 47.8678 143.349 47.8678C142.12 47.8678 141.159 47.502 140.465 46.7717C139.775 46.0399 139.427 44.8128 139.427 43.0888V36.2029H137.383V33.9251H139.427V31.4239L142.485 30.5242V33.9251H145.916V36.2057Z" fill="#121212"/>
<path id="o_4" d="M161.397 40.6457C161.397 42.7455 160.781 44.4694 159.552 45.8176C158.262 47.2056 156.551 47.8975 154.418 47.8975C152.362 47.8975 150.725 47.2326 149.505 45.903C148.284 44.5734 147.674 42.8949 147.674 40.872C147.674 38.7551 148.302 37.0212 149.562 35.673C150.819 34.3235 152.515 33.6487 154.649 33.6487C156.704 33.6487 158.359 34.3135 159.607 35.6446C160.801 36.9358 161.397 38.6028 161.397 40.6457ZM158.167 40.7439C158.167 39.484 157.891 38.4035 157.332 37.5024C156.68 36.4119 155.747 35.8681 154.538 35.8681C153.286 35.8681 152.336 36.4133 151.683 37.5024C151.124 38.4049 150.848 39.5025 150.848 40.8008C150.848 42.0607 151.124 43.1412 151.683 44.0409C152.356 45.1314 153.297 45.6752 154.51 45.6752C155.698 45.6752 156.631 45.12 157.305 44.0125C157.878 43.0942 158.167 42.0023 158.167 40.7439Z" fill="#121212"/>
<path id="r" d="M171.516 36.5979C171.207 36.5424 170.879 36.5139 170.534 36.5139C169.439 36.5139 168.592 36.9168 167.997 37.7239C167.478 38.4357 167.218 39.3355 167.218 40.4217V47.5895H164.107L164.136 38.2308C164.136 36.6563 164.097 35.2227 164.019 33.9301H166.731L166.845 36.5438H166.931C167.259 35.6455 167.778 34.9223 168.487 34.3799C169.181 33.8916 169.93 33.6482 170.737 33.6482C171.025 33.6482 171.285 33.6681 171.516 33.7037V36.5979Z" fill="#121212"/>
<path id="e_2" d="M185.438 40.1125C185.438 40.6563 185.401 41.1147 185.324 41.4891H175.985C176.022 42.8387 176.473 43.8708 177.34 44.5826C178.127 45.2189 179.145 45.5378 180.395 45.5378C181.777 45.5378 183.039 45.3229 184.173 44.8915L184.661 46.9984C183.335 47.5622 181.77 47.8426 179.964 47.8426C177.791 47.8426 176.086 47.2191 174.845 45.9734C173.607 44.7278 172.986 43.0551 172.986 40.9567C172.986 38.8967 173.563 37.1813 174.718 35.8132C175.927 34.3526 177.561 33.6223 179.616 33.6223C181.636 33.6223 183.164 34.3526 184.203 35.8132C185.025 36.9735 185.438 38.4084 185.438 40.1125ZM182.469 39.3252C182.49 38.4255 182.287 37.6482 181.865 36.992C181.326 36.1478 180.498 35.7264 179.384 35.7264C178.367 35.7264 177.539 36.1378 176.906 36.9635C176.388 37.6198 176.08 38.407 175.985 39.3238H182.469V39.3252Z" fill="#121212"/>
</g>
</g>
</svg>
