<svg width="212" height="65" viewBox="0 0 212 65" fill="none" xmlns="http://www.w3.org/2000/svg">
<g id="Frame 56">
<rect x="0.807159" width="211.193" height="64.3881" rx="32.194" fill="white"/>
<g id="Icon">
<path id="Vector" d="M25.924 14.4419C25.5126 14.8618 25.2745 15.5156 25.2745 16.3622V46.5622C25.2745 47.4088 25.5126 48.0626 25.924 48.4825L26.0256 48.5747L43.3825 31.6585V31.2591L26.0256 14.3429L25.924 14.4419Z" fill="url(#paint0_linear_31_410)"/>
<path id="Vector_2" d="M49.1617 37.2998L43.3825 31.6582V31.2588L49.1687 25.6172L49.2983 25.6906L56.1507 29.4921C58.1063 30.5709 58.1063 32.3461 56.1507 33.4318L49.2983 37.2264L49.1617 37.2998Z" fill="url(#paint1_linear_31_410)"/>
<path id="Vector_3" d="M49.2982 37.2264L43.3824 31.4585L25.9239 48.4822C26.5734 49.1479 27.6326 49.2282 28.8371 48.5625L49.2982 37.2264Z" fill="url(#paint2_linear_31_410)"/>
<path id="Vector_4" d="M49.2982 25.6906L28.8371 14.3545C27.6326 13.6956 26.5734 13.7759 25.9239 14.4416L43.3824 31.4585L49.2982 25.6906Z" fill="url(#paint3_linear_31_410)"/>
</g>
<g id="GET IT ON">
<path id="G" d="M77.7222 18.1355C77.7222 19.2757 77.372 20.189 76.6822 20.87C75.8891 21.6775 74.8562 22.0837 73.5904 22.0837C72.3806 22.0837 71.3477 21.6706 70.5003 20.8564C69.6512 20.0302 69.2275 19.0163 69.2275 17.8026C69.2275 16.5889 69.6512 15.575 70.5003 14.7556C71.3477 13.9346 72.3806 13.5215 73.5904 13.5215C74.1926 13.5215 74.7669 13.6427 75.3149 13.868C75.8611 14.095 76.3058 14.4023 76.6279 14.7812L75.8961 15.5016C75.3341 14.8546 74.5691 14.5354 73.5904 14.5354C72.708 14.5354 71.9429 14.8359 71.2934 15.4418C70.6509 16.0495 70.3287 16.8364 70.3287 17.8026C70.3287 18.7688 70.6509 19.5625 71.2934 20.1702C71.9429 20.7693 72.708 21.0766 73.5904 21.0766C74.527 21.0766 75.3149 20.7693 75.9364 20.1634C76.3461 19.7622 76.5789 19.2092 76.6402 18.5025H73.5904V17.5158H77.6591C77.7082 17.7292 77.7222 17.9357 77.7222 18.1355Z" fill="#121212" stroke="#121212" stroke-width="0.0560241" stroke-miterlimit="10"/>
<path id="E" d="M84.1771 14.7149H80.3552V17.3095H83.8007V18.2961H80.3552V20.8907H84.1771V21.8962H79.2732V13.7095H84.1771V14.7149Z" fill="#121212" stroke="#121212" stroke-width="0.0560241" stroke-miterlimit="10"/>
<path id="T" d="M88.7327 21.8962H87.6507V14.7149H85.3065V13.7095H91.0787V14.7149H88.7327V21.8962Z" fill="#121212" stroke="#121212" stroke-width="0.0560241" stroke-miterlimit="10"/>
<path id="I" d="M95.256 21.8962V13.7095H96.3362V21.8962H95.256Z" fill="#121212" stroke="#121212" stroke-width="0.0560241" stroke-miterlimit="10"/>
<path id="T_2" d="M101.124 21.8962H100.051V14.7149H97.6982V13.7095H103.477V14.7149H101.124V21.8962Z" fill="#121212" stroke="#121212" stroke-width="0.0560241" stroke-miterlimit="10"/>
<path id="O" d="M114.406 20.8427C113.578 21.6706 112.552 22.0837 111.328 22.0837C110.097 22.0837 109.071 21.6706 108.243 20.8427C107.417 20.0166 107.005 19.0026 107.005 17.8026C107.005 16.6026 107.417 15.5886 108.243 14.7625C109.071 13.9346 110.097 13.5215 111.328 13.5215C112.545 13.5215 113.571 13.9346 114.399 14.7693C115.232 15.6023 115.643 16.6094 115.643 17.8026C115.643 19.0026 115.232 20.0166 114.406 20.8427ZM109.043 20.1565C109.666 20.7693 110.424 21.0766 111.328 21.0766C112.224 21.0766 112.989 20.7693 113.606 20.1565C114.227 19.5437 114.542 18.7568 114.542 17.8026C114.542 16.8484 114.227 16.0615 113.606 15.4487C112.989 14.8359 112.224 14.5286 111.328 14.5286C110.424 14.5286 109.666 14.8359 109.043 15.4487C108.422 16.0615 108.107 16.8484 108.107 17.8026C108.107 18.7568 108.422 19.5437 109.043 20.1565Z" fill="#121212" stroke="#121212" stroke-width="0.0560241" stroke-miterlimit="10"/>
<path id="N" d="M117.161 21.8962V13.7095H118.474L122.557 20.0765H122.604L122.557 18.5027V13.7095H123.637V21.8962H122.51L118.235 15.215H118.187L118.235 16.7957V21.8962H117.161Z" fill="#121212" stroke="#121212" stroke-width="0.0560241" stroke-miterlimit="10"/>
</g>
<g id="Google Play">
<path id="Google Play_2" d="M106.739 33.8518C103.449 33.8518 100.762 36.2928 100.762 39.6606C100.762 43.0012 103.449 45.4678 106.739 45.4678C110.036 45.4678 112.723 43.0012 112.723 39.6606C112.723 36.2928 110.036 33.8518 106.739 33.8518ZM106.739 43.1804C104.934 43.1804 103.381 41.7278 103.381 39.6606C103.381 37.5662 104.934 36.1391 106.739 36.1391C108.544 36.1391 110.104 37.5662 110.104 39.6606C110.104 41.7278 108.544 43.1804 106.739 43.1804ZM93.6975 33.8518C90.4009 33.8518 87.7205 36.2928 87.7205 39.6606C87.7205 43.0012 90.4009 45.4678 93.6975 45.4678C96.9925 45.4678 99.6746 43.0012 99.6746 39.6606C99.6746 36.2928 96.9925 33.8518 93.6975 33.8518ZM93.6975 43.1804C91.8908 43.1804 90.3326 41.7278 90.3326 39.6606C90.3326 37.5662 91.8908 36.1391 93.6975 36.1391C95.5026 36.1391 97.0555 37.5662 97.0555 39.6606C97.0555 41.7278 95.5026 43.1804 93.6975 43.1804ZM78.1789 35.6321V38.1004H84.2242C84.0474 39.4797 83.5747 40.4936 82.8499 41.2003C81.9675 42.0538 80.5932 43.0012 78.1789 43.0012C74.4585 43.0012 71.5453 40.0737 71.5453 36.4464C71.5453 32.819 74.4585 29.8916 78.1789 29.8916C80.1905 29.8916 81.6541 30.658 82.7343 31.6515L84.5184 29.912C83.0075 28.5055 80.9976 27.425 78.1789 27.425C73.0772 27.425 68.7896 31.4722 68.7896 36.4464C68.7896 41.4205 73.0772 45.4678 78.1789 45.4678C80.9363 45.4678 83.0075 44.587 84.6357 42.9346C86.3041 41.3079 86.8241 39.0205 86.8241 37.1736C86.8241 36.6 86.7751 36.0725 86.6875 35.6321H78.1789ZM141.637 37.5457C141.145 36.2467 139.627 33.8518 136.535 33.8518C133.471 33.8518 130.92 36.2057 130.92 39.6606C130.92 42.9141 133.445 45.4678 136.829 45.4678C139.565 45.4678 141.145 43.841 141.794 42.8937L139.763 41.5742C139.086 42.5403 138.163 43.1804 136.829 43.1804C135.504 43.1804 134.553 42.5881 133.944 41.4205L141.912 38.2063L141.637 37.5457ZM133.513 39.4797C133.445 37.2401 135.297 36.093 136.624 36.093C137.664 36.093 138.547 36.6 138.841 37.3255L133.513 39.4797ZM127.037 45.1144H129.656V28.0446H127.037V45.1144ZM122.748 35.1457H122.66C122.072 34.4663 120.95 33.8518 119.528 33.8518C116.545 33.8518 113.817 36.4054 113.817 39.6794C113.817 42.9346 116.545 45.4678 119.528 45.4678C120.95 45.4678 122.072 44.8481 122.66 44.1483H122.748V44.9813C122.748 47.2021 121.531 48.3953 119.568 48.3953C117.968 48.3953 116.976 47.2687 116.566 46.3213L114.288 47.2482C114.945 48.7879 116.683 50.6826 119.568 50.6826C122.639 50.6826 125.23 48.921 125.23 44.6348V34.2051H122.748V35.1457ZM119.752 43.1804C117.947 43.1804 116.436 41.7073 116.436 39.6794C116.436 37.6327 117.947 36.1391 119.752 36.1391C121.531 36.1391 122.933 37.6327 122.933 39.6794C122.933 41.7073 121.531 43.1804 119.752 43.1804ZM153.899 28.0446H147.635V45.1144H150.247V38.6467H153.899C156.8 38.6467 159.645 36.6 159.645 33.3448C159.645 30.0913 156.793 28.0446 153.899 28.0446ZM153.967 36.2723H150.247V30.419H153.967C155.918 30.419 157.031 31.998 157.031 33.3448C157.031 34.666 155.918 36.2723 153.967 36.2723ZM170.114 33.8193C168.227 33.8193 166.264 34.6319 165.457 36.4327L167.775 37.3801C168.274 36.4327 169.192 36.1255 170.162 36.1255C171.517 36.1255 172.891 36.9192 172.912 38.3206V38.4999C172.439 38.2336 171.427 37.8393 170.183 37.8393C167.686 37.8393 165.142 39.1793 165.142 41.68C165.142 43.9673 167.187 45.4405 169.486 45.4405C171.244 45.4405 172.214 44.6672 172.823 43.7676H172.912V45.0871H175.435V38.5391C175.435 35.5127 173.117 33.8193 170.114 33.8193ZM169.799 43.1736C168.945 43.1736 167.754 42.7605 167.754 41.7278C167.754 40.4066 169.239 39.8996 170.524 39.8996C171.674 39.8996 172.214 40.1471 172.912 40.4732C172.707 42.0538 171.312 43.1736 169.799 43.1736ZM184.626 34.1932L181.624 41.5929H181.535L178.43 34.1932H175.613L180.277 44.5341L177.616 50.2883H180.346L187.533 34.1932H184.626ZM161.08 45.1144H163.7V28.0446H161.08V45.1144Z" fill="#121212"/>
</g>
</g>
<defs>
<linearGradient id="paint0_linear_31_410" x1="41.8414" y1="46.8767" x2="18.931" y2="23.3788" gradientUnits="userSpaceOnUse">
<stop stop-color="#00A0FF"/>
<stop offset="0.0066" stop-color="#00A1FF"/>
<stop offset="0.2601" stop-color="#00BEFF"/>
<stop offset="0.5122" stop-color="#00D2FF"/>
<stop offset="0.7604" stop-color="#00DFFF"/>
<stop offset="1" stop-color="#00E3FF"/>
</linearGradient>
<linearGradient id="paint1_linear_31_410" x1="58.6972" y1="31.4566" x2="24.807" y2="31.4566" gradientUnits="userSpaceOnUse">
<stop stop-color="#FFE000"/>
<stop offset="0.4087" stop-color="#FFBD00"/>
<stop offset="0.7754" stop-color="#FFA500"/>
<stop offset="1" stop-color="#FF9C00"/>
</linearGradient>
<linearGradient id="paint2_linear_31_410" x1="46.0813" y1="28.323" x2="15.0129" y2="-3.54215" gradientUnits="userSpaceOnUse">
<stop stop-color="#FF3A44"/>
<stop offset="1" stop-color="#C31162"/>
</linearGradient>
<linearGradient id="paint3_linear_31_410" x1="21.5292" y1="58.5296" x2="35.4027" y2="44.3006" gradientUnits="userSpaceOnUse">
<stop stop-color="#32A071"/>
<stop offset="0.0685" stop-color="#2DA771"/>
<stop offset="0.4762" stop-color="#15CF74"/>
<stop offset="0.8009" stop-color="#06E775"/>
<stop offset="1" stop-color="#00F076"/>
</linearGradient>
</defs>
</svg>
