<svg width="240" height="184" viewBox="0 0 240 184" fill="none" xmlns="http://www.w3.org/2000/svg">
<g id="Mask group 1">
<path id="Vector" d="M96.8678 60.375C109.854 74.3893 124.071 75.5036 142.039 76.4893C156.246 77.2679 170.596 74.6893 185.089 68.7536C202.596 61.575 207.729 46.3072 209.721 28.5858C209.786 28.0278 210.04 27.5089 210.442 27.1167C210.844 26.7244 211.369 26.4827 211.929 26.4322C212.436 26.3822 212.886 26.9608 213.279 28.1679C218.957 45.5393 215.979 60.7929 204.343 73.9286C202.511 76.0072 201.879 76.7893 202.607 79.7357C205.457 91.1357 205.404 98.0679 202.414 109.264C202.324 109.603 202.358 109.963 202.511 110.282C206.614 118.854 210.975 127.746 212.636 136.896C214.95 149.721 189.15 153.696 189.621 144.814C189.932 139.029 199.339 138.707 198.182 133.146C198.096 132.746 197.893 132.421 197.571 132.171L194.904 130.082C194.808 130.007 194.697 129.953 194.578 129.927C194.46 129.9 194.336 129.901 194.217 129.929C194.098 129.956 193.986 130.011 193.89 130.087C193.793 130.164 193.715 130.261 193.661 130.371C189.846 138.171 185.207 149.507 175.254 150.546C171.439 150.954 159.493 151.232 161.207 144.15C162.814 137.529 174.171 140.861 176.154 133.318C176.839 130.704 175.543 129.546 173.186 128.625C166.764 126.111 160.711 122.796 155.025 118.682C154.745 118.479 154.412 118.364 154.067 118.351C153.721 118.337 153.38 118.426 153.086 118.607C143.636 124.414 133.325 127.179 122.154 126.9C116.539 126.75 110.271 124.854 104.529 123.493C104.418 123.469 104.303 123.477 104.198 123.517C104.092 123.556 104 123.625 103.932 123.715C103.864 123.805 103.824 123.913 103.816 124.026C103.808 124.138 103.832 124.251 103.886 124.35C106.254 128.518 110.421 136.007 109.811 140.732C109.039 146.796 100.554 153.471 94.3499 152.4C85.1999 150.825 90.7714 143.079 93.6535 139.039C94.1634 138.325 94.3994 137.451 94.3188 136.576C94.2382 135.702 93.8463 134.884 93.2142 134.271L81.6857 123.139C81.6351 123.096 81.5764 123.063 81.5134 123.045C81.4505 123.026 81.385 123.022 81.3214 123.032C79.3571 123.389 78.4464 124.546 78.5892 126.504C78.6178 126.861 78.5071 127.168 78.2571 127.425C75.6642 130.189 72.8785 131.282 69.5785 132.889C68.9571 133.189 68.3464 133.182 67.7464 132.868C67.5631 132.775 67.3549 132.742 67.1521 132.776C66.9492 132.809 66.7623 132.907 66.6188 133.054C66.4752 133.201 66.3824 133.39 66.354 133.594C66.3255 133.798 66.3629 134.005 66.4607 134.186C70.4678 141.439 60.6 146.111 56.4857 138.814C53.9 134.229 52.9928 129.579 53.7642 124.864C53.8214 124.514 53.7964 124.171 53.6892 123.836C52.425 119.711 60.6535 114.964 64.1357 113.154C64.5 112.968 64.875 112.936 65.2607 113.057L66.0857 113.314C66.4214 113.421 66.6857 113.325 66.8785 113.025C69.7178 108.707 65.2607 105.139 63.4607 101.325C60.4928 95.0465 57.3964 85.8858 49.8321 84.1179C38.5928 81.4822 27.9857 76.95 24.4928 65.3465C23.7642 62.925 24.4392 61.5 26.5178 61.0715C30.2178 60.2929 33.95 59.7286 37.7142 59.3786C38.0785 59.3429 38.4 59.2143 38.6785 58.9929C44.3464 54.5036 48.675 36.7179 59.025 45.5572C59.2821 45.7715 59.575 45.8608 59.9035 45.825C65.3678 45.2608 70.7678 45.6143 76.1035 46.8858C76.4535 46.9715 76.7714 46.9036 77.0571 46.6822C84.4178 40.8536 90.6857 49.6715 93.2678 55.6072C94.2214 57.8036 95.3357 58.725 96.8678 60.375ZM45.8678 75.225C45.8035 75.5393 45.6 75.7286 45.2571 75.7929C41.6428 76.4286 37.9821 76.1786 34.275 75.0429C33.8107 74.9 33.5392 74.8715 33.4607 74.9572C33.3924 75.0323 33.342 75.1219 33.3132 75.219C33.2844 75.3162 33.278 75.4183 33.2946 75.5177C33.3111 75.617 33.3501 75.7108 33.4087 75.792C33.4672 75.8731 33.5436 75.9394 33.6321 75.9857C39.5392 79.1429 45.6285 81.5179 51.9 83.1107C58.4571 84.7822 61.8428 94.3929 64.575 99.7929C70.9607 112.436 82.3928 121.789 93.4285 132.107C99.0642 137.389 93.6964 140.732 91.5214 145.361C90.2571 148.032 90.9214 149.775 93.5142 150.589C98.0142 152.004 102.482 148.929 105.418 145.65C109.007 141.654 108.761 138.504 106.671 133.854C105.05 130.254 103.257 126.579 101.293 122.829C101.224 122.698 101.19 122.552 101.196 122.405C101.202 122.257 101.247 122.113 101.326 121.988C101.405 121.862 101.515 121.759 101.647 121.689C101.778 121.618 101.926 121.583 102.075 121.586C103.629 121.629 105.3 121.779 106.875 122.282C123.254 127.554 138.696 125.675 153.204 116.646C153.474 116.478 153.788 116.394 154.106 116.403C154.425 116.413 154.733 116.516 154.993 116.7C161.021 121 167.575 124.639 174.654 127.618C179.582 129.696 177.868 135.954 174.525 138.268C172.029 139.993 160.082 141.525 162.718 146.561C164.379 149.743 172.189 149.7 175.146 149.293C182.132 148.339 184.286 144.429 187.907 138.032C193.6 127.954 198.139 117.35 201.525 106.221C204.418 96.6929 204.111 87.4465 200.604 78.4822C200.42 78.018 200.359 77.5142 200.427 77.0189C200.494 76.5236 200.688 76.0535 200.989 75.6536C212.4 60.3643 218.689 48.225 211.843 28.8643C211.813 28.7722 211.752 28.6932 211.671 28.641C211.589 28.5887 211.492 28.5663 211.396 28.5777C211.3 28.5891 211.211 28.6335 211.144 28.7034C211.077 28.7733 211.036 28.8642 211.029 28.9608C209.518 41.9358 205.179 57.7393 194.036 65.5393C190.729 67.8536 185.204 70.3322 177.461 72.975C163.779 77.6572 150.268 78.6857 135.814 77.475C118.982 76.0715 107.271 73.6822 96.3857 61.6393C96.3061 61.5596 96.2012 61.5103 96.0891 61.4999C95.9771 61.4894 95.8649 61.5185 95.772 61.5822C95.6791 61.6458 95.6114 61.7399 95.5806 61.8482C95.5499 61.9565 95.558 62.0721 95.6035 62.175C97.6535 66.2036 99.3392 70.4715 100.661 74.9786C104.314 87.4072 89.5821 90.5143 80.9249 88.3072C72.2035 86.0893 76.2214 77.6679 77.9142 72.1072C80.7 62.9786 76.5964 57.7072 76.3071 48.8572C76.2928 48.4858 76.1035 48.2679 75.7392 48.2036C64.05 46.1358 57.5892 45.9858 49.1357 54.7822C44.5928 59.5108 38.9107 61.6215 32.0892 61.1143C31.9186 61.1012 31.7484 61.1452 31.6055 61.2394C31.4627 61.3335 31.3551 61.4726 31.2999 61.6346C31.2447 61.7965 31.2449 61.9723 31.3005 62.1342C31.3561 62.296 31.464 62.4348 31.6071 62.5286C34.0714 64.1572 35.0464 67.1465 32.4857 69.1286C32.15 69.3857 31.7714 69.4893 31.35 69.4393L27.9857 69.0108C27.65 68.9679 27.5178 69.1107 27.5892 69.4393C28.6392 74.0036 41.2714 74.7858 45.3964 74.6572C45.7964 74.65 45.9535 74.8393 45.8678 75.225ZM56.2607 45.1822C48.3857 43.6608 45.9642 52.65 41.8392 57.4286C41.6178 57.6929 41.6642 57.8929 41.9785 58.0286C42.5642 58.2643 43.0321 58.2072 43.3821 57.8572C47.5964 53.65 52.0107 50.0786 56.625 47.1429C56.8075 47.0289 56.9515 46.8626 57.0381 46.6656C57.1248 46.4686 57.1501 46.25 57.1108 46.0384C57.0715 45.8268 56.9693 45.632 56.8177 45.4793C56.6661 45.3265 56.472 45.223 56.2607 45.1822ZM78.4178 85.2429C81.6964 88.0072 87.8357 87.5572 91.8214 86.9036C105.129 84.7286 97.8964 70.8108 94.2964 62.2286C91.9071 56.5179 88.2214 44.6143 79.725 46.3179C79.3932 46.3868 79.0973 46.5688 78.8892 46.8322C74.8071 51.8893 82.4357 62.7108 80.625 68.2929C79.5107 71.7429 75.3 82.6179 78.4178 85.2429ZM32.2313 67.1078C32.3998 66.8464 32.4778 66.5304 32.461 66.1778C32.4442 65.8252 32.3328 65.4429 32.1333 65.0527C31.9338 64.6625 31.65 64.2721 31.2982 63.9038C30.9463 63.5355 30.5333 63.1965 30.0827 62.9061C29.632 62.6157 29.1527 62.3796 28.6719 62.2113C28.1911 62.043 27.7183 61.9459 27.2806 61.9254C26.8429 61.9049 26.4487 61.9614 26.1206 62.0918C25.7926 62.2221 25.537 62.4237 25.3686 62.6851C25.2001 62.9465 25.1221 63.2625 25.1389 63.6151C25.1557 63.9678 25.2671 64.3501 25.4666 64.7402C25.6661 65.1304 25.9499 65.5208 26.3017 65.8891C26.6536 66.2574 27.0666 66.5965 27.5172 66.8869C27.9679 67.1773 28.4472 67.4133 28.928 67.5816C29.4088 67.7499 29.8816 67.847 30.3193 67.8676C30.7571 67.8881 31.1512 67.8315 31.4793 67.7012C31.8073 67.5708 32.0629 67.3692 32.2313 67.1078ZM68.6142 115.146C71.0892 118.039 74.3785 120.675 77.3785 123.043C77.4931 123.132 77.63 123.187 77.7726 123.2C77.9153 123.213 78.0575 123.185 78.1821 123.118L79.6928 122.314C79.7586 122.279 79.8152 122.229 79.8583 122.168C79.9014 122.107 79.9298 122.037 79.9412 121.963C79.9527 121.89 79.9468 121.814 79.9242 121.743C79.9015 121.672 79.8626 121.607 79.8107 121.554L69.8035 111.129C69.5392 110.857 69.2785 110.861 69.0214 111.139C68.8142 111.368 68.7428 111.661 68.8071 112.018C68.8642 112.346 68.7714 112.629 68.5285 112.864C67.8357 113.514 67.8642 114.275 68.6142 115.146ZM195.289 128.904C198.968 130.661 200.254 133.104 199.146 136.232C197.743 140.196 192.514 140.357 191.004 144.729C190.882 145.079 190.907 145.421 191.079 145.757C193.907 151.35 212.186 146.4 211.114 137.946C210.032 129.429 205.714 120.579 202.179 112.596C202.144 112.524 202.09 112.463 202.022 112.42C201.954 112.378 201.875 112.356 201.795 112.357C201.715 112.358 201.636 112.382 201.569 112.427C201.503 112.471 201.45 112.534 201.418 112.607L194.957 128.057C194.793 128.443 194.904 128.725 195.289 128.904ZM77.2607 126.032C76.5107 123.139 68.6142 116.979 66.4392 114.525C66.3802 114.456 66.2997 114.408 66.2105 114.39C66.1213 114.372 66.0286 114.384 65.9472 114.425C65.8658 114.466 65.8003 114.532 65.7613 114.615C65.7224 114.697 65.7121 114.79 65.7321 114.879C67.0535 121.014 70.7321 124.893 76.7678 126.514C76.8352 126.534 76.9064 126.535 76.9744 126.518C77.0423 126.501 77.1045 126.466 77.1546 126.417C77.2047 126.368 77.2409 126.306 77.2595 126.239C77.2781 126.171 77.2785 126.1 77.2607 126.032ZM60.2892 116.464C60.217 116.504 60.1563 116.562 60.1134 116.632C60.0705 116.703 60.0468 116.783 60.0446 116.865C60.0424 116.948 60.0619 117.029 60.1011 117.102C60.1402 117.174 60.1977 117.235 60.2678 117.279L65.9035 120.9C65.9888 120.96 66.0916 120.99 66.1958 120.985C66.3 120.981 66.3997 120.942 66.4793 120.874C66.559 120.807 66.614 120.715 66.6358 120.613C66.6576 120.511 66.645 120.405 66.5999 120.311L64.2535 114.857C64.2274 114.796 64.1888 114.742 64.1403 114.697C64.0917 114.652 64.0342 114.618 63.9715 114.597C63.9089 114.575 63.8425 114.568 63.7766 114.574C63.7107 114.58 63.6469 114.6 63.5892 114.632L60.2892 116.464ZM75.5035 127.425C69.8892 124.889 64.5571 121.857 59.5071 118.329C59.1785 118.1 58.8464 118.093 58.5107 118.307L57.1607 119.143C57.0774 119.195 57.0074 119.266 56.9565 119.35C56.9056 119.434 56.8752 119.529 56.8679 119.626C56.8606 119.724 56.8765 119.821 56.9144 119.91C56.9522 119.999 57.0109 120.078 57.0857 120.139C61.5571 123.868 66.4214 126.964 71.6785 129.429C71.9142 129.543 72.1607 129.582 72.4178 129.546C73.6464 129.368 74.7071 128.871 75.5999 128.057C75.6474 128.014 75.6836 127.959 75.7051 127.898C75.7267 127.838 75.733 127.773 75.7234 127.71C75.7138 127.647 75.6886 127.588 75.6502 127.538C75.6118 127.488 75.5614 127.45 75.5035 127.425ZM70.3714 130.071C65.3571 127.757 60.6785 124.889 56.3357 121.468C56.189 121.354 56.0144 121.282 55.8302 121.258C55.646 121.234 55.4589 121.261 55.2883 121.334C55.1176 121.407 54.9698 121.525 54.86 121.675C54.7503 121.824 54.6827 122.001 54.6642 122.186C54.5571 123.314 54.9321 124.139 55.7892 124.661C59.2285 126.771 66.1928 132.975 70.3607 131.154C70.4649 131.109 70.5537 131.036 70.6164 130.941C70.679 130.847 70.713 130.736 70.7141 130.622C70.7152 130.508 70.6835 130.396 70.6227 130.298C70.562 130.2 70.4747 130.122 70.3714 130.071ZM62.3571 130.725C60.1071 129.404 58.1464 128.079 56.4749 126.75C55.1749 125.721 54.5964 126.032 54.7392 127.682C55.0821 131.539 56.5821 139.286 60.4821 140.764C65.9892 142.864 66.3428 136.982 64.9714 133.5C64.5571 132.436 63.6857 131.511 62.3571 130.725Z" fill="#010000" fill-opacity="0.996"/>
<path id="Vector_2" d="M53.3358 62.3251C54.7974 62.3251 55.9822 61.1402 55.9822 59.6787C55.9822 58.2171 54.7974 57.0322 53.3358 57.0322C51.8742 57.0322 50.6894 58.2171 50.6894 59.6787C50.6894 61.1402 51.8742 62.3251 53.3358 62.3251Z" fill="#010000" fill-opacity="0.996"/>
<path id="Vector_3" d="M67.4568 66.5143C68.948 66.5143 70.1568 65.3054 70.1568 63.8143C70.1568 62.3231 68.948 61.1143 67.4568 61.1143C65.9657 61.1143 64.7568 62.3231 64.7568 63.8143C64.7568 65.3054 65.9657 66.5143 67.4568 66.5143Z" fill="#010000" fill-opacity="0.996"/>
<path id="Vector_4" d="M41.432 67.5427C42.0592 67.5427 42.5677 67.0342 42.5677 66.407C42.5677 65.7797 42.0592 65.2712 41.432 65.2712C40.8048 65.2712 40.2963 65.7797 40.2963 66.407C40.2963 67.0342 40.8048 67.5427 41.432 67.5427Z" fill="#010000" fill-opacity="0.996"/>
<path id="Vector_5" d="M46.9667 69.2107C47.22 69.874 47.8734 70.2407 48.4263 70.0296C48.9791 69.8185 49.2218 69.1096 48.9685 68.4462C48.7152 67.7829 48.0617 67.4162 47.5089 67.6273C46.9561 67.8384 46.7133 68.5473 46.9667 69.2107Z" fill="#010000" fill-opacity="0.996"/>
<path id="Vector_6" d="M43.3823 71.1107C44.045 71.1107 44.5823 70.5734 44.5823 69.9107C44.5823 69.248 44.045 68.7107 43.3823 68.7107C42.7195 68.7107 42.1823 69.248 42.1823 69.9107C42.1823 70.5734 42.7195 71.1107 43.3823 71.1107Z" fill="#010000" fill-opacity="0.996"/>
<path id="Vector_7" d="M150.118 112.65C150.227 112.737 150.298 112.863 150.317 113.001C150.337 113.139 150.302 113.279 150.222 113.393C150.141 113.507 150.02 113.585 149.883 113.613C149.746 113.64 149.604 113.614 149.486 113.539C145.093 110.818 143.529 107.529 141.289 103.029C141.075 102.6 141.093 102.257 141.343 102C141.643 101.679 141.879 101.721 142.05 102.129C143.843 106.3 146.532 109.807 150.118 112.65Z" fill="#010000" fill-opacity="0.996"/>
</g>
</svg>
