<svg width="134" height="43" viewBox="0 0 134 43" fill="none" xmlns="http://www.w3.org/2000/svg">
<path d="M4.08981 9.04648C1.78375 12.8553 0.84375 19.2503 0.84375 30.2344V31.5782V32.0782H1.34375H3.80639L1.94691 41.5601L1.82998 42.1563H2.43756H5.17629H5.58776L5.66695 41.7525L7.56417 32.0782H8.0602C10.3849 32.0984 12.6244 31.2038 14.2955 29.5876C15.7989 28.1486 16.8702 26.1933 17.4096 23.946L17.4142 23.9271L17.416 23.9196L17.4176 23.9119L19.7224 12.8678L19.848 12.2657H19.2329H16.4875H16.081L15.998 12.6635L13.8178 23.1107C13.1755 25.7542 11.3121 28.3907 8.0625 28.3907H4.54092C4.58966 23.8824 4.82303 20.2832 5.25761 17.4427C5.70909 14.4918 6.37272 12.3956 7.24432 10.9557L7.24434 10.9557C7.96749 9.76095 8.83836 8.97455 10.0872 8.47359C11.3584 7.96361 13.0518 7.73701 15.4403 7.73615L24.7927 7.87047C24.7928 7.87047 24.7929 7.87047 24.793 7.87047C24.9273 7.87256 25.0593 7.90662 25.1778 7.96984C25.2965 8.03309 25.3983 8.12372 25.475 8.23421L31.0579 16.298L31.1782 16.4718L31.3867 16.5066L38.4688 17.6869V18.6412L37.2266 25.2656C37.0458 26.2301 36.8173 26.8424 36.4008 27.2634C35.989 27.6794 35.3173 27.9828 34.0708 28.1326L34.0584 28.134L34.0461 28.1361L23.4384 29.951L23.0253 30.0216L23.0227 30.4407L22.9526 41.6532L22.9494 42.1563H23.4526H26.1401H26.6369L26.64 41.6594L26.6934 33.1347L34.5582 31.788C36.5049 31.5469 38.0083 30.9089 39.0813 29.7896L39.0813 29.7896C39.9997 28.8314 40.5364 27.6234 40.8511 25.9453L42.1477 19.0296L42.1562 18.9839V18.9374V14.9867V14.5632L41.7384 14.4935L33.3218 13.0908L28.5066 6.13506L28.5063 6.13466C28.0952 5.54206 27.5488 5.05596 26.9123 4.71665C26.2759 4.37734 25.5678 4.19457 24.8466 4.18351L24.8461 4.1835L15.4796 4.04912L15.4796 4.04907H15.4724H15.4531C13.0158 4.04907 10.8067 4.25139 8.89042 4.97955C6.95641 5.71444 5.34295 6.97634 4.08981 9.04648ZM4.08981 9.04648L4.51752 9.30544L4.08981 9.04648Z" fill="black" stroke="black"/>
<path d="M83.064 10.164L76.824 32.5H71.544L67.352 16.596L62.968 32.5L57.72 32.532L51.704 10.164H56.504L60.44 27.508L64.984 10.164H69.976L74.264 27.412L78.232 10.164H83.064ZM93.2213 32.788C91.5146 32.788 89.9786 32.4147 88.6133 31.668C87.2479 30.9 86.1706 29.8227 85.3813 28.436C84.6133 27.0493 84.2293 25.4493 84.2293 23.636C84.2293 21.8227 84.6239 20.2227 85.4133 18.836C86.2239 17.4493 87.3226 16.3827 88.7093 15.636C90.0959 14.868 91.6426 14.484 93.3493 14.484C95.0559 14.484 96.6026 14.868 97.9893 15.636C99.3759 16.3827 100.464 17.4493 101.253 18.836C102.064 20.2227 102.469 21.8227 102.469 23.636C102.469 25.4493 102.053 27.0493 101.221 28.436C100.411 29.8227 99.3013 30.9 97.8933 31.668C96.5066 32.4147 94.9493 32.788 93.2213 32.788ZM93.2213 28.884C94.0319 28.884 94.7893 28.692 95.4933 28.308C96.2186 27.9027 96.7946 27.3053 97.2213 26.516C97.6479 25.7267 97.8613 24.7667 97.8613 23.636C97.8613 21.9507 97.4133 20.66 96.5173 19.764C95.6426 18.8467 94.5653 18.388 93.2853 18.388C92.0053 18.388 90.9279 18.8467 90.0533 19.764C89.1999 20.66 88.7733 21.9507 88.7733 23.636C88.7733 25.3213 89.1893 26.6227 90.0213 27.54C90.8746 28.436 91.9413 28.884 93.2213 28.884ZM112.988 32.788C111.281 32.788 109.745 32.4147 108.38 31.668C107.014 30.9 105.937 29.8227 105.148 28.436C104.38 27.0493 103.996 25.4493 103.996 23.636C103.996 21.8227 104.39 20.2227 105.18 18.836C105.99 17.4493 107.089 16.3827 108.476 15.636C109.862 14.868 111.409 14.484 113.116 14.484C114.822 14.484 116.369 14.868 117.756 15.636C119.142 16.3827 120.23 17.4493 121.02 18.836C121.83 20.2227 122.236 21.8227 122.236 23.636C122.236 25.4493 121.82 27.0493 120.988 28.436C120.177 29.8227 119.068 30.9 117.66 31.668C116.273 32.4147 114.716 32.788 112.988 32.788ZM112.988 28.884C113.798 28.884 114.556 28.692 115.26 28.308C115.985 27.9027 116.561 27.3053 116.988 26.516C117.414 25.7267 117.628 24.7667 117.628 23.636C117.628 21.9507 117.18 20.66 116.284 19.764C115.409 18.8467 114.332 18.388 113.052 18.388C111.772 18.388 110.694 18.8467 109.82 19.764C108.966 20.66 108.54 21.9507 108.54 23.636C108.54 25.3213 108.956 26.6227 109.788 27.54C110.641 28.436 111.708 28.884 112.988 28.884ZM133.01 18.452H129.906V32.5H125.362V18.452H123.346V14.772H125.362V13.876C125.362 11.7 125.98 10.1 127.218 9.076C128.455 8.052 130.322 7.572 132.818 7.636V11.412C131.73 11.3907 130.972 11.572 130.546 11.956C130.119 12.34 129.906 13.0333 129.906 14.036V14.772H133.01V18.452Z" fill="black"/>
</svg>
