<svg width="101" height="123" viewBox="0 0 101 123" fill="none" xmlns="http://www.w3.org/2000/svg">
<g id="Group">
<path id="Vector" fill-rule="evenodd" clip-rule="evenodd" d="M60.2487 60.4256C59.8235 60.2269 59.3649 60.0997 58.907 59.973C56.4966 59.1614 53.7025 58.1798 51.2762 58.2094C48.0809 58.2764 46.239 59.5614 45.3346 61.4937C44.064 64.2149 44.8396 68.4428 46.9105 72.1448C48.9551 75.8286 52.2021 79.0172 55.6073 79.9473C57.9314 80.6046 60.3757 80.2087 62.599 78.1452C65.1352 75.8241 65.6695 72.3107 65.0278 68.4589C64.8038 66.9787 64.3682 65.5419 63.8467 64.0457C65.1764 64.6794 66.5182 65.3212 67.8773 65.9752C72.2643 68.2459 76.6561 71.0878 80.6996 74.1629C86.0814 78.1619 90.8141 82.8495 94.924 88.3377C95.3239 88.8032 95.963 88.9601 96.3613 88.6669C96.7589 88.3731 96.7755 87.7222 96.4098 87.1857C92.1346 81.4887 87.2299 76.5874 81.6326 72.4398C77.4344 69.3525 72.9516 66.3537 68.4106 64.0714C66.5202 63.1453 64.6623 62.2414 62.7896 61.4222C61.3449 58.2472 59.4813 55.2562 57.7492 53.019C46.0389 38.3076 23.9252 31.6597 8.05922 29.2301C7.50909 29.1345 7.09892 29.5147 7.12992 30.1043C7.16168 30.6943 7.64827 31.2196 8.1984 31.3152C23.5511 33.6747 44.9884 39.9496 56.3138 54.2058C57.6455 55.8826 59.0433 58.0786 60.2487 60.4256ZM61.4235 63.036C60.5491 62.6218 59.6459 62.2819 58.7106 62.0151C56.4757 61.3246 53.9378 60.3301 51.7321 60.3226C49.3238 60.3647 47.8726 61.2575 47.2027 62.6889C46.1316 64.9796 46.9194 68.3637 48.6087 71.3289C50.2895 74.3828 52.8948 77.1283 55.7269 77.8522C57.5373 78.3443 59.3873 78.0112 61.0952 76.4441C63.2041 74.491 63.5911 71.5393 63.0396 68.4126C62.7624 66.6116 62.1811 64.7899 61.4235 63.036Z" fill="#0B0B0B"/>
<path id="Vector_2" fill-rule="evenodd" clip-rule="evenodd" d="M8.61602 30.8749C9.0858 30.6851 9.69731 30.5957 10.3096 30.5068C11.501 30.3055 12.7051 30.2174 13.4594 29.9156C18.0577 28.1567 23.5397 25.979 27.1215 22.5611C27.5098 22.2094 27.483 21.4595 27.0383 20.936C26.5944 20.4132 25.9277 20.2546 25.5026 20.6848C22.0911 23.9098 16.8245 25.9274 12.3771 27.6887C11.5856 27.9641 10.1284 28.0812 8.91678 28.2682C7.86985 28.4673 6.9678 28.7691 6.42945 29.328C6.09977 29.6168 5.9307 30.437 6.62188 31.5525C7.62013 33.094 10.9516 36.1824 11.2623 36.5066C14.414 39.7804 17.1431 42.7551 17.9676 47.3062C18.1035 47.9245 18.6848 48.4399 19.2348 48.5158C19.8217 48.5133 20.2132 47.9547 20.0764 47.3359C19.1249 42.1728 16.1712 38.6216 12.5639 34.921C12.308 34.7399 10.3098 32.9087 9.03961 31.3836C8.91524 31.1912 8.73797 31.0656 8.61602 30.8749Z" fill="#0B0B0B"/>
</g>
</svg>
