<svg width="261" height="276" viewBox="0 0 261 276" fill="none" xmlns="http://www.w3.org/2000/svg">
<path d="M162.87 82.7399C166.28 86.7799 170.63 90.2599 174.95 94.2899C178.75 97.8366 183.747 101.883 189.94 106.43C196.86 111.51 208.14 117.56 215.57 124.19C219.97 128.117 224.413 132 228.9 135.84C230.007 136.78 230.15 138.17 229.33 140.01C229.266 140.164 229.144 140.286 228.99 140.35L224.77 142.05C224.599 142.122 224.451 142.236 224.34 142.38C212.61 157.66 199.39 169.45 185.9 182.41C176.61 191.34 169.6 203.07 159.86 213.35C157.64 215.69 156.307 218.743 155.86 222.51C155.839 222.679 155.768 222.837 155.658 222.965C155.548 223.093 155.402 223.186 155.24 223.23C151.26 224.35 146.85 215.86 144.68 213.06C142.08 209.7 138.76 207.61 135.37 205.09C135.242 204.996 135.094 204.93 134.937 204.897C134.78 204.865 134.618 204.865 134.46 204.9C126.14 206.72 118.61 207.38 109.33 208.45C98.87 209.65 88.38 207.37 78.55 203.66C63.07 197.82 52.84 187.91 52.3 170.76C52.12 164.94 53.89 156.14 53.75 148.67C53.7433 148.317 53.9 148.07 54.22 147.93C59.86 145.47 60.03 162.63 60.25 166C61.03 178.1 66.53 189.06 79.51 190.78C83.25 191.273 85.1733 189.44 85.28 185.28C85.4133 180.52 85.3766 175.36 85.17 169.8C85.13 168.82 84.6233 168.383 83.65 168.49C79.93 168.91 77.2 165.81 79.55 162.3C80.1033 161.473 80 160.737 79.24 160.09C67.64 150.25 58.53 137.88 49.44 125.79C48.78 124.91 47.9033 124.473 46.81 124.48C43.01 124.5 39.71 121.29 41.78 117.42C41.94 117.127 41.8866 116.877 41.62 116.67C39.2333 114.797 36.87 112.89 34.53 110.95C31.38 108.34 30.02 105.65 31.99 101.93C32.1566 101.61 32.4033 101.373 32.73 101.22C37.9833 98.7266 43.33 96.5299 48.77 94.6299C54.04 92.7899 57.08 91.3099 59.98 87.1199C60.0954 86.9531 60.176 86.7647 60.2169 86.5662C60.2579 86.3676 60.2582 86.1631 60.218 85.9649C60.1778 85.7667 60.0979 85.579 59.9831 85.4132C59.8683 85.2473 59.7209 85.1067 59.55 84.9999C55.6 82.5299 52.49 83.2399 50.47 78.1399C50.3616 77.8705 50.31 77.5816 50.3184 77.2911C50.3268 77.0006 50.395 76.7148 50.5188 76.4513C50.6426 76.1879 50.8193 75.9524 51.0379 75.7595C51.2566 75.5666 51.5126 75.4204 51.79 75.3299L78.26 66.7099C78.6013 66.6001 78.9678 66.6179 79.29 66.7599L86.38 69.8899C86.542 69.9623 86.7201 69.9893 86.8947 69.9682C87.0692 69.947 87.2337 69.8784 87.37 69.7699C97.24 62.0199 105.46 52.6899 114.75 44.3299C116.34 42.8899 119.91 38.5999 122.84 37.7999C127.83 36.4299 128.41 43.1199 130.93 45.9499C141.75 58.0633 152.397 70.3266 162.87 82.7399ZM124.35 39.7399C121.02 40.0399 117.51 45.7199 115.59 48.1299C115.469 48.2777 115.405 48.4641 115.408 48.6562C115.412 48.8484 115.483 49.0339 115.61 49.1799L124.3 59.0699C124.528 59.3269 124.841 59.492 125.182 59.5343C125.522 59.5767 125.866 59.4933 126.15 59.2999L133.55 54.2599C133.707 54.1531 133.837 54.0111 133.929 53.8454C134.021 53.6797 134.073 53.495 134.081 53.3061C134.089 53.1173 134.052 52.9296 133.974 52.7583C133.895 52.587 133.778 52.4368 133.63 52.3199C129.67 49.1666 126.917 45.1966 125.37 40.4099C125.301 40.1994 125.162 40.0185 124.977 39.8968C124.792 39.7751 124.571 39.7198 124.35 39.7399ZM122.47 62.2399L124 60.9199C124.048 60.8787 124.088 60.8284 124.116 60.7718C124.145 60.7153 124.162 60.6536 124.167 60.5904C124.171 60.5271 124.163 60.4636 124.143 60.4035C124.123 60.3433 124.092 60.2878 124.05 60.2399L123.96 60.1299C122.688 58.6508 121.404 57.2067 120.181 55.8804C118.959 54.5541 117.822 53.3714 116.836 52.4C115.85 51.4286 115.033 50.6875 114.433 50.2191C113.834 49.7506 113.462 49.564 113.34 49.6699L112.95 50.0099C112.827 50.1145 112.955 50.5095 113.329 51.1723C113.702 51.835 114.312 52.7526 115.125 53.8725C115.937 54.9924 116.936 56.2928 118.064 57.6994C119.193 59.1059 120.428 60.5911 121.7 62.0699L121.79 62.1899C121.831 62.2381 121.882 62.2777 121.938 62.3063C121.995 62.3349 122.056 62.352 122.12 62.3567C122.183 62.3613 122.246 62.3534 122.306 62.3334C122.367 62.3133 122.422 62.2816 122.47 62.2399ZM112.45 52.2999C112.295 52.1058 112.102 51.9462 111.882 51.8313C111.662 51.7164 111.42 51.6488 111.173 51.6328C110.925 51.6168 110.677 51.6528 110.444 51.7384C110.211 51.824 109.998 51.9574 109.82 52.1299L98.9 62.7099C98.5781 63.0206 98.3849 63.441 98.359 63.8876C98.3331 64.3342 98.4762 64.7741 98.76 65.1199L106.07 74.1099C106.221 74.2968 106.408 74.4512 106.619 74.5639C106.831 74.6766 107.064 74.7453 107.303 74.7659C107.542 74.7864 107.783 74.7584 108.011 74.6835C108.239 74.6086 108.45 74.4883 108.63 74.3299L119.93 64.3799C120.273 64.077 120.487 63.6533 120.526 63.197C120.565 62.7407 120.427 62.2869 120.14 61.9299L112.45 52.2999ZM136.864 55.4098C136.76 55.2522 136.625 55.1166 136.468 55.0108C136.312 54.9051 136.135 54.8312 135.95 54.7935C135.765 54.7558 135.574 54.755 135.388 54.7911C135.203 54.8272 135.026 54.8995 134.868 55.0038L127.33 59.9933C127.012 60.2041 126.79 60.5328 126.714 60.907C126.638 61.2812 126.713 61.6704 126.924 61.9888L128.116 63.79C128.22 63.9477 128.355 64.0833 128.512 64.1891C128.668 64.2948 128.844 64.3686 129.03 64.4063C129.215 64.444 129.406 64.4449 129.592 64.4088C129.777 64.3727 129.954 64.3004 130.112 64.196L137.65 59.2065C137.968 58.9958 138.19 58.6671 138.266 58.2929C138.342 57.9187 138.267 57.5295 138.056 57.211L136.864 55.4098ZM157.88 81.7499C157.991 81.6706 158.084 81.5689 158.154 81.4514C158.223 81.3338 158.267 81.2031 158.283 81.0675C158.299 80.932 158.287 80.7945 158.247 80.6641C158.207 80.5336 158.14 80.413 158.05 80.3099L140.46 59.9499C140.305 59.7697 140.089 59.6521 139.854 59.619C139.618 59.5859 139.379 59.6395 139.18 59.7699L130.7 65.2099C130.578 65.2886 130.474 65.3936 130.398 65.5172C130.321 65.6408 130.273 65.78 130.256 65.9246C130.24 66.0691 130.256 66.2155 130.303 66.3531C130.351 66.4907 130.428 66.616 130.53 66.7199L149.83 86.4899C149.994 86.6567 150.212 86.7595 150.445 86.7797C150.678 86.7998 150.91 86.7361 151.1 86.5999L157.88 81.7499ZM110.43 74.3899C110.34 74.4624 110.279 74.5634 110.255 74.6761C110.231 74.7888 110.247 74.9061 110.3 75.0084C110.353 75.1106 110.44 75.1915 110.545 75.2373C110.651 75.2832 110.769 75.2911 110.88 75.2599C112.58 74.84 116.63 74.3999 117.9 73.2899C120.02 71.4299 122.33 69.8499 124.36 67.8999C124.627 67.6466 124.643 67.3799 124.41 67.0999L122.52 64.8699C122.387 64.7171 122.199 64.623 121.996 64.608C121.794 64.593 121.594 64.6584 121.44 64.7899L110.43 74.3899ZM97.8 65.4999C97.5471 65.1867 97.1914 64.9734 96.796 64.8979C96.4006 64.8224 95.9913 64.8897 95.6408 65.0877C95.2904 65.2857 95.0216 65.6017 94.8823 65.9793C94.7429 66.3569 94.7421 66.7718 94.88 67.1499C96.13 70.5099 99.26 70.5399 102.06 72.2599C102.148 72.3186 102.255 72.3434 102.36 72.3299C102.465 72.3164 102.561 72.2655 102.632 72.1864C102.702 72.1074 102.742 72.0056 102.743 71.8997C102.745 71.7938 102.708 71.6909 102.64 71.6099L97.8 65.4999ZM146.05 83.6999C140.283 78.4599 134.933 72.9699 130 67.2299C129.86 67.0671 129.684 66.9383 129.487 66.8531C129.29 66.768 129.075 66.7287 128.861 66.7384C128.646 66.748 128.436 66.8062 128.247 66.9087C128.058 67.0112 127.895 67.1552 127.77 67.3299C127.21 68.1099 127.247 68.7599 127.88 69.2799C128.467 69.7599 128.78 70.0233 128.82 70.0699C134.16 75.8499 139.5 81.6333 144.84 87.4199C145.473 88.1066 146.073 88.6466 146.64 89.0399C146.929 89.2436 147.28 89.342 147.633 89.319C147.986 89.296 148.32 89.1528 148.581 88.9134C148.841 88.6739 149.012 88.3526 149.065 88.0027C149.117 87.6528 149.049 87.2954 148.87 86.9899C148.283 85.9699 147.343 84.8733 146.05 83.6999ZM91.42 69.9499L94.76 70.0699C94.8113 70.07 94.8608 70.0503 94.898 70.0149C94.9352 69.9796 94.9574 69.9312 94.96 69.8799L94.97 69.7599C94.9766 69.5709 94.9386 69.3821 94.8582 69.2043C94.7778 69.0266 94.6567 68.8634 94.5016 68.7241C94.3465 68.5848 94.1605 68.4721 93.9543 68.3925C93.7482 68.3128 93.5258 68.2678 93.3 68.2599L93 68.2499C92.5456 68.2336 92.1043 68.3685 91.7726 68.6253C91.4409 68.882 91.2458 69.2396 91.23 69.6199V69.7399C91.2286 69.7662 91.2325 69.7925 91.2413 69.8173C91.2501 69.8421 91.2638 69.8649 91.2814 69.8844C91.2991 69.9039 91.3204 69.9197 91.3442 69.931C91.3679 69.9422 91.3937 69.9487 91.42 69.9499ZM84.31 70.9699L79.06 68.4499C78.8728 68.3663 78.6634 68.3521 78.47 68.41L54.04 76.3399C53.6034 76.4801 53.2199 76.7498 52.9402 77.1131C52.6605 77.4764 52.4979 77.9162 52.4741 78.374C52.4502 78.8319 52.5662 79.2862 52.8066 79.6766C53.0469 80.0671 53.4004 80.3751 53.82 80.5599L60.51 83.5399C60.6415 83.5991 60.7582 83.6918 60.85 83.8099C62.28 85.5699 63.57 84.4899 64.77 83.1199C69.99 77.1666 76.46 73.4533 84.18 71.9799C84.2892 71.9565 84.3884 71.8998 84.464 71.8175C84.5396 71.7353 84.5879 71.6317 84.6022 71.5209C84.6164 71.4101 84.596 71.2977 84.5437 71.199C84.4913 71.1003 84.4097 71.0203 84.31 70.9699ZM145.84 89.9799L126.99 69.6099C126.74 69.3396 126.399 69.1701 126.033 69.1332C125.666 69.0964 125.299 69.1948 125 69.41L120.42 72.6999C120.341 72.7549 120.283 72.8341 120.253 72.9255C120.223 73.017 120.225 73.1155 120.256 73.2062C120.288 73.2969 120.349 73.3747 120.429 73.4277C120.509 73.4808 120.604 73.5061 120.7 73.4999C131.59 72.9999 137.28 81.1299 143.59 90.5599C143.676 90.6894 143.793 90.7955 143.931 90.8688C144.069 90.9421 144.223 90.9803 144.38 90.9799H145.41C146.317 90.9799 146.46 90.6466 145.84 89.9799ZM94.25 154.46C94.25 154.553 94.25 154.65 94.25 154.75C94.2566 154.897 94.21 155.023 94.11 155.13C88.24 161.63 85.28 169.35 89.83 177.68C91.91 181.47 96.01 189.1 93.48 192.68C87.51 201.13 79.31 193.15 73.07 190.66C57.73 184.51 58.06 165.04 57.06 151.5C57 150.727 56.66 150.16 56.04 149.8C55.6733 149.593 55.4733 149.7 55.44 150.12C54.55 160.74 51.88 173.19 56.43 183.06C60.6566 192.213 67.9 198.4 78.16 201.62C87.3 204.487 94.7433 206.033 100.49 206.26C103.17 206.36 108.473 205.92 116.4 204.94C118.6 204.66 121.33 204.94 123.8 204.42C126.987 203.747 128.78 203.383 129.18 203.33C149.14 200.72 171.01 190.19 178.57 171.07C185.2 154.33 181.83 138.21 173.67 122.07C167.44 109.73 154.85 99.4799 142.67 91.7699C141.597 91.0899 140.873 90.3433 140.5 89.5299C136.57 81.0499 128.67 73.6099 118.51 75.4299C114.86 76.0799 108.81 77.7499 105.35 76.2799C101.41 74.5999 97.66 72.3299 93.46 72.0599C79.19 71.1599 68.19 78.6799 60.09 89.7599C56.48 94.7099 47.43 97.27 41.81 99.2999C41.725 99.3306 41.6484 99.3806 41.5861 99.4461C41.5239 99.5116 41.4779 99.5908 41.4517 99.6772C41.4254 99.7636 41.4198 99.855 41.4351 99.944C41.4504 100.033 41.4863 100.117 41.54 100.19L43.4 102.66C43.6266 102.967 43.9266 103.073 44.3 102.98C46.8 102.353 49.1733 101.397 51.42 100.11C54.82 98.1699 58.42 98.8499 62.06 98.9599C65.46 99.0499 69.22 98.1499 72.97 98.1999C76.99 98.2499 80.42 97.0599 84.73 98.6899C85.0767 98.8233 85.3233 98.7166 85.47 98.3699C87.53 93.3699 89.94 89.5299 89.01 83.7699C88.9906 83.6555 89.0033 83.5379 89.0465 83.4302C89.0897 83.3225 89.1619 83.2289 89.255 83.1595C89.3481 83.0902 89.4585 83.048 89.5741 83.0375C89.6897 83.027 89.8059 83.0486 89.91 83.0999C90.39 83.3399 90.6666 83.7799 90.74 84.4199C91.54 90.8699 87.33 96.1099 86.03 102.57C85.9201 103.123 85.9909 103.697 86.2321 104.209C86.4732 104.72 86.872 105.141 87.37 105.41C90.71 107.23 93.3 108.83 95.78 112.04C99.51 116.88 108.47 130.55 113.85 116.82C118.98 103.72 113.18 89.16 102.37 80.91C102.217 80.7966 102.207 80.6699 102.34 80.5299L102.6 80.2799C102.78 80.0999 102.97 80.0866 103.17 80.2399C112.38 87.2999 118.63 99.5899 116.18 111.36C114.95 117.28 113.5 123.65 105.99 123.76C105.628 123.766 105.275 123.646 104.99 123.42L102.41 121.38C102.306 121.298 102.184 121.242 102.054 121.217C101.924 121.193 101.79 121.201 101.664 121.241C101.538 121.28 101.423 121.35 101.33 121.444C101.237 121.538 101.168 121.653 101.13 121.78C98.12 131.38 104.71 138.43 114.37 136.01C123.93 133.62 133.09 118.43 137.62 108.91C137.927 108.257 138.463 107.833 139.23 107.64C139.657 107.527 139.757 107.66 139.53 108.04C134.74 116.11 130.64 122.99 124.69 130.24C124.593 130.357 124.54 130.505 124.542 130.657C124.544 130.809 124.6 130.955 124.7 131.07C126.413 133.057 127.373 135.34 127.58 137.92C127.613 138.267 127.767 138.54 128.04 138.74C132.11 141.68 135.04 145.1 139.17 148.42C147.06 154.77 151.13 166.25 145.05 175.38C144.937 175.553 144.797 175.577 144.63 175.45C144.557 175.397 144.503 175.327 144.47 175.24C144.417 175.113 144.443 174.96 144.55 174.78C150.01 165.26 145.59 154.28 137.33 148.26C136.05 147.333 134.773 146.193 133.5 144.84C125.18 136.01 109.69 141.41 102.3 147.79C98.9333 150.703 96.5333 152.703 95.1 153.79C94.7333 154.063 94.64 153.99 94.82 153.57C98.28 145.3 97.44 138.09 92.04 130.95C90.68 129.14 88.56 127.9 86.81 129.99C86.7076 130.113 86.5738 130.206 86.4235 130.257C86.2733 130.309 86.1127 130.316 85.96 130.28C84.82 130.013 84.0933 130.413 83.78 131.48C83.698 131.754 83.6743 132.042 83.7105 132.326C83.7466 132.61 83.8418 132.884 83.99 133.13C85.84 136.2 88.07 139.16 88.09 142.9C88.12 150.16 83.39 157.74 80.42 163.96C80.263 164.29 80.1997 164.658 80.237 165.022C80.2743 165.386 80.4107 165.732 80.6313 166.024C80.852 166.316 81.1485 166.542 81.4886 166.677C81.8286 166.812 82.1992 166.851 82.56 166.79C83.66 166.61 84.7033 166.72 85.69 167.12C85.8325 167.178 85.9856 167.204 86.1391 167.198C86.2926 167.191 86.443 167.152 86.5803 167.083C86.7175 167.014 86.8384 166.917 86.935 166.797C87.0315 166.677 87.1014 166.539 87.14 166.39C88.3333 161.77 90.6066 157.753 93.96 154.34C93.9838 154.316 94.014 154.3 94.0469 154.294C94.0799 154.287 94.114 154.29 94.145 154.303C94.176 154.316 94.2025 154.338 94.2212 154.366C94.2399 154.394 94.2499 154.426 94.25 154.46ZM155.28 91.16L161.63 86.7099C161.742 86.632 161.838 86.5325 161.912 86.4174C161.986 86.3022 162.037 86.1736 162.061 86.0389C162.085 85.9042 162.082 85.7661 162.053 85.6324C162.024 85.4987 161.968 85.3722 161.89 85.2599L160.81 83.7199C160.65 83.4917 160.44 83.3018 160.192 83.1611C159.944 83.0205 159.663 82.9318 159.365 82.9002C159.067 82.8686 158.758 82.8948 158.455 82.9771C158.152 83.0594 157.861 83.1963 157.6 83.3799L153.52 86.2299C152.993 86.6002 152.616 87.1379 152.471 87.7249C152.327 88.3118 152.427 88.8999 152.75 89.3599L153.83 90.8999C153.908 91.0124 154.007 91.1084 154.123 91.1823C154.238 91.2563 154.366 91.3068 154.501 91.3309C154.636 91.3551 154.774 91.3524 154.908 91.3231C155.041 91.2937 155.168 91.2383 155.28 91.16ZM156.76 92.7399C163.51 100.47 172.96 107.73 181.2 113.86C181.339 113.959 181.504 114.015 181.674 114.018C181.843 114.022 182.01 113.974 182.15 113.88L188.38 109.68C188.693 109.467 188.777 109.19 188.63 108.85C188.21 107.863 187.513 107.057 186.54 106.43C180.727 102.697 175.383 98.3833 170.51 93.4899C168.197 91.1699 166.07 89.2733 164.13 87.7999C163.966 87.6755 163.772 87.5969 163.568 87.5723C163.364 87.5477 163.157 87.5779 162.97 87.66C160.637 88.7066 158.573 90.1499 156.78 91.9899C156.683 92.0881 156.628 92.2196 156.624 92.3584C156.62 92.4973 156.669 92.6334 156.76 92.7399ZM150.601 94.6382C150.649 94.5691 150.644 94.4641 150.585 94.3294C150.527 94.1948 150.416 94.0329 150.26 93.8533C150.105 93.6736 149.906 93.4795 149.677 93.2822C149.448 93.0848 149.191 92.8881 148.923 92.7031C148.382 92.3297 147.824 92.027 147.373 91.8617C146.923 91.6964 146.615 91.682 146.519 91.8216C146.471 91.8908 146.476 91.9958 146.535 92.1304C146.593 92.2651 146.704 92.4269 146.86 92.6066C147.015 92.7863 147.214 92.9804 147.443 93.1777C147.672 93.3751 147.928 93.5718 148.197 93.7567C148.738 94.1302 149.295 94.4329 149.746 94.5982C150.197 94.7635 150.505 94.7779 150.601 94.6382ZM157.73 99.0699C163.183 104.363 168.753 109.537 174.44 114.59C176.46 116.38 177.5 117.82 179.73 115.37C179.818 115.274 179.886 115.16 179.928 115.036C179.971 114.912 179.988 114.78 179.977 114.649C179.967 114.518 179.93 114.39 179.869 114.274C179.807 114.157 179.723 114.053 179.62 113.97C171.61 107.46 163.8 101.11 156.27 93.9799C155.143 92.9066 154.17 93.0733 153.35 94.4799C153.19 94.7599 153.213 95.0199 153.42 95.2599C154.68 96.7399 156.62 97.9999 157.73 99.0699ZM78.25 104.49L78.78 104.78C79.1 104.947 79.24 105.207 79.2 105.56C78.55 111.27 69.25 113.17 64.23 113.15C58.81 113.13 57.57 114.35 52.94 116.22C52.8556 116.256 52.7844 116.318 52.7368 116.397C52.6891 116.476 52.6677 116.567 52.6755 116.658C52.6834 116.749 52.7201 116.834 52.7803 116.901C52.8405 116.968 52.921 117.013 53.01 117.03C57.79 117.99 65.83 115.99 70.76 115.14C77.19 114.03 83.83 111.74 90.4 110.02C90.5089 109.989 90.606 109.927 90.6786 109.84C90.7511 109.753 90.7958 109.647 90.8066 109.534C90.8174 109.422 90.7939 109.309 90.7392 109.21C90.6845 109.111 90.6011 109.031 90.5 108.98C87.72 107.65 82.54 105.15 84.73 101.09C84.8048 100.95 84.8475 100.795 84.8549 100.636C84.8624 100.478 84.8345 100.319 84.7733 100.173C84.712 100.027 84.6189 99.8955 84.5007 99.7895C84.3825 99.6834 84.2422 99.605 84.09 99.5599C80.56 98.5499 77.83 99.0299 74.26 99.2299C68.6533 99.5433 63.0333 99.7166 57.4 99.7499C52.85 99.7799 48.44 102.44 44.29 104.15C43.9633 104.283 43.74 104.513 43.62 104.84C42.7 107.34 40.91 108.937 38.25 109.63C38.1152 109.665 37.9913 109.733 37.8894 109.828C37.7875 109.923 37.7108 110.042 37.6662 110.174C37.6216 110.305 37.6104 110.446 37.6338 110.584C37.6571 110.721 37.7143 110.85 37.8 110.96C40.4 114.293 43.7 116.133 47.7 116.48C50.36 116.7 53.05 115.23 55.45 114.06C63.02 110.36 70.89 113.99 77.46 107.35C77.5286 107.281 77.5812 107.197 77.6141 107.104C77.6469 107.01 77.6592 106.91 77.65 106.81L77.47 105.01C77.4033 104.35 77.6633 104.177 78.25 104.49ZM175.83 117.92C174.92 115.68 169.66 111.44 167.82 110.31C167.76 110.279 167.691 110.27 167.625 110.285C167.559 110.299 167.5 110.336 167.458 110.39C167.417 110.443 167.395 110.509 167.397 110.577C167.399 110.645 167.425 110.709 167.47 110.76C169.93 113.14 171.997 115.867 173.67 118.94C173.823 119.196 174.065 119.386 174.351 119.473C174.636 119.56 174.943 119.537 175.213 119.41C175.482 119.283 175.695 119.06 175.809 118.784C175.923 118.509 175.931 118.201 175.83 117.92ZM193.96 111.75C189.47 109.15 187.11 112.25 183.65 114.31C183.523 114.385 183.416 114.489 183.338 114.615C183.259 114.74 183.212 114.882 183.201 115.029C183.189 115.176 183.213 115.324 183.27 115.46C183.327 115.596 183.416 115.716 183.53 115.81L186.16 117.98C186.331 118.123 186.543 118.206 186.767 118.219C186.99 118.232 187.212 118.172 187.4 118.05L194.01 113.68C195.03 113.007 195.013 112.363 193.96 111.75ZM88.19 126.32L88.82 126.95C89.0933 127.217 89.4166 127.317 89.79 127.25C93.79 126.55 96.05 133.9 96.89 136.74C96.9145 136.822 96.9605 136.896 97.0233 136.954C97.0861 137.013 97.1633 137.053 97.247 137.071C97.3306 137.09 97.4177 137.085 97.4991 137.059C97.5805 137.032 97.6533 136.984 97.71 136.92L100 134.29C100.193 134.063 100.237 133.807 100.13 133.52C99.01 130.507 97.47 128.413 95.51 127.24C92.66 125.53 87.01 122.69 90.84 118.8C90.9456 118.694 91.0201 118.561 91.0553 118.414C91.0906 118.268 91.0853 118.114 91.04 117.97C90.4533 116.11 90.68 114.36 91.72 112.72C91.7962 112.6 91.8353 112.46 91.8322 112.318C91.8292 112.176 91.7843 112.038 91.703 111.922C91.6218 111.805 91.5079 111.715 91.3757 111.663C91.2434 111.612 91.0988 111.6 90.96 111.63C88.1333 112.243 85.34 113.01 82.58 113.93C79.98 114.8 78.67 116.85 77.19 118.93C77.0141 119.175 76.9289 119.475 76.949 119.777C76.969 120.08 77.093 120.367 77.3 120.59C79.3 122.757 81.3367 124.753 83.41 126.58C85.0833 128.047 86.4167 127.987 87.41 126.4C87.63 126.047 87.89 126.02 88.19 126.32ZM93.13 119.6C92.0966 119.853 91.4766 120.483 91.27 121.49C91.2339 121.659 91.2447 121.834 91.3012 121.996C91.3576 122.159 91.4576 122.302 91.59 122.41C93.03 123.583 94.6566 124.34 96.47 124.68C96.7566 124.733 97.0133 124.853 97.24 125.04L98.53 126.1C98.6001 126.157 98.6838 126.195 98.773 126.21C98.8621 126.225 98.9536 126.216 99.0384 126.185C99.1232 126.153 99.1984 126.1 99.2565 126.031C99.3147 125.962 99.3538 125.879 99.37 125.79L100.45 119.75C100.472 119.634 100.468 119.515 100.439 119.401C100.409 119.287 100.355 119.181 100.28 119.09L94.77 112.42C94.7005 112.339 94.6055 112.284 94.5006 112.264C94.3957 112.244 94.2873 112.261 94.193 112.311C94.0987 112.361 94.0243 112.442 93.982 112.54C93.9396 112.638 93.9319 112.747 93.96 112.85L94.43 114.52C94.4544 114.6 94.4603 114.685 94.4471 114.767C94.4338 114.85 94.4019 114.929 94.3536 114.997C94.3054 115.066 94.2422 115.122 94.1687 115.163C94.0953 115.203 94.0137 115.226 93.93 115.23L93.15 115.27C92.9977 115.275 92.8513 115.333 92.7349 115.435C92.6186 115.536 92.5393 115.676 92.51 115.83C92.3367 116.783 92.6333 117.517 93.4 118.03C93.5409 118.123 93.6516 118.255 93.7187 118.41C93.7857 118.565 93.8062 118.737 93.7775 118.903C93.7489 119.07 93.6724 119.224 93.5574 119.348C93.4424 119.472 93.2939 119.559 93.13 119.6ZM215.81 127.44C209.97 122.733 204.123 118.417 198.27 114.49C197.839 114.202 197.333 114.046 196.814 114.04C196.296 114.035 195.787 114.181 195.35 114.46L188.41 118.87C187.917 119.183 187.9 119.52 188.36 119.88L209.97 136.92C210.328 137.2 210.77 137.349 211.222 137.344C211.675 137.338 212.112 137.178 212.46 136.89L218.84 131.62C218.977 131.509 219.067 131.349 219.091 131.173C219.115 130.997 219.072 130.817 218.97 130.67C218.303 129.677 217.25 128.6 215.81 127.44ZM73.66 117.25C74.1733 117.697 74.6233 118 75.01 118.16C75.39 118.313 75.8366 118.19 76.35 117.79C77.0433 117.243 77.7267 116.613 78.4 115.9C78.465 115.833 78.5062 115.748 78.5174 115.656C78.5285 115.564 78.509 115.471 78.4619 115.39C78.4147 115.309 78.3423 115.245 78.2555 115.207C78.1687 115.169 78.072 115.16 77.98 115.18L73.92 116.17C73.8081 116.199 73.706 116.258 73.6248 116.34C73.5436 116.422 73.4864 116.524 73.4596 116.636C73.4327 116.748 73.4372 116.864 73.4726 116.972C73.5079 117.08 73.5728 117.177 73.66 117.25ZM65.81 117.83C59.4966 118.79 53.0533 118.937 46.48 118.27C45.54 118.177 44.9266 118.283 44.64 118.59C44.2333 119.023 44.12 119.773 44.3 120.84C44.3608 121.199 44.5499 121.523 44.8318 121.752C45.1137 121.98 45.4688 122.097 45.83 122.08C51.23 121.81 54.02 128.25 56.92 132.1C57.023 132.238 57.1572 132.35 57.312 132.427C57.4668 132.503 57.6377 132.542 57.811 132.54C57.9842 132.538 58.155 132.496 58.3094 132.416C58.4638 132.336 58.5976 132.221 58.7 132.08L67.23 120.15C67.3988 119.913 67.4944 119.631 67.5047 119.339C67.515 119.048 67.4396 118.761 67.2879 118.513C67.1363 118.265 66.9151 118.068 66.6521 117.946C66.3892 117.825 66.0962 117.784 65.81 117.83ZM178.41 124.83L180.84 122.93C180.937 122.854 181.018 122.759 181.079 122.652C181.14 122.544 181.179 122.426 181.193 122.303C181.208 122.181 181.199 122.056 181.166 121.937C181.132 121.818 181.076 121.707 181 121.61L180.88 121.47C180.187 120.586 179.374 119.855 178.618 119.437C177.863 119.019 177.227 118.948 176.85 119.24L175.78 120.08C175.594 120.226 175.477 120.456 175.436 120.759C175.395 121.061 175.432 121.43 175.543 121.843C175.655 122.256 175.839 122.706 176.086 123.167C176.332 123.628 176.636 124.091 176.98 124.53L177.09 124.67C177.166 124.767 177.261 124.848 177.368 124.909C177.476 124.97 177.594 125.009 177.717 125.023C177.839 125.038 177.964 125.029 178.083 124.996C178.202 124.962 178.313 124.906 178.41 124.83ZM210.27 138.3C203.083 132.98 196.35 127.713 190.07 122.5C187.81 120.62 186.78 119.19 184.34 121.79C184.248 121.889 184.177 122.007 184.133 122.135C184.089 122.262 184.073 122.398 184.085 122.531C184.098 122.665 184.138 122.794 184.205 122.909C184.271 123.024 184.361 123.124 184.47 123.2L207.91 140.06C208.12 140.209 208.378 140.274 208.633 140.243C208.888 140.211 209.123 140.086 209.29 139.89L210.31 138.67C210.332 138.643 210.349 138.612 210.359 138.579C210.368 138.546 210.372 138.511 210.368 138.477C210.364 138.442 210.354 138.409 210.337 138.378C210.32 138.348 210.297 138.321 210.27 138.3ZM70.05 120.93C69.9297 120.801 69.7822 120.7 69.6182 120.635C69.4541 120.57 69.2776 120.542 69.1015 120.553C68.9254 120.565 68.754 120.615 68.5998 120.701C68.4456 120.787 68.3124 120.906 68.21 121.05L59.26 133.52C59.1398 133.691 59.0745 133.894 59.0727 134.103C59.0709 134.312 59.1328 134.517 59.25 134.69L61.25 137.67C61.5233 138.077 61.7966 138.077 62.07 137.67L71.71 123.58C71.8065 123.444 71.8532 123.279 71.8423 123.112C71.8314 122.944 71.7635 122.785 71.65 122.66L70.05 120.93ZM76.56 121.37C76.4636 121.273 76.3473 121.197 76.2189 121.149C76.0905 121.101 75.953 121.081 75.8157 121.09C75.6783 121.1 75.5443 121.139 75.4226 121.204C75.3009 121.27 75.1943 121.36 75.11 121.47L74.28 122.59C73.9866 122.977 74.0033 123.35 74.33 123.71L79.37 129.36C79.55 129.567 79.78 129.67 80.06 129.67L83.67 129.64C83.7648 129.639 83.8576 129.61 83.9366 129.557C84.0156 129.504 84.0772 129.43 84.1137 129.343C84.1501 129.256 84.1597 129.161 84.1412 129.07C84.1228 128.978 84.0771 128.895 84.01 128.83L76.56 121.37ZM206.95 140.73L183.05 123.58C182.93 123.495 182.786 123.448 182.638 123.447C182.49 123.445 182.344 123.488 182.22 123.57L178.45 126.12C178.287 126.232 178.169 126.397 178.116 126.587C178.063 126.777 178.078 126.98 178.16 127.16C180.38 132.107 182.07 137.23 183.23 142.53C183.303 142.863 183.477 143.133 183.75 143.34L195.23 151.85C195.537 152.077 195.83 152.063 196.11 151.81L207.02 141.95C207.107 141.87 207.175 141.772 207.219 141.663C207.264 141.554 207.283 141.437 207.276 141.319C207.27 141.202 207.237 141.089 207.18 140.987C207.124 140.885 207.045 140.797 206.95 140.73ZM85.77 147.91C87.91 139.57 79.09 140.54 80.8 132.71C80.88 132.343 80.7866 132.03 80.52 131.77L73.52 124.86C73.4478 124.789 73.3612 124.735 73.266 124.701C73.1709 124.667 73.0693 124.654 72.968 124.663C72.8668 124.671 72.7682 124.701 72.6789 124.751C72.5896 124.8 72.5115 124.868 72.45 124.95C69.59 128.837 66.8733 132.767 64.3 136.74C61.8 140.61 64.88 141.8 66.98 144.27C71.16 149.163 75.6166 153.817 80.35 158.23C80.7366 158.583 81.07 158.54 81.35 158.1C83.3633 154.927 84.8366 151.53 85.77 147.91ZM118.94 137.77L125.63 138.8C125.756 138.82 125.886 138.81 126.007 138.771C126.129 138.733 126.24 138.667 126.332 138.578C126.423 138.49 126.492 138.382 126.533 138.262C126.575 138.143 126.587 138.015 126.57 137.89C126.263 135.663 125.393 133.7 123.96 132C123.74 131.74 123.497 131.713 123.23 131.92L118.4 135.65C118.215 135.792 118.076 135.985 118 136.205C117.923 136.425 117.913 136.662 117.971 136.888C118.028 137.114 118.151 137.318 118.323 137.474C118.495 137.631 118.71 137.734 118.94 137.77ZM221.621 133.094C221.374 132.789 221.016 132.595 220.626 132.554C220.236 132.513 219.845 132.629 219.54 132.876L214.162 137.231C214.011 137.353 213.885 137.504 213.793 137.675C213.7 137.845 213.642 138.033 213.621 138.226C213.601 138.419 213.619 138.615 213.674 138.801C213.729 138.987 213.821 139.161 213.943 139.312L214.019 139.405C214.266 139.71 214.624 139.905 215.014 139.946C215.404 139.987 215.795 139.871 216.1 139.624L221.478 135.269C221.629 135.147 221.755 134.996 221.847 134.825C221.94 134.655 221.998 134.467 222.019 134.274C222.039 134.081 222.021 133.885 221.966 133.699C221.911 133.512 221.819 133.339 221.697 133.188L221.621 133.094ZM84.48 138.73C84.9133 139.27 85.3366 139.407 85.75 139.14C85.8163 139.098 85.8735 139.044 85.9181 138.98C85.9628 138.915 85.994 138.843 86.0099 138.766C86.0258 138.69 86.026 138.611 86.0106 138.534C85.9951 138.457 85.9643 138.384 85.92 138.32L82.89 133.98C82.8472 133.922 82.7886 133.879 82.7213 133.854C82.6541 133.829 82.5811 133.824 82.5111 133.84C82.4412 133.856 82.3774 133.892 82.3275 133.943C82.2776 133.995 82.2437 134.06 82.23 134.13C81.77 136.85 83.14 137.07 84.48 138.73ZM104.97 137.7L101.98 135.17C101.762 134.985 101.48 134.893 101.195 134.916C100.91 134.938 100.646 135.073 100.46 135.29L98.44 137.69C98.0275 138.178 97.8337 138.816 97.9012 139.465C97.9687 140.114 98.292 140.72 98.8 141.15L99.61 141.83C100.118 142.259 100.769 142.477 101.42 142.435C102.07 142.394 102.667 142.097 103.08 141.61L105.1 139.22C105.284 139.001 105.374 138.718 105.349 138.433C105.325 138.148 105.188 137.884 104.97 137.7ZM224.55 136C224.345 135.78 224.065 135.645 223.766 135.623C223.467 135.601 223.172 135.693 222.94 135.88L217.54 140.22C217.446 140.295 217.373 140.393 217.326 140.503C217.279 140.614 217.26 140.735 217.271 140.854C217.282 140.974 217.322 141.089 217.388 141.19C217.454 141.29 217.544 141.373 217.65 141.43L220.41 142.88C220.499 142.927 220.596 142.956 220.696 142.965C220.797 142.973 220.898 142.961 220.993 142.93C221.089 142.898 221.177 142.847 221.252 142.78C221.327 142.713 221.387 142.631 221.43 142.54C222.39 140.447 223.99 139.237 226.23 138.91C226.316 138.899 226.397 138.864 226.465 138.809C226.532 138.755 226.583 138.683 226.612 138.601C226.641 138.519 226.647 138.431 226.629 138.346C226.611 138.261 226.57 138.183 226.51 138.12L224.55 136ZM105.69 140.19C104.33 141.53 103.327 142.86 102.68 144.18C102.64 144.259 102.627 144.349 102.641 144.437C102.656 144.524 102.698 144.605 102.761 144.667C102.825 144.729 102.906 144.77 102.994 144.783C103.082 144.796 103.171 144.781 103.25 144.74C107.91 142.35 111.26 140.15 116.46 138.92C116.572 138.894 116.674 138.832 116.748 138.744C116.823 138.656 116.868 138.546 116.876 138.431C116.883 138.316 116.854 138.201 116.792 138.103C116.73 138.006 116.638 137.931 116.53 137.89C115.937 137.663 115.263 137.637 114.51 137.81C111.25 138.56 108.27 137.64 105.69 140.19ZM209.941 142.662C209.718 142.42 209.408 142.278 209.079 142.265C208.75 142.252 208.43 142.371 208.189 142.594L198.049 151.984C197.807 152.208 197.665 152.518 197.652 152.846C197.64 153.175 197.758 153.495 197.981 153.737L198.539 154.338C198.762 154.58 199.072 154.722 199.401 154.735C199.73 154.747 200.05 154.629 200.291 154.406L210.431 145.016C210.672 144.792 210.815 144.482 210.828 144.153C210.84 143.825 210.722 143.505 210.498 143.263L209.941 142.662ZM219.08 145.253C219.156 145.128 219.206 144.99 219.229 144.846C219.251 144.702 219.245 144.555 219.211 144.413C219.177 144.272 219.115 144.138 219.029 144.02C218.943 143.902 218.835 143.803 218.711 143.727L216.372 142.299C216.247 142.223 216.109 142.173 215.965 142.15C215.821 142.127 215.674 142.134 215.533 142.168C215.391 142.202 215.257 142.264 215.14 142.35C215.022 142.436 214.922 142.544 214.846 142.668L214.7 142.907C214.624 143.032 214.574 143.17 214.551 143.314C214.529 143.458 214.535 143.605 214.569 143.747C214.603 143.888 214.665 144.022 214.751 144.14C214.837 144.257 214.945 144.357 215.069 144.433L217.408 145.861C217.533 145.937 217.671 145.987 217.815 146.01C217.959 146.032 218.106 146.026 218.247 145.992C218.389 145.958 218.523 145.896 218.64 145.81C218.758 145.724 218.858 145.616 218.934 145.492L219.08 145.253ZM203.48 153.02C202.68 153.66 201.977 154.457 201.37 155.41C201.137 155.783 201.203 156.09 201.57 156.33L206.39 159.49C206.703 159.697 206.987 159.66 207.24 159.38L216.46 148.94C216.646 148.731 216.754 148.464 216.765 148.183C216.776 147.902 216.69 147.625 216.52 147.4C215.66 146.247 214.58 145.447 213.28 145C212.94 144.887 212.633 144.943 212.36 145.17C209.31 147.7 206.54 150.56 203.48 153.02ZM101.953 145.372C101.895 145.309 101.812 145.271 101.71 145.259C101.608 145.247 101.489 145.261 101.359 145.3C101.229 145.34 101.091 145.404 100.953 145.489C100.815 145.574 100.679 145.679 100.554 145.797C100.429 145.915 100.317 146.044 100.223 146.177C100.13 146.309 100.058 146.443 100.011 146.571C99.9634 146.698 99.9424 146.816 99.9485 146.919C99.9547 147.021 99.988 147.106 100.047 147.168C100.105 147.23 100.188 147.269 100.29 147.281C100.392 147.293 100.511 147.279 100.641 147.24C100.771 147.2 100.909 147.136 101.047 147.051C101.185 146.966 101.321 146.861 101.446 146.743C101.571 146.625 101.683 146.496 101.777 146.363C101.87 146.23 101.942 146.097 101.989 145.969C102.037 145.842 102.058 145.724 102.051 145.621C102.045 145.518 102.012 145.434 101.953 145.372ZM193.99 152.2L184.7 145.25C184.609 145.18 184.499 145.139 184.385 145.132C184.27 145.125 184.156 145.153 184.057 145.211C183.957 145.27 183.877 145.358 183.826 145.462C183.775 145.567 183.755 145.685 183.77 145.8L184.31 149.8C184.35 150.113 184.493 150.363 184.74 150.55C187.01 152.24 192.1 158.12 194.31 153.52C194.419 153.294 194.447 153.039 194.388 152.797C194.33 152.556 194.189 152.345 193.99 152.2ZM190.65 156.98C190.683 156.949 190.708 156.912 190.725 156.871C190.742 156.83 190.75 156.785 190.748 156.74C190.746 156.696 190.735 156.652 190.714 156.612C190.694 156.572 190.665 156.538 190.63 156.51L184.74 151.94C184.697 151.906 184.646 151.884 184.592 151.876C184.538 151.868 184.483 151.874 184.432 151.895C184.381 151.915 184.337 151.948 184.303 151.992C184.269 152.035 184.248 152.086 184.24 152.14L182.49 164.1C182.481 164.164 182.491 164.229 182.521 164.286C182.55 164.344 182.597 164.39 182.654 164.42C182.711 164.45 182.776 164.461 182.84 164.452C182.904 164.443 182.963 164.414 183.01 164.37L190.65 156.98ZM197.79 160.21L201.92 163.41C202.018 163.486 202.13 163.541 202.249 163.574C202.368 163.606 202.493 163.615 202.615 163.599C202.738 163.583 202.856 163.543 202.963 163.482C203.071 163.42 203.165 163.338 203.24 163.24L204.15 162.06C204.487 161.622 204.613 161.049 204.498 160.466C204.384 159.883 204.039 159.338 203.54 158.95L201.71 157.52C201.462 157.328 201.183 157.18 200.889 157.085C200.595 156.991 200.293 156.951 199.998 156.969C199.704 156.987 199.424 157.061 199.173 157.188C198.923 157.315 198.708 157.493 198.54 157.71L197.63 158.89C197.554 158.987 197.497 159.098 197.464 159.217C197.431 159.336 197.422 159.461 197.437 159.583C197.451 159.706 197.49 159.824 197.551 159.932C197.612 160.039 197.693 160.134 197.79 160.21ZM181.7 173.65L194.86 159.97C194.9 159.926 194.922 159.868 194.92 159.808C194.918 159.748 194.893 159.692 194.85 159.65L193.89 158.72C193.35 158.203 192.339 158.221 191.077 158.77C189.815 159.32 188.406 160.355 187.16 161.65L183.08 165.89C181.833 167.185 180.852 168.634 180.351 169.916C179.85 171.199 179.872 172.211 180.41 172.73L181.37 173.65C181.391 173.672 181.417 173.69 181.445 173.702C181.474 173.714 181.504 173.72 181.535 173.72C181.566 173.72 181.596 173.714 181.625 173.702C181.653 173.69 181.679 173.672 181.7 173.65ZM199.98 163.62L197.65 161.29C197.524 161.163 197.373 161.062 197.208 160.993C197.042 160.924 196.864 160.888 196.685 160.888C196.506 160.888 196.328 160.924 196.162 160.993C195.997 161.062 195.846 161.163 195.72 161.29L184.19 172.82C183.962 173.048 183.763 173.301 183.606 173.564C183.448 173.828 183.334 174.097 183.271 174.356C183.208 174.615 183.196 174.859 183.237 175.074C183.278 175.29 183.371 175.472 183.51 175.61L185.66 177.76C185.798 177.899 185.98 177.991 186.195 178.032C186.411 178.073 186.655 178.062 186.914 177.999C187.173 177.936 187.442 177.822 187.706 177.664C187.969 177.507 188.222 177.308 188.45 177.08L199.98 165.55C200.107 165.424 200.208 165.273 200.277 165.108C200.346 164.942 200.382 164.764 200.382 164.585C200.382 164.406 200.346 164.228 200.277 164.062C200.208 163.897 200.107 163.746 199.98 163.62ZM80.69 193.81C83.04 194.33 85.45 195.95 88.09 195.23C91.9966 194.17 93.5533 191.357 92.76 186.79C92.4333 184.897 90.6733 181.017 87.48 175.15C87.2667 174.75 87.1433 174.777 87.11 175.23C86.79 179.66 89.17 194.65 80.14 192.36C80.0668 192.343 79.9904 192.345 79.9185 192.367C79.8465 192.389 79.7815 192.429 79.7299 192.484C79.6783 192.538 79.642 192.605 79.6244 192.678C79.6069 192.751 79.6088 192.828 79.63 192.9C79.7833 193.387 80.1367 193.69 80.69 193.81ZM185.023 179.764C185.101 179.671 185.16 179.564 185.196 179.449C185.232 179.334 185.246 179.213 185.235 179.092C185.225 178.972 185.19 178.855 185.135 178.748C185.079 178.64 185.002 178.545 184.91 178.468L182.351 176.321C182.164 176.164 181.923 176.088 181.68 176.109C181.437 176.13 181.212 176.247 181.055 176.434L179.577 178.196C179.499 178.289 179.44 178.396 179.404 178.511C179.368 178.626 179.354 178.747 179.365 178.868C179.375 178.988 179.41 179.105 179.465 179.212C179.521 179.319 179.598 179.415 179.69 179.492L182.249 181.639C182.436 181.796 182.677 181.872 182.92 181.851C183.163 181.83 183.388 181.713 183.545 181.526L185.023 179.764ZM177.34 180.3L163.54 195.29C163.47 195.365 163.416 195.454 163.382 195.551C163.347 195.648 163.334 195.751 163.341 195.854C163.349 195.957 163.377 196.058 163.425 196.15C163.473 196.242 163.539 196.324 163.62 196.39L167.43 199.46C167.571 199.576 167.736 199.659 167.913 199.705C168.089 199.751 168.274 199.758 168.454 199.725C168.635 199.693 168.806 199.622 168.957 199.518C169.108 199.413 169.236 199.278 169.33 199.12C172.637 193.547 176.613 188.51 181.26 184.01C181.353 183.92 181.425 183.811 181.473 183.69C181.52 183.57 181.542 183.441 181.536 183.312C181.531 183.182 181.498 183.056 181.44 182.94C181.382 182.824 181.3 182.722 181.2 182.64L178.32 180.23C178.18 180.114 178.001 180.057 177.819 180.07C177.637 180.083 177.465 180.165 177.34 180.3ZM165.195 191.405C165.145 191.344 165.044 191.326 164.899 191.351C164.754 191.377 164.567 191.446 164.349 191.554C164.131 191.662 163.886 191.807 163.629 191.981C163.371 192.155 163.106 192.354 162.847 192.568C162.326 192.999 161.867 193.461 161.57 193.852C161.273 194.244 161.164 194.533 161.265 194.655C161.315 194.716 161.416 194.734 161.561 194.709C161.706 194.683 161.893 194.614 162.111 194.506C162.329 194.398 162.574 194.253 162.831 194.079C163.089 193.905 163.354 193.706 163.612 193.492C164.134 193.061 164.593 192.599 164.89 192.207C165.187 191.816 165.296 191.527 165.195 191.405ZM161.66 197.48L160.05 199.5C159.975 199.593 159.919 199.7 159.886 199.815C159.852 199.93 159.842 200.05 159.855 200.169C159.868 200.288 159.904 200.403 159.962 200.508C160.019 200.613 160.097 200.705 160.19 200.78L162.97 202.99C163.491 203.407 164.087 203.687 164.626 203.77C165.166 203.852 165.606 203.73 165.85 203.43L166.77 202.27C167.01 201.967 167.033 201.511 166.834 201.003C166.636 200.495 166.231 199.976 165.71 199.56L162.94 197.34C162.847 197.265 162.74 197.209 162.625 197.176C162.51 197.142 162.39 197.132 162.271 197.145C162.152 197.158 162.037 197.194 161.932 197.251C161.827 197.309 161.735 197.387 161.66 197.48ZM148.4 211.78L157.15 200.7C157.3 200.508 157.367 200.264 157.337 200.022C157.307 199.78 157.182 199.56 156.99 199.41L156.49 199.01C156.202 198.782 155.837 198.656 155.416 198.64C154.996 198.624 154.528 198.718 154.039 198.917C153.551 199.116 153.051 199.415 152.569 199.798C152.087 200.181 151.632 200.641 151.23 201.15L147.47 205.92C147.067 206.429 146.724 206.979 146.462 207.537C146.2 208.095 146.024 208.651 145.943 209.174C145.862 209.696 145.879 210.173 145.991 210.579C146.104 210.985 146.311 211.312 146.6 211.54L147.1 211.93C147.195 212.006 147.304 212.063 147.421 212.096C147.538 212.13 147.66 212.14 147.781 212.126C147.902 212.112 148.019 212.075 148.125 212.015C148.232 211.956 148.325 211.876 148.4 211.78ZM148.92 202.22C149.233 202.08 149.28 201.83 149.06 201.47C149.017 201.403 148.954 201.353 148.882 201.325C148.809 201.298 148.731 201.296 148.66 201.32L139.8 204.03C139.704 204.061 139.617 204.117 139.55 204.193C139.484 204.269 139.438 204.362 139.42 204.461C139.402 204.561 139.41 204.663 139.446 204.758C139.481 204.853 139.541 204.937 139.62 205L143.65 208.13C143.734 208.195 143.83 208.243 143.932 208.269C144.035 208.296 144.142 208.302 144.247 208.286C144.351 208.27 144.452 208.233 144.542 208.177C144.632 208.121 144.709 208.047 144.77 207.96L148.41 202.63C148.537 202.45 148.707 202.313 148.92 202.22ZM154.33 206.1C152.337 208.26 150.533 210.62 148.92 213.18C148.809 213.358 148.752 213.565 148.756 213.776C148.76 213.987 148.823 214.193 148.94 214.37L152.64 219.85C152.7 219.937 152.783 220.006 152.879 220.05C152.976 220.095 153.082 220.112 153.188 220.101C153.293 220.089 153.393 220.05 153.478 219.986C153.563 219.923 153.629 219.838 153.67 219.74C155.817 214.58 159.077 210.213 163.45 206.64C163.573 206.538 163.673 206.411 163.742 206.266C163.811 206.122 163.848 205.965 163.85 205.805C163.852 205.645 163.819 205.486 163.753 205.34C163.688 205.194 163.591 205.065 163.47 204.96L159.49 201.57C159.197 201.317 158.89 201.297 158.57 201.51C156.7 202.72 155.32 205.02 154.33 206.1Z" fill="#111111" fill-opacity="0.996"/>
<path d="M76.79 78.8901C76.9699 78.885 77.1479 78.9271 77.3064 79.0123C77.4649 79.0974 77.5983 79.2226 77.6933 79.3753C77.7884 79.528 77.8418 79.703 77.8483 79.8828C77.8547 80.0626 77.814 80.2409 77.73 80.4001C76.5567 82.6001 74.88 84.3534 72.7 85.6601C72.42 85.8267 72.1234 85.8634 71.81 85.7701C70.1567 85.3034 69.3867 84.1767 69.5 82.3901C69.5267 82.0034 69.69 81.6867 69.99 81.4401C71.95 79.8134 74.2167 78.9634 76.79 78.8901ZM70.7 82.2801C70.4459 82.5137 70.2863 82.8325 70.2516 83.176C70.2168 83.5195 70.3093 83.8639 70.5115 84.1437C70.7137 84.4236 71.0115 84.6195 71.3485 84.6944C71.6856 84.7693 72.0384 84.7179 72.34 84.5501C74 83.6301 75.3834 82.4234 76.49 80.9301C76.5601 80.8375 76.6018 80.7267 76.6102 80.6109C76.6185 80.4951 76.5931 80.3794 76.537 80.2778C76.4809 80.1762 76.3965 80.0931 76.2941 80.0384C76.1917 79.9838 76.0757 79.9601 75.96 79.9701C73.94 80.1434 72.1867 80.9134 70.7 82.2801Z" fill="#111111" fill-opacity="0.996"/>
<path d="M67.99 90.18C71.41 91.51 74.64 91.07 77.44 88.74C77.7 88.52 77.9233 88.42 78.11 88.44C78.29 88.46 78.4433 88.5467 78.57 88.7C78.6407 88.7879 78.674 88.9 78.6628 89.0123C78.6516 89.1245 78.5967 89.2278 78.51 89.3C75.1033 92.0733 71.3267 92.68 67.18 91.12C67.1266 91.1 67.079 91.0669 67.0418 91.0237C67.0045 90.9805 66.9787 90.9286 66.9668 90.8728C66.9548 90.8171 66.9571 90.7592 66.9734 90.7045C66.9897 90.6498 67.0195 90.6001 67.06 90.56L67.29 90.33C67.4967 90.13 67.73 90.08 67.99 90.18Z" fill="#111111" fill-opacity="0.996"/>
</svg>
