<svg width="111" height="95" viewBox="0 0 111 95" fill="none" xmlns="http://www.w3.org/2000/svg">
<g id="Group">
<path id="Vector" fill-rule="evenodd" clip-rule="evenodd" d="M43.8591 55.4954C43.8844 57.3329 44.1244 59.1863 44.6045 61.0523C46.2881 67.6007 53.7996 71.8048 61.7943 72.7933C69.786 73.7817 78.0966 71.5324 81.2996 65.8361C83.1316 62.5793 83.3843 59.7724 82.6357 57.4058C81.8903 55.0519 80.1215 53.1004 77.7209 51.5797C71.0275 47.344 59.3052 46.4791 53.9575 48.25C51.4842 49.0706 49.0679 50.0589 46.7146 51.19C48.0602 43.7861 53.0732 36.7719 59.7634 30.4516C74.3031 16.7147 96.8659 6.28855 109.153 2.45515C109.814 2.24922 110.18 1.54591 109.975 0.883781C109.769 0.221649 109.068 -0.149048 108.408 0.0568771C95.8773 3.96631 72.8753 14.6143 58.0481 28.6236C50.3882 35.8595 44.9299 44.0047 43.998 52.5681C26.6818 61.8475 12.4612 78.6827 0.303162 92.8505C-0.148537 93.3732 -0.0885468 94.1684 0.435799 94.6215C0.960152 95.0713 1.74995 95.0143 2.20164 94.4884C13.8637 80.9004 27.3989 64.7368 43.8591 55.4954ZM46.3765 54.149C46.2817 56.2146 46.484 58.3119 47.0305 60.4282C48.4866 66.0959 55.18 69.4477 62.1008 70.3031C66.343 70.8259 70.7052 70.395 74.1261 68.8616C76.2772 67.8985 78.0493 66.5014 79.117 64.6005C80.5195 62.1073 80.8227 59.9751 80.2478 58.1661C79.673 56.3445 78.2451 54.8809 76.3846 53.7055C70.285 49.8436 59.6117 49.023 54.7441 50.6355C51.8728 51.586 49.0867 52.7709 46.3765 54.149Z" fill="#121212"/>
</g>
</svg>
